<?xml version="1.0" encoding="UTF-8"?>
<svg width="384px" height="116px" viewBox="0 0 384 116" version="1.1" xmlns="http://www.w3.org/2000/svg" xmlns:xlink="http://www.w3.org/1999/xlink">
    <!-- Generator: Sketch 47.1 (45422) - http://www.bohemiancoding.com/sketch -->
    <title>Combined Shape</title>
    <desc>Created with Sketch.</desc>
    <defs></defs>
    <g id="Web" stroke="none" stroke-width="1" fill="none" fill-rule="evenodd">
        <g id="TextRedesign" transform="translate(-1248.000000, -482.000000)" fill="#0F1328">
            <path d="M1550.69946,542.813351 C1550.96125,542.365748 1551.38595,542.366162 1551.64751,542.813351 L1582.33092,595.273681 C1582.59271,595.721284 1582.38423,596.084137 1581.86466,596.084137 L1520.48231,596.084137 C1519.963,596.084137 1519.75449,595.720869 1520.01605,595.273681 L1550.69946,542.813351 Z M1551.17348,560.193858 L1535.35775,587.234479 L1566.98921,587.234479 L1551.17348,560.193858 Z M1313.91193,532.947789 L1303.61951,532.947789 L1303.61951,482.915211 L1326.77745,482.915211 C1332.06661,482.915211 1336.28364,484.273238 1339.35707,487.060767 C1342.4305,489.776822 1344.00295,493.350577 1344.00295,497.710559 C1344.00295,504.357744 1340.14329,509.575428 1333.63906,511.576731 L1349.07768,532.947789 L1337.14134,532.947789 L1322.56042,512.720332 L1313.91193,512.720332 L1313.91193,532.947789 Z M1313.91193,491.921075 L1313.91193,504.071844 L1326.20565,504.071844 C1330.85153,504.071844 1333.63906,501.927591 1333.63906,497.996459 C1333.63906,494.208279 1330.85153,491.921075 1326.20565,491.921075 L1313.91193,491.921075 Z M1556.31977,532.947789 L1546.09883,532.947789 L1546.09883,510.504604 L1526.72907,482.915211 L1538.87984,482.915211 L1551.31651,500.712514 L1563.82466,482.915211 L1575.61805,482.915211 L1556.31977,510.290179 L1556.31977,532.947789 Z M1475.25508,492.1355 L1475.25508,482.915211 L1517.21097,482.915211 L1517.21097,492.1355 L1501.3435,492.1355 L1501.3435,532.947789 L1491.05108,532.947789 L1491.05108,492.1355 L1475.25508,492.1355 Z M1321.63124,596.084137 L1248,596.084137 L1248,546.051559 L1321.63124,546.051559 C1329.70793,546.051559 1336.35511,548.410238 1341.42985,553.05612 C1346.50458,557.702003 1349.07768,563.705912 1349.07768,571.067848 C1349.07768,578.429785 1346.50458,584.505169 1341.42985,589.151052 C1336.35511,593.796934 1329.70793,596.084137 1321.63124,596.084137 Z M1257.82779,555.271849 L1257.82779,586.863848 L1320.77354,586.863848 C1331.92366,586.863848 1338.49937,581.002889 1338.49937,571.067848 C1338.49937,561.132808 1331.92366,555.271849 1320.77354,555.271849 L1257.82779,555.271849 Z M1461.29361,532.947789 L1451.07267,532.947789 L1451.07267,482.915211 L1461.29361,482.915211 L1461.29361,532.947789 Z M1399.76545,532.947789 L1389.68746,532.947789 L1389.68746,482.915211 L1398.4789,482.915211 L1423.70961,514.936061 L1423.70961,482.915211 L1433.71613,482.915211 L1433.71613,532.947789 L1425.21059,532.947789 L1399.76545,500.783989 L1399.76545,532.947789 Z M1372.33092,532.947789 L1362.10998,532.947789 L1362.10998,482.915211 L1372.33092,482.915211 L1372.33092,532.947789 Z M1248.05953,492.1355 L1248.05953,482.915211 L1290.01542,482.915211 L1290.01542,492.1355 L1274.14794,492.1355 L1274.14794,532.947789 L1263.85553,532.947789 L1263.85553,492.1355 L1248.05953,492.1355 Z M1475.25508,555.271849 L1475.25508,546.051559 L1517.21097,546.051559 L1517.21097,555.271849 L1501.3435,555.271849 L1501.3435,596.084137 L1491.05108,596.084137 L1491.05108,555.271849 L1475.25508,555.271849 Z M1632,596.084137 L1596.33392,596.084137 L1596.33392,483.510837 L1606.62634,483.510837 L1606.62634,586.863848 L1632,586.863848 L1632,596.084137 Z M1461.29361,596.084137 L1451.07267,596.084137 L1451.07267,546.051559 L1461.29361,546.051559 L1461.29361,596.084137 Z M1413.36955,597.084789 C1405.79318,597.084789 1399.4319,594.654635 1394.35717,589.794328 C1389.28243,584.862545 1386.70933,578.64421 1386.70933,571.067848 C1386.70933,563.420012 1389.28243,557.201677 1394.35717,552.341369 C1399.4319,547.481062 1405.93613,545.050908 1413.72692,545.050908 C1419.51641,545.050908 1424.51966,546.33746 1428.7367,548.839089 L1428.7367,558.988555 C1424.09081,556.12955 1419.37346,554.700048 1414.44167,554.700048 C1409.36694,554.700048 1405.22138,556.201025 1402.005,559.274455 C1398.78862,562.27641 1397.21617,566.279016 1397.21617,571.282274 C1397.21617,576.214056 1398.78862,580.216663 1401.86205,583.147142 C1404.93548,586.077622 1408.79514,587.578599 1413.36955,587.578599 C1417.72953,587.578599 1421.08886,586.506473 1423.44754,584.290744 L1423.44754,567.065242 L1433.73995,567.065242 L1433.73995,589.151052 C1431.66718,591.36678 1428.80817,593.296608 1425.16294,594.797585 C1421.51771,596.298563 1417.58658,597.084789 1413.36955,597.084789 Z M1372.33092,596.084137 L1362.10998,596.084137 L1362.10998,546.051559 L1372.33092,546.051559 L1372.33092,596.084137 Z" id="Combined-Shape"></path>
        </g>
    </g>
</svg>