<?xml version="1.0" encoding="UTF-8"?>
<svg width="32px" height="24px" viewBox="0 0 32 24" version="1.1" xmlns="http://www.w3.org/2000/svg" xmlns:xlink="http://www.w3.org/1999/xlink">
    <!-- Generator: Sketch 47.1 (45422) - http://www.bohemiancoding.com/sketch -->
    <title>People</title>
    <desc>Created with Sketch.</desc>
    <defs></defs>
    <g id="Web" stroke="none" stroke-width="1" fill="none" fill-rule="evenodd">
        <g id="320" transform="translate(-208.000000, -532.000000)">
            <g id="Group-3" transform="translate(0.000000, 520.000000)">
                <rect id="Rectangle-12" fill="#0D0E24" x="0" y="0" width="320" height="48"></rect>
                <path d="M223.999944,24.013465 C226.804983,24.013465 228.986643,21.1040185 228.986643,18.0922157 L228.986643,17.1486598 C228.986643,14.1369687 226.804983,12 223.999944,12 C221.194793,12 219.013133,14.136857 219.013133,17.1486598 L219.013133,18.0922157 C219.013133,21.1040185 221.194793,24.013465 223.999944,24.013465 Z M214.009115,24.9875267 C214.811161,24.9875267 217.006006,23.9468663 217.006006,21.7875491 L217.006006,20.1875044 C217.006006,18.0280754 215.422697,16.987415 214.009115,16.987415 C212.642463,16.987415 211.012336,18.0280754 211.012336,20.1875044 L211.012336,21.7875491 C211.012336,23.9468663 213.249752,24.9875267 214.009115,24.9875267 Z M231.96521,28.9883648 C231.963645,28.9727208 231.958952,28.957859 231.957388,28.9423268 C231.933923,28.7539285 231.897944,28.5696646 231.847998,28.3892001 C231.847998,28.3875239 231.847998,28.3860713 231.846433,28.3845069 C231.741736,28.0008939 231.56508,27.6313606 231.301158,27.2673027 L231.301158,27.2657383 C230.86829,26.6665735 230.2153,26.0554523 229.15436,25.4595282 C228.593442,25.1445253 228.346503,25.0001536 227.999784,25.0001536 C227.448252,25.0001536 226.967002,25.4290224 226.15624,26.1735645 L226.154564,26.1735645 L225.417101,26.8516196 C225.390508,26.8767617 224.595389,28.0001117 224.000056,28.0001117 C223.404723,28.0001117 222.609492,26.87665 222.582899,26.8516196 L221.845436,26.1735645 L221.843872,26.1735645 C221.03311,25.4290224 220.55186,25.0001536 220.000327,25.0001536 C219.653497,25.0001536 219.343986,25.1445253 218.845752,25.4595282 C217.817103,26.1088654 217.131598,26.6657913 216.700518,27.2640621 L216.698842,27.2648443 C216.697278,27.2664087 216.697278,27.2688671 216.695825,27.270208 C216.434808,27.6312489 216.259828,27.9984356 216.155243,28.3797019 C216.15379,28.3828307 216.152002,28.3867417 216.150773,28.390541 C216.102168,28.5696646 216.066189,28.7514701 216.042836,28.9381923 C216.041271,28.9555124 216.036578,28.9718269 216.034902,28.9890352 C216.013002,29.1874904 216.000599,29.3898566 216.000599,29.599933 C216.000599,29.6232872 216.000152,33.9796908 216.000599,34.0000279 C216.000599,35.4218429 216.536488,36 218.000463,36 L229.999872,36 C231.476473,36 231.999736,35.4530191 231.999736,34.0000279 C232.000183,33.9796908 231.999624,29.6232872 231.999624,29.599933 C231.999513,29.3899683 231.986998,29.1876021 231.96521,28.9883648 Z M234.008316,24.9875267 C234.81025,24.9875267 237.005319,23.9468663 237.005319,21.7875491 L237.005319,20.1875044 C237.005319,18.0280754 235.422009,16.987415 234.008316,16.987415 C232.641552,16.987415 231.011425,18.0280754 231.011425,20.1875044 L231.011425,21.7875491 C231.011425,23.9468663 233.248841,24.9875267 234.008316,24.9875267 Z M210.275655,27.1532133 C208.41468,28.2126465 208.000695,29.9017502 208.000695,31.0001816 C208.000695,31.0172782 207.999131,32.9846214 208.000695,33.0001536 C208.000695,34.4516922 208.488203,35.0002375 210.000559,35.0002375 L214.0004,35.0002375 L214.0004,29.0000978 L213.000468,28.0001117 C211.942544,27.0672831 211.050661,26.7126116 210.275655,27.1532133 Z M214.0004,29.0000978 C214.022412,29.019094 214.0004,28.525191 214.0004,29.0000978 L214.0004,29.0000978 Z M239.999305,31.0001816 C239.999305,29.9016384 239.585208,28.2125347 237.724345,27.1532133 C236.949339,26.7126116 236.057456,27.0672831 234.999532,28.0002235 L233.9996,29.0002095 L233.9996,35.0003492 L237.999441,35.0003492 C239.511797,35.0003492 239.999305,34.4518039 239.999305,33.0002654 C240.000869,32.9846214 239.999305,31.01739 239.999305,31.0001816 Z M233.999489,29.0000978 C233.999489,28.525191 233.977588,29.019094 233.999489,29.0000978 L233.999489,29.0000978 Z" id="People" fill="#F9F9F9" fill-rule="nonzero"></path>
            </g>
        </g>
    </g>
</svg>