<?xml version="1.0" encoding="UTF-8"?>
<svg width="24px" height="24px" viewBox="0 0 24 24" version="1.1" xmlns="http://www.w3.org/2000/svg" xmlns:xlink="http://www.w3.org/1999/xlink">
    <!-- Generator: Sketch 47.1 (45422) - http://www.bohemiancoding.com/sketch -->
    <title>Phone</title>
    <desc>Created with Sketch.</desc>
    <defs></defs>
    <g id="Web" stroke="none" stroke-width="1" fill="none" fill-rule="evenodd">
        <g id="320" transform="translate(-276.000000, -532.000000)">
            <g id="Group-3" transform="translate(0.000000, 520.000000)">
                <rect id="Rectangle-12" fill="#0D0E24" x="0" y="0" width="320" height="48"></rect>
                <path d="M293.604394,26.3510204 C292.003111,27.9183517 292.003111,29.4856829 290.401876,29.4856829 C288.800642,29.4856829 287.199358,27.9183517 285.598124,26.3510204 C283.996889,24.7836421 282.395606,23.2163109 282.395606,21.6489796 C282.395606,20.0816483 283.996841,20.0816483 285.598124,18.51427 C287.199407,16.9468918 282.395606,12.244898 280.794371,12.244898 C279.193136,12.244898 275.990618,16.9469388 275.990618,16.9469388 C275.990618,20.0816483 279.280708,26.4367386 282.395606,29.48573 C285.510503,32.5347213 292.003111,35.755102 295.205629,35.755102 C295.205629,35.755102 300.009382,32.6203925 300.009382,31.0530612 C300.009382,29.48573 295.205629,24.7836891 293.604394,26.3510204 Z" id="Phone" fill="#F9F9F9" fill-rule="nonzero"></path>
            </g>
        </g>
    </g>
</svg>