<?xml version="1.0" encoding="UTF-8"?>
<svg width="24px" height="24px" viewBox="0 0 24 24" version="1.1" xmlns="http://www.w3.org/2000/svg" xmlns:xlink="http://www.w3.org/1999/xlink">
    <!-- Generator: Sketch 47.1 (45422) - http://www.bohemiancoding.com/sketch -->
    <title>Tf</title>
    <desc>Created with Sketch.</desc>
    <defs></defs>
    <g id="Web" stroke="none" stroke-width="1" fill="none" fill-rule="evenodd">
        <g id="320" transform="translate(-148.000000, -532.000000)">
            <g id="Group-3" transform="translate(0.000000, 520.000000)">
                <rect id="Rectangle-12" fill="#0D0E24" x="0" y="0" width="320" height="48"></rect>
                <path d="M163.40155,19.516905 L154.80944,19.516905 L154.80944,15.0176893 L151.357168,15.0176893 L151.357168,19.516905 L148,19.516905 L148,22.5049416 L151.357168,22.5049416 L151.357168,30.7483035 C151.357168,33.7685814 153.210638,35.3733641 156.151462,35.3733641 C157.718563,35.3733641 158.901021,35.1216743 159.636492,34.6182946 L159.636492,31.6926604 C158.901021,32.0701951 158.13385,32.2584425 157.270518,32.2584425 C155.608313,32.2584425 154.80944,31.5345742 154.80944,29.7727454 L154.80944,22.5049416 L163.40155,22.5049416 L163.40155,34.9646281 L166.853822,34.9646281 L166.853822,22.5049416 L172,22.5049416 L172,19.516905 L166.853822,19.516905 L166.853822,18.1014097 C166.853822,16.4331845 167.652695,15.5834714 169.283198,15.5834714 C170.082071,15.5834714 171.009863,15.7727588 172,16.1502935 L172,13.2870617 C170.913702,12.8471245 169.698485,12.6266359 168.324762,12.6266359 C165.128214,12.6266359 163.40155,14.5767121 163.40155,17.5033863 L163.40155,19.516905 Z" id="Tf" fill="#F9F9F9"></path>
            </g>
        </g>
    </g>
</svg>