<?xml version="1.0" encoding="UTF-8"?>
<svg width="26px" height="24px" viewBox="0 0 26 24" version="1.1" xmlns="http://www.w3.org/2000/svg" xmlns:xlink="http://www.w3.org/1999/xlink">
    <!-- Generator: Sketch 47.1 (45422) - http://www.bohemiancoding.com/sketch -->
    <title>Works</title>
    <desc>Created with Sketch.</desc>
    <defs></defs>
    <g id="Web" stroke="none" stroke-width="1" fill="none" fill-rule="evenodd">
        <g id="320" transform="translate(-83.000000, -532.000000)">
            <g id="Group-3" transform="translate(0.000000, 520.000000)">
                <rect id="Rectangle-12" fill="#0D0E24" x="0" y="0" width="320" height="48"></rect>
                <path d="M83.75,15.9957909 C83.75,13.7886355 85.5446747,11.9993826 87.7455828,11.9993826 L96.0877505,11.9993826 C98.29445,11.9993826 100.083333,13.788305 100.083333,15.9957909 L100.083333,24.0037975 C100.083333,26.2109529 98.2886586,28.0002058 96.0877505,28.0002058 L87.7455828,28.0002058 C85.5388834,28.0002058 83.75,26.2112834 83.75,24.0037975 L83.75,15.9957909 Z M102.125,19.9997942 L104.170543,19.9997942 C106.423565,19.9997942 108.25,21.7887166 108.25,23.9962025 L108.25,32.0042091 C108.25,34.2113645 106.423902,36.0006174 104.170543,36.0006174 L95.9961236,36.0006174 C93.7431017,36.0006174 91.9166667,34.211695 91.9166667,32.0042091 L91.9166667,30.0003087 L98.1196956,30.0003087 C100.331764,30.0003087 102.125,28.2124171 102.125,25.9903394 L102.125,19.9997942 Z" id="Works" fill="#F9F9F9"></path>
            </g>
        </g>
    </g>
</svg>