<svg xmlns="http://www.w3.org/2000/svg" height="500" width="500" viewBox="0 0 500 500"><path d="M250 130.18L4.76 196.1v4.55L250 134.86l245.24 65.79v-4.55L250 130.18zm-.26 11.83L0 209.06v8.86l249.68-66.17L500 217.92v-8.86l-250.26-67.05zm194.38 91.93c-7.1 0-13.34 1.78-18.72 5.33-5.37 3.55-9.5 8.72-12.4 15.52-2.89 6.8-4.33 14.94-4.33 24.42 0 7.69.82 14.3 2.45 19.82 1.64 5.53 3.96 10.06 6.95 13.61 3 3.55 6.59 6.16 10.78 7.84 4.18 1.68 8.83 2.52 13.93 2.52v.01c7.22 0 13.55-1.7 18.97-5.1s9.61-8.52 12.59-15.37c2.97-6.84 4.46-15.23 4.46-25.18 0-9.31-1.31-17.2-3.92-23.68-2.61-6.49-6.51-11.39-11.67-14.73s-11.53-5.01-19.09-5.01zm-120.43 1.02v3.12c1.79.42 3.19 1.05 4.21 1.88s1.95 2.06 2.81 3.7c.85 1.63 1.84 4.39 2.99 8.25L355.19 323h8.35L390 252.36c1.49-3.91 2.75-6.75 3.79-8.54 1.04-1.78 2.09-3.08 3.16-3.89 1.06-.8 2.47-1.42 4.21-1.85v-3.12h-26.78v3.12c2.81.43 4.79 1.22 5.96 2.39s1.75 3.03 1.75 5.58c0 .55-.03 1.15-.09 1.79-.07.63-.2 1.38-.39 2.23s-.41 1.72-.67 2.61c-.25.89-.5 1.74-.76 2.55l-18.3 52.4-14.92-52.02c-.63-2.08-1.12-3.96-1.47-5.64-.34-1.68-.51-3.24-.51-4.69 0-1.57.26-2.82.77-3.76.51-.93 1.28-1.66 2.3-2.17s2.5-.93 4.46-1.27v-3.12h-28.82zm-264.56 0l-26.586 70.57c-1.657 4.42-3.37 7.82-5.133 10.2-1.76 2.38-3.83 3.76-6.21 4.14V323h27.22v-3.12c-2.67-.39-4.66-1.17-5.96-2.36s-1.94-3.06-1.94-5.61c0-1.32.17-2.79.52-4.41.34-1.61 1.06-3.99 2.17-7.14l2.17-6.24h29.71l2.36 8.22c.64 2.08 1.13 3.96 1.47 5.64.34 1.68.51 3.25.51 4.69 0 1.53-.25 2.75-.77 3.66-.51.92-1.28 1.63-2.32 2.14-1.04.51-2.62.98-4.75 1.4v3.12h29.39v-3.12c-1.91-.46-3.42-1.19-4.52-2.16-1.1-.98-2.05-2.34-2.84-4.09-.78-1.74-1.69-4.27-2.71-7.58l-21.68-71.08H59.14zm138.52 1.01v22.18h6.32c.8-3.4 1.66-6.21 2.58-8.44.91-2.24 1.92-3.96 3.03-5.17 1.1-1.21 2.3-2 3.6-2.39 1.29-.38 2.94-.57 4.94-.57h8.03v65.28c0 2.55-.12 4.49-.35 5.8-.23 1.32-.55 2.36-.96 3.13-.4.76-.91 1.39-1.52 1.88-.62.49-1.42.9-2.4 1.24-.97.34-2.1.66-3.38.96v3.12h29.14v-3.12c-2.08-.47-3.62-.94-4.59-1.43-.98-.5-1.75-1.17-2.33-2.04-.57-.87-.99-2.05-1.27-3.54s-.41-3.49-.41-5.99v-65.29h8.09c2.34 0 4.1.24 5.26.71 1.17.46 2.27 1.25 3.29 2.35 1.02 1.11 1.98 2.72 2.89 4.85.92 2.12 1.84 5.01 2.78 8.67h6.24v-22.19h-68.98zm-84.73.01v3.12c1.95.55 3.34 1.05 4.14 1.5.81.45 1.46 1.04 1.95 1.78.49.75.84 1.79 1.05 3.13s.32 3.47.32 6.4v55.15c0 3.15-.14 5.48-.42 7.01-.27 1.53-.86 2.71-1.75 3.54s-2.66 1.59-5.29 2.27V323h26.84v-3.12c-1.95-.51-3.37-1.03-4.24-1.54s-1.53-1.14-1.98-1.91c-.44-.76-.76-1.8-.95-3.12s-.29-3.4-.29-6.25v-26.71h3.38c1.57 0 2.83.2 3.76.6.94.41 1.81 1.03 2.61 1.88.81.85 2.09 2.6 3.83 5.23l14.85 22.12c1.07 1.53 1.84 2.84 2.33 3.93.49 1.08.73 2 .73 2.77 0 .93-.36 1.64-1.08 2.1-.72.47-1.87.77-3.44.9V323h28.11v-3.13c-1.44-.21-2.8-.64-4.08-1.3-1.27-.66-2.61-1.7-4.01-3.12-1.41-1.43-3.34-3.92-5.81-7.49l-23.2-33.73 21.42-24.1c2.68-2.97 4.71-5.11 6.09-6.4 1.38-1.3 2.73-2.32 4.05-3.07 1.32-.74 2.66-1.26 4.02-1.56v-3.12h-27.8v3.12c1.7.17 3.04.65 4.02 1.44.97.78 1.46 2.03 1.46 3.73 0 1.14-.26 2.34-.76 3.57-.64 1.66-1.89 3.7-3.77 6.12-1.48 2.04-4.27 5.33-8.35 9.88-3.4 3.82-5.93 6.44-7.59 7.84s-3.15 2.36-4.49 2.87-2.82.76-4.43.76h-1.92.01l.06-23.4c0-2.93.12-5.1.35-6.5.24-1.4.6-2.45 1.09-3.16.49-.7 1.14-1.28 1.97-1.75.83-.46 2.18-.93 4.05-1.4v-3.12h-26.84zm168.68 0v3.13c1.95.55 3.34 1.05 4.14 1.49.81.45 1.46 1.05 1.95 1.79.48.74.84 1.78 1.05 3.12s.32 3.48.32 6.41v55.14c0 3.15-.14 5.48-.42 7.01-.27 1.53-.86 2.71-1.75 3.54s-2.66 1.59-5.29 2.27V323h26.9v-3.12c-1.95-.52-3.37-1.03-4.24-1.54-.87-.5-1.53-1.14-1.97-1.91-.45-.76-.77-1.8-.96-3.12s-.29-3.4-.29-6.24v-55.15c0-2.93.12-5.1.35-6.5.24-1.4.6-2.45 1.09-3.16.48-.7 1.15-1.28 1.97-1.75.83-.47 2.18-.93 4.05-1.4v-3.13h-26.9zm162.07 3.57c4.34 0 8.14 1.39 11.41 4.15 3.28 2.76 5.86 7.19 7.75 13.29s2.84 13.78 2.84 23.05c0 7.61-.81 14.26-2.43 19.95-1.61 5.7-4.03 10.02-7.26 12.98-3.24 2.95-7.17 4.43-11.8 4.43-7.31 0-12.87-3.4-16.67-10.2s-5.7-16.73-5.7-29.78v.01c0-5.74.41-10.95 1.24-15.63.83-4.67 2.14-8.65 3.95-11.95 1.81-3.29 4.08-5.83 6.82-7.62 2.75-1.79 6.03-2.68 9.85-2.68zm-382.05 7.9l12.112 41.12h-26.65l14.538-41.12zM500 360.88L0 360.9v9.09h500v-9.11z" clip-path="url(#b)" fill="#42629c"/></svg>