<svg xmlns="http://www.w3.org/2000/svg"><defs><font id="PTSans-Italic"><font-face font-family="PT Sans" units-per-em="2048" ascent="1782" descent="-511" bbox="-233 -471 2060 1782"/><glyph glyph-name="!" unicode="!" horiz-adv-x="649" d="M178 94q0 55 33 87t86 32q53 0 86-31.5T416 94q0-53-33-86t-86-33q-53 0-86 33t-33 86m117 268l41 361 149 711h164L500 723 389 362"/><glyph glyph-name="&quot;" unicode="&quot;" horiz-adv-x="624" d="M162 1038l84 396h151l-143-396m135 0l84 396h151l-143-396"/><glyph glyph-name="#" unicode="#" horiz-adv-x="1071" d="M131 461l29 131h164l63 268H233l29 131h156l78 324h139l-78-324h217l78 324h139l-78-324h158l-33-131H883l-64-268h150l-33-131H786l-79-342H567l80 342H430l-80-342H211l80 342m172 131h217l63 268H526"/><glyph glyph-name="$" unicode="$" horiz-adv-x="1108" d="M125 104l72 125q33-23 95-57.5T436 123l123 575q-45 33-89 70t-78 80q-34 43-55.5 97T315 1069q0 90 30 158.5t84 117q54 48.5 128 76t162 33.5l41 184h131l-39-182q88-8 150.5-30.5T1108 1380l-70-129q-35 16-90 34t-127 26L711 797q47-35 93-74t82-88q36-49 58.5-111.5T967 379q0-84-29-154.5t-84-123q-55-52.5-136-85T535-23q0-2-6.5-29.5T516-115q-8-39-18-90H367l39 187Q308-4 234 35t-109 69m358 990q0-78 41-132.5T625 860l96 453q-117-8-177.5-68.5T483 1094m52-975q123 8 193.5 74T799 365q0 92-45 154.5T645 635"/><glyph glyph-name="%" unicode="%" horiz-adv-x="1411" d="M123 1004q0 119 36 204.5t91 141q55 55.5 122.5 82T506 1458q117 0 177-63.5t60-180.5q0-111-30.5-194.5t-82.5-141q-52-57.5-123-87T358 762q-104 0-169.5 63.5T123 1004m57-949l1051 1405 102-80L282-25m-18 1045q0-66 30-102.5t89-36.5q43 0 83 22.5t70.5 64.5q30.5 42 48 102t17.5 136q0 72-31.5 102.5T481 1339q-43 0-83-25.5t-69.5-68.5q-29.5-43-47-101T264 1020m527-776q0 119 36 204.5t91 141q55 55.5 122.5 82T1174 698q117 0 177-63.5t60-180.5q0-111-30.5-194.5t-82.5-141q-52-57.5-123-87T1026 2Q922 2 856.5 65.5T791 244m141 16q0-66 30-102.5t89-36.5q43 0 83 22.5t70.5 64.5q30.5 42 48 102t17.5 136q0 72-31.5 102.5T1149 579q-43 0-83-25.5T996.5 485q-29.5-43-47-101T932 260"/><glyph glyph-name="&amp;" unicode="&amp;" horiz-adv-x="1389" d="M178 303q0 96 40 184t103.5 164Q385 727 465 787.5T625 889q-14 37-24.5 66.5t-18 59Q575 1044 572 1076t-3 73q0 55 20.5 110.5T653 1359q43 44 107.5 71.5T915 1458q72 0 116-19.5t68.5-48q24.5-28.5 33-63.5t8.5-65q0-117-89-216.5T809 862q20-59 48-121.5t60.5-124Q950 555 987 494.5t74-111.5q27 25 56.5 62.5t58 79.5q28.5 42 55 87t49.5 86l109-59q-18-35-51-83t-70-98q-37-50-74-96.5t-66-76.5q66-82 112-125t97-76L1219-31q-47 27-100.5 78T1014 166q-43-37-92.5-71T815 34.5Q758 8 691.5-8.5T549-25q-86 0-154.5 25t-117 69q-48.5 44-74 103T178 303m164 35q0-111 67.5-166T600 117q49 0 98.5 13t94.5 34.5q45 21.5 82.5 48T942 268q-43 59-83 129t-74.5 139.5Q750 606 722 670.5T676 784q-74-47-135.5-100T435 574.5q-44-56.5-68.5-116T342 338m381 815q0-31 2-55.5t7-46q5-21.5 12.5-44T764 954q117 70 175 133.5t58 141.5q0 41-23.5 69.5T893 1327q-47 0-79-14.5t-52.5-40q-20.5-25.5-29.5-57t-9-62.5"/><glyph glyph-name="'" unicode="'" horiz-adv-x="444" d="M209 1038l84 396h151l-143-396"/><glyph glyph-name="(" unicode="(" horiz-adv-x="764" d="M111 154q0 207 47 397t127 356q80 166 184 304.5T688 1458l76-72q-115-131-206-273T401.5 817.5Q336 664 303 501t-33-323q0-135 28-274.5T391-375l-94-71Q186-284 148.5-134T111 154"/><glyph glyph-name=")" unicode=")" horiz-adv-x="453" d="M-195-379Q-95-270-7.5-131t155 293.5Q215 317 254 482t39 319q0 201-25.5 338T178 1382l103 68q47-61 79.5-137t53-154q20.5-78 30-154.5T453 858q0-205-46.5-396.5t-125-358Q203-63 99.5-202.5T-117-451"/><glyph glyph-name="*" unicode="*" horiz-adv-x="698" d="M145 1133v114h103l129-24-92 90-56 94 101 57 51-86 37-114 43 116 49 82 98-53-51-88-96-98 139 24h98v-114h-92l-133 24 94-98 49-80-98-57-51 86-49 125-37-119-51-86-103 57 54 86 88 86-121-24"/><glyph glyph-name="+" unicode="+" horiz-adv-x="981" d="M113 618v148h360v371h148V766h360V618H621V248H473v370"/><glyph glyph-name="," unicode="," horiz-adv-x="276" d="M-43-225q78 29 125 90t57 121q-8-4-20-4-29 0-56.5 24.5T35 72q0 53 34.5 90T170 199q51 0 78.5-35T276 84q0-63-21.5-123.5t-60-112Q156-203 103.5-243T-10-305"/><glyph glyph-name="-" unicode="-" horiz-adv-x="633" d="M129 520l33 139h471l-35-139"/><glyph glyph-name="." unicode="." horiz-adv-x="309" d="M72 94q0 55 32.5 87t85.5 32q53 0 86-31.5T309 94q0-53-32.5-86T190-25q-53 0-85.5 33T72 94"/><glyph glyph-name="/" unicode="/" horiz-adv-x="993" d="M-190-229L877 1458l116-63L-74-295"/><glyph glyph-name="0" unicode="0" horiz-adv-x="1094" d="M117 449q0 215 46 400t127 320.5q81 135.5 193.5 212T731 1458q174 0 268.5-112.5T1094 987q0-184-40-364.5T937 298Q860 154 747.5 64.5T487-25q-104 0-174.5 40T198 121.5q-44 66.5-62.5 152T117 449m159 8q0-104 20.5-171T351 183q34-36 76-50t85-14q92 0 170 72.5T815 385q55 121 87 272.5T934 967q0 176-49 262t-178 86q-82 0-159-63.5T410.5 1073Q350 958 313 800.5T276 457"/><glyph glyph-name="1" unicode="1" horiz-adv-x="862" d="M129 0l31 152h272l213 991 45 121-100-97-246-161-57 104 506 348h69L584 152h266L819 0"/><glyph glyph-name="2" unicode="2" horiz-adv-x="1055" d="M66 0l12 59q51 51 132 128t172 170.5Q473 451 565 553t167 205.5q75 103.5 119 200t44 178.5q0 39-8 71.5t-26.5 56q-18.5 23.5-53.5 37t-90 13.5q-74 0-143.5-30T426 1204l-43 123q98 72 188.5 101.5T768 1458q143 0 215-81t72-208q0-106-59.5-231T845 687q-91-126-199.5-245.5T436 225l-112-88v-8l127 23h419L842 0"/><glyph glyph-name="3" unicode="3" horiz-adv-x="1085" d="M88 27l74 145q41-23 98-38t133-15q96 0 169 30.5t119 81q46 50.5 70.5 115T776 477q0 106-53 163.5T524 698H377l12 60 373 454 106 91-129-21H360l29 152h696l-12-60-411-495-80-60v-4l67 14q57 0 108.5-19t91.5-59q40-40 63.5-101.5T936 502q0-111-36-206T793.5 129Q723 57 616.5 16T369-25q-88 0-159 14.5T88 27"/><glyph glyph-name="4" unicode="4" horiz-adv-x="1081" d="M70 440l14 68 850 948h104L852 580h229l-28-140H821L729 0H580l92 440M283 565l137 15h282l97 450 55 168h-8l-96-139-355-391"/><glyph glyph-name="5" unicode="5" horiz-adv-x="1090" d="M96 23l70 141q43-18 91-31.5T381 119q92 0 164.5 29.5t124 82q51.5 52.5 78 122T772 506q2 117-62.5 174T498 737l-164-10 149 707h607l-33-152H596l-88-410h14.5q12.5 0 28.5 2 18 0 39 3 96 0 161.5-30T857 770q40-47 57.5-109.5T932 535q0-158-51.5-265.5t-134-173Q664 31 560.5 3T350-25q-82 0-144.5 12.5T96 23"/><glyph glyph-name="6" unicode="6" horiz-adv-x="1018" d="M129 418q0 205 78 387t203 320.5Q535 1264 692.5 1352t317.5 106l8-131q-113-18-223.5-74.5T591 1113q-93-83-165-186.5T317 711q20 27 55.5 52t79.5 45.5q44 20.5 94 32T649 852q147 0 243.5-89T989 500q0-115-33.5-210t-98-166Q793 53 701.5 14T498-25q-68 0-133.5 24T247 75q-52 52-85 136t-33 207m154 16q0-68 13-126t42-101q29-43 72-67.5T514 115q82 0 141.5 31.5t97.5 83Q791 281 808 346t21 133q-4 102-55 168t-168 66q-47 0-93-13.5t-88-36q-42-22.5-76-52T295 549q-4-27-8-58.5t-4-56.5"/><glyph glyph-name="7" unicode="7" horiz-adv-x="1171" d="M141 0l742 1200 106 100-119-18H328l30 152h813l-10-56L309 0"/><glyph glyph-name="8" unicode="8" horiz-adv-x="1073" d="M125 299q0 141 93 261t263 192q-33 27-62.5 54.5t-53 63Q342 905 327.5 952T313 1067q0 94 36 167t96.5 123q60.5 50 140.5 75.5t166 25.5q68 0 127-19.5t102-57.5q43-38 67.5-94t24.5-130q0-61-23.5-121.5t-65.5-114Q942 868 885.5 822T762 739q37-31 70.5-64.5t58-73.5q24.5-40 40-88T946 406q0-86-27.5-164t-86-137.5Q774 45 683 10T463-25q-84 0-146.5 26T211 70q-43 43-64.5 102T125 299m160 18q0-37 10-73.5t33.5-64q23.5-27.5 65.5-44T498 119q57 0 109 15.5t93 48q41 32.5 63.5 81T786 375q0 57-15 101t-39.5 80Q707 592 668 622.5T584 682q-135-63-217-155.5T285 317m188 758q0-98 49-158.5T657 803q51 33 98.5 72.5t81 81.5q33.5 42 55 85t21.5 86q0 96-47 141.5T733 1315q-53 0-100-15.5t-82-46q-35-30.5-56.5-76T473 1075"/><glyph glyph-name="9" unicode="9" horiz-adv-x="1077" d="M190 106q129 29 239 84.5t198 132q88 76.5 151.5 172T879 698q-66-57-144-86.5T539 582q-55 0-111.5 20.5t-104 65.5q-47.5 45-77 116.5T217 956q0 119 37 212.5t103.5 158q66.5 64.5 155.5 98t194 33.5q76 0 143.5-27.5t118.5-83q51-55.5 79.5-136.5t28.5-187q0-236-83-423T782 279.5Q653 145 497.5 67.5T199-25M377 975q0-74 22.5-123t54-78q31.5-29 69.5-41t75-12q94 0 179 37t130 90q2 12 5 34.5t6.5 45q3.5 22.5 4.5 44t1 32.5q0 143-61.5 229T680 1319q-59 0-113.5-20.5T471 1235q-41-43-67.5-107.5T377 975"/><glyph glyph-name=":" unicode=":" horiz-adv-x="592" d="M182 94q0 55 33 87t86 32q53 0 86-31.5T420 94q0-53-33-86t-86-33q-53 0-86 33t-33 86m172 826q0 55 33 86.5t86 31.5q53 0 86-31.5t33-86.5q0-53-33-86t-86-33q-53 0-86 33t-33 86"/><glyph glyph-name=";" unicode=";" horiz-adv-x="604" d="M111-225q78 29 125 90t57 121q-8-4-21-4-29 0-56.5 24.5T188 72q0 53 35 90t101 37q51 0 78.5-35T430 84q0-63-21.5-123.5t-60.5-112Q309-203 257-243t-114-62M367 920q0 55 32.5 86.5T485 1038q53 0 86-31.5t33-86.5q0-53-32.5-86T485 801q-53 0-85.5 33T367 920"/><glyph glyph-name="&lt;" unicode="&lt;" horiz-adv-x="975" d="M111 625v59l776 473 78-127-486-297-186-78 184-65 498-295-78-123"/><glyph glyph-name="=" unicode="=" horiz-adv-x="981" d="M113 449v147h868V449M113 788v148h868V788"/><glyph glyph-name="&gt;" unicode="&gt;" horiz-adv-x="979" d="M115 1032l78 125 786-452v-60L203 172l-78 125 485 297 187 78-185 65"/><glyph glyph-name="?" unicode="?" horiz-adv-x="907" d="M164 94q0 55 32.5 87t86.5 32q53 0 85.5-31.5T401 94q0-53-32.5-86T283-25q-53 0-86 33t-33 86m80 1262q41 25 78.5 43t80.5 31.5q43 13.5 93.5 20.5t115.5 7q152 0 223.5-69.5T907 1208q0-111-34.5-191.5t-88-144q-53.5-63.5-118-118T543.5 643Q485 586 440 519.5T381 362H252q10 102 51 179t95.5 139.5Q453 743 514 797.5t111.5 109q50.5 54.5 84 116.5t33.5 142q0 78-42 120t-146 42q-72 0-142.5-27.5T283 1237"/><glyph glyph-name="@" unicode="@" horiz-adv-x="2060" d="M238 483q0 223 76.5 403.5T522 1194q131 127 305 195.5t369 68.5q184 0 342-54t274.5-155.5q116.5-101.5 182-248T2060 668q0-131-45-251t-121.5-210q-76.5-90-179-144.5T1497 8q-86 0-136 37t-50 137q0 18 2 40t6 46h-8q-31-47-70-93t-87-83q-48-37-102.5-60.5T938 8q-49 0-93 21.5T768 92q-33 41-52.5 97.5T696 317q0 131 43 258t116 225.5q73 98.5 170 159t206 60.5q74 0 120-22.5t89-55.5l67 64h70l-104-588q-10-53-15.5-95t-5.5-75q0-51 17.5-76t62.5-25q70 0 137.5 37T1791 288.5q54 67.5 88 164t34 215.5q0 158-53.5 278.5T1710 1150q-96 83-229 126t-293 43q-168 0-313.5-61.5t-254-170Q512 979 449.5 827.5T387 498q0-182 56.5-325.5t161-242Q709-168 854-219t324-51q59 0 135 14t137 43l41-131q-90-39-169-52.5T1153-410q-190 0-356 57.5t-291 170Q381-70 309.5 97T238 483m616-139q0-80 33-138.5t119-58.5q41 0 85 29t87 75q43 46 82.5 103.5T1331 471l62 334q-35 41-71 58.5t-89 17.5q-80 0-149.5-49.5t-120-126q-50.5-76.5-80-173T854 344"/><glyph glyph-name="A" unicode="A" horiz-adv-x="1042" d="M-68 0l828 1456h76L1042 0H885l-58 397H328L106 0m302 545h403l-59 436-4 217h-3l-92-221"/><glyph glyph-name="B" unicode="B" horiz-adv-x="1149" d="M82 10l299 1411q78 12 175 20.5t210 8.5q76 0 145.5-19.5T1033 1372q52-39 84-100.5t32-143.5q0-80-24.5-145T1055 868.5q-45-49.5-105.5-79T819 750v-9q45-10 86-33.5t72-58.5q31-35 49-81t18-101q0-143-56-236.5T845 82Q758 27 650.5 5.5T438-16h-79q-46 0-117 4Q119 0 82 10m190 135q12-4 38-6t55.5-4q29.5-2 61-3t56.5-1q72 0 141.5 17.5t125 54.5q55.5 37 89 96T872 444q0 63-30.5 105.5t-79.5 67Q713 641 650.5 650T524 659H381m29 140h108q35 0 82 1t80 5q47 10 100.5 28.5T878 886q44 34 71.5 86t27.5 130q0 57-17.5 95t-51.5 61.5q-34 23.5-81 34T723 1303q-66 0-123-3.5t-86-9.5"/><glyph glyph-name="C" unicode="C" horiz-adv-x="1231" d="M145 561q0 231 68 400t178.5 280Q502 1352 640 1405t280 53q117 0 190.5-16.5T1231 1403l-74-150q-41 23-107.5 38.5T897 1307q-115 0-220.5-50.5t-185-144.5q-79.5-94-127-229T317 580q0-98 26-181.5T417 255q48-60 118.5-94T696 127q96 0 160 21.5T971 199l12-140Q913 12 835.5-6.5T655-25q-121 0-215 44T280.5 142Q215 221 180 327.5T145 561"/><glyph glyph-name="D" unicode="D" horiz-adv-x="1270" d="M82-2l305 1436q78 10 176.5 13t177.5 3q121 0 219.5-32t167-97.5Q1196 1255 1233 1155t37-235q0-90-16.5-196T1199 515q-38-103-101.5-199.5T940 144.5Q846 70 719 26T426-18q-31 0-81 1t-99 3Q103-6 82-2m194 143q8-2 33-3t52.5-2q27.5-1 53-2t36.5-1q178 0 300.5 74T951 393.5Q1028 506 1063 641t35 256q0 92-20.5 166t-64.5 126q-44 52-114 80.5T729 1298q-25 0-55.5-1t-59-2q-28.5-1-55.5-3t-41-4"/><glyph glyph-name="E" unicode="E" horiz-adv-x="1126" d="M82 0l305 1434h739l-30-152H516L416 813h530l-31-151H385L276 152h590L834 0H244"/><glyph glyph-name="F" unicode="F" horiz-adv-x="1126" d="M82 0l305 1434h739l-30-152H516L412 793h540l-30-152H381L246 0"/><glyph glyph-name="G" unicode="G" horiz-adv-x="1251" d="M145 557q0 252 74 424t189.5 277.5Q524 1364 663.5 1411t270.5 47q117 0 193.5-15.5T1251 1405l-71-150q-41 23-110 37.5T915 1307q-119 0-226-46.5T499 1122q-83-92-132.5-228T317 578q0-92 22.5-174t69-143.5Q455 199 523.5 163T686 127q66 0 113 13.5t94 37.5l84 400-229 40 20 97h377L1012 84Q867-25 651-25q-102 0-193 37T297 122q-70 73-111 181.5T145 557"/><glyph glyph-name="H" unicode="H" horiz-adv-x="1362" d="M82 0l303 1434h164L418 809h649l131 625h164L1059 0H895l139 657H383L246 0"/><glyph glyph-name="I" unicode="I" horiz-adv-x="594" d="M127 0l303 1434h164L291 0"/><glyph glyph-name="J" unicode="J" horiz-adv-x="618" d="M-125 12l62 146q39-27 110-27 43 0 71.5 15.5t49 45q20.5 29.5 34 70.5t23.5 94l230 1078h163L381 315q-18-82-44-144T271 66q-40-43-98-64.5T33-20q-16 0-38 2t-44.5 6Q-72-8-92.5-2T-125 12"/><glyph glyph-name="K" unicode="K" horiz-adv-x="1278" d="M82 0l303 1434h164L406 766l81 29 588 639h203L692 811l-94-63 80-82L1036 0H850L489 664H385L246 0"/><glyph glyph-name="L" unicode="L" horiz-adv-x="920" d="M82 0l303 1434h164L276 152h644L889 0H242"/><glyph glyph-name="M" unicode="M" horiz-adv-x="1597" d="M82 0l305 1434h113l266-734 31-159h2l94 164 559 729h145L1292 0h-164l205 963 64 215h-8l-115-197-492-647h-49L498 981l-31 197h-8l-17-213L238 0"/><glyph glyph-name="N" unicode="N" horiz-adv-x="1368" d="M82 0l309 1456h82l447-958 67-201h8l19 201 200 936h154L1059-23h-76L535 938l-70 211h-6l-25-211L236 0"/><glyph glyph-name="O" unicode="O" horiz-adv-x="1325" d="M145 524q0 188 51.5 358.5T343 1181q95 128 229.5 202.5T870 1458q98 0 182.5-29.5t144.5-94q60-64.5 94-167t34-249.5q0-193-51-364t-143.5-300Q1038 125 910 50T629-25q-242 0-363 140.5T145 524m172 2q0-193 80-298t236-105q115 0 210 63.5t164.5 172Q1077 467 1115 610.5t38 302.5q0 119-26.5 197t-70.5 122q-44 44-100.5 61.5T842 1311q-117 0-213.5-64.5t-165-173Q395 965 356 822.5T317 526"/><glyph glyph-name="P" unicode="P" horiz-adv-x="1159" d="M82 0l301 1419q78 18 164 24.5t170 6.5q94 0 175-20.5t140.5-65.5q59.5-45 93-115.5T1159 1079q0-156-56-260T955.5 652.5q-91.5-62.5-206-89T518 537h-31.5q-21.5 0-46 1t-47 3q-22.5 2-33.5 4L246 0m147 694q8-4 27.5-5t41-3q21.5-2 42-2H535q88 0 169.5 18.5t144 63.5Q911 811 949 882.5t38 180.5q0 74-24.5 121t-66.5 72.5q-42 25.5-97.5 36T682 1303q-47 0-91-3.5t-73-9.5"/><glyph glyph-name="Q" unicode="Q" horiz-adv-x="1329" d="M145 524q0 188 51.5 358.5T343 1181q95 128 229.5 202.5T870 1458q98 0 182.5-29.5t144.5-94q60-64.5 94-167t34-249.5q0-193-51-364t-143.5-300Q1038 125 910 50T629-25q-242 0-363 140.5T145 524m172 2q0-193 80-298t236-105q115 0 210 63.5t164.5 172Q1077 467 1115 610.5t38 302.5q0 119-26.5 197t-70.5 122q-44 44-100.5 61.5T842 1311q-117 0-213.5-64.5t-165-173Q395 965 356 822.5T317 526m43-776l31 150q55 12 109 12 82 0 157.5-21.5t154.5-46q79-24.5 163-46t180-21.5q84 0 174 20l-33-147q-49-14-95-19.5t-91-5.5q-98 0-186 21.5t-169 46q-81 24.5-156 46T453-240q-23 0-46.5-2t-46.5-8"/><glyph glyph-name="R" unicode="R" horiz-adv-x="1114" d="M82 0l301 1419q86 16 166 23.5t160 7.5q78 0 151.5-19.5t130-61.5q56.5-42 90-109.5T1114 1096q0-180-105.5-300T702 641l74-74L997 0H819L573 618l-192 31L246 0m160 762h141q74 0 144.5 14.5t126.5 51q56 36.5 90 100t34 159.5q0 37-14.5 75t-43 70q-28.5 32-76 51.5T698 1303q-49 0-98-3.5t-82-9.5"/><glyph glyph-name="S" unicode="S" horiz-adv-x="1149" d="M35 51l84 150q47-27 128-52.5T438 123q63 0 127 11t115 40q51 29 83 76t32 119q0 74-38 125t-95.5 93q-57.5 42-124 81t-124 90q-57.5 51-95 120.5T281 1051q0 109 39.5 186.5T429 1364q69 49 162 71.5t197 22.5q119 0 213.5-18.5T1149 1393l-82-146q-41 23-122 43.5T758 1311q-135 0-220-61.5T453 1071q0-76 37.5-128t95-94q57.5-42 124-81t124-89Q891 629 929 559t38-170q0-199-143.5-306.5T412-25Q275-25 179.5-1T35 51"/><glyph glyph-name="T" unicode="T" horiz-adv-x="1264" d="M225 1282l31 152h1008l-31-152H809L539 0H375l270 1282"/><glyph glyph-name="U" unicode="U" horiz-adv-x="1329" d="M178 338q0 84 23 190l190 906h164L365 526q-23-90-23-164 0-129 67.5-179T610 133q80 0 140.5 22.5T855 225q44 47 73.5 121T981 524l193 910h155l-201-957q-29-131-71.5-225t-107-153.5Q885 39 795 10.5T586-18Q473-18 395 7.5T269 79q-48 46-69.5 112.5T178 338"/><glyph glyph-name="V" unicode="V" horiz-adv-x="1333" d="M213 1434h168l137-981V233h4l92 224 543 977h176L510-23h-76"/><glyph glyph-name="W" unicode="W" horiz-adv-x="1817" d="M233 1434h168l37-957-18-237h2l80 241 481 953h88l76-957-19-237h2l82 241 437 953h168L1128-23h-90l-77 961 12 217h-8l-82-219L403-23h-90"/><glyph glyph-name="X" unicode="X" horiz-adv-x="1364" d="M-14 0l606 733-266 701h178l176-486 25-117 69 117 391 486h199L793 739 1083 0H905L709 514l-29 123-78-123L184 0"/><glyph glyph-name="Y" unicode="Y" horiz-adv-x="1280" d="M221 1434h178l183-627 6-125h2l61 129 445 623h184L657 571 537 0H373l121 569"/><glyph glyph-name="Z" unicode="Z" horiz-adv-x="1217" d="M-2 0l31 154 891 1046 100 82H270l31 152h916l-31-154L289 227l-96-75h751L913 0"/><glyph glyph-name="[" unicode="[" horiz-adv-x="791" d="M33-471l403 1905h355l-31-144H561L217-328h201l-31-143H186"/><glyph glyph-name="\" unicode="\" horiz-adv-x="920" d="M84 1401l141 57L920-227l-136-60"/><glyph glyph-name="]" unicode="]" horiz-adv-x="627" d="M-129-471l31 143H98l342 1618H242l30 144h355L223-471H70"/><glyph glyph-name="^" unicode="^" horiz-adv-x="995" d="M209 891l381 565h59l346-565H825l-161 276-48 142-63-144-191-274"/><glyph glyph-name="_" unicode="_" horiz-adv-x="745" d="M-90-281h835v-139H-90"/><glyph glyph-name="`" unicode="`" horiz-adv-x="608" d="M354 1432l8 43h187l59-306h-88"/><glyph glyph-name="a" unicode="a" horiz-adv-x="977" d="M92 293q0 131 34 266t104.5 243.5Q301 911 412.5 981t269.5 70q57 0 140-13.5t155-36.5L848 403q-16-76-22.5-153.5T819 104V45.5Q819 18 823-4H709l-29 178h-8q-25-35-61-70.5T532 39q-43-29-92-46.5T336-25Q92-25 92 293m164 0q0-78 30.5-132.5T383 106q49 0 94 24t85 58.5q40 34.5 71 74.5t49 75l115 553q-61 29-156 29-94 0-166-55.5T354 720q-49-89-73.5-201.5T256 293"/><glyph glyph-name="b" unicode="b" horiz-adv-x="1001" d="M88 63l291 1371h153L408 848h8q29 37 65.5 72.5T563 985q45 29 96.5 46.5T770 1049q121 0 176-85t55-214q0-184-51-326.5t-135-241Q731 84 623.5 33T403-18Q292-18 209.5 6.5T88 63m172 93q61-43 174-43 66 0 137.5 40t131 116.5Q762 346 800 457.5T838 713q0 104-32 154.5T721 918q-51 0-104.5-26T515 825q-48-41-88-91t-65-97"/><glyph glyph-name="c" unicode="c" horiz-adv-x="887" d="M102 303q0 174 47.5 312.5t126 234.5q78.5 96 181 147.5T668 1049q78 0 128-14.5t91-33.5l-58-127q-35 20-86 32t-110 12q-70 0-136.5-47.5T379 746.5q-51-76.5-82-176T266 367q0-133 55.5-197T471 106q61 0 129 28t109 56l39-102q-31-27-71-47.5T595 6q-42-14-83-22.5T434-25Q334-25 269.5 7T168 88q-37 49-51.5 106.5T102 303"/><glyph glyph-name="d" unicode="d" horiz-adv-x="1087" d="M102 322q0 121 35 248.5t102.5 232q67.5 104.5 169 172T643 1042q37 0 63.5-2t50-6q23.5-4 44-11t43.5-15l90 426h153L858 352q-16-80-24.5-149.5T825 74q0-23 1-41.5T829-4H727l-29 178h-8q-25-35-61.5-70.5T547 39q-45-29-95.5-46.5T348-25q-113 0-179.5 83T102 322m164-11q0-84 33-144.5T406 106q43 0 88 24t84.5 58.5Q618 223 650 263t50 75l115 532q-35 23-79 32t-115 9q-82 0-147.5-50t-112-134q-46.5-84-71-192.5T266 311"/><glyph glyph-name="e" unicode="e" horiz-adv-x="932" d="M102 332q0 168 47.5 301t124 225q76.5 92 174 141.5T647 1049q74 0 128-20.5t89-54.5q35-34 51.5-78t16.5-93q0-145-141.5-228T379 492q-25 0-51.5 1t-55.5 3q-8-39-12-74t-4-62q0-113 51-183.5T467 106q90 0 165 30t116 63l49-99Q725 39 627.5 7T432-25q-164 0-247 94.5T102 332m199 278q78 0 162 4t152.5 21.5Q684 653 729 691t45 106q0 20-7 41.5t-23.5 39q-16.5 17.5-46 29T623 918q-113 0-196-77T301 610"/><glyph glyph-name="f" unicode="f" horiz-adv-x="881" d="M-233-385l45 115q41-14 74.5-19.5T-31-295q78 0 117 75t66 236l143 877H137l27 131h149l27 137q14 76 34.5 131.5t54.5 92q34 36.5 84 55t122 18.5q68 0 131-13t115-36l-45-121q-100 39-191 39-76 0-110.5-52T481 1108l-14-84h207l-25-131H449L285-70q-12-76-34-140t-56.5-112.5q-34.5-48.5-88-76T-23-426q-61 0-113 9t-97 32"/><glyph glyph-name="g" unicode="g" horiz-adv-x="1006" d="M10-342l68 115q16-8 39.5-21.5t57.5-26q34-12.5 82-20.5t114-8q102 0 171.5 73.5T647 2l37 172h-8q-29-39-62.5-73.5T539 38q-41-28-89.5-44.5T344-23q-111 0-178.5 80T98 285q0 137 38 272t113 242.5q75 107.5 184.5 175T686 1042q111 0 186.5-18t133.5-45L788-47q-43-201-148-294t-280-93q-133 0-219 33.5T10-342m252 653q0-94 38-148t101-54q51 0 101.5 26.5T595 204q42 42 76 91t56 92l104 494q-33 18-79.5 24t-96.5 6q-84 0-155.5-49T376 730q-52-83-83-191.5T262 311"/><glyph glyph-name="h" unicode="h" horiz-adv-x="1010" d="M74 0l303 1434h153L403 848h9q27 33 64.5 67.5T563 980q49 30 106.5 49.5T795 1049q100 0 157.5-48.5T1010 825q0-86-27-207L852 0H698l123 584q12 61 20.5 109t8.5 85q0 76-31 108t-96 32q-53 0-108.5-28T508 819q-51-43-91-96t-61-102L227 0"/><glyph glyph-name="i" unicode="i" horiz-adv-x="584" d="M111 0l217 1024h153L264 0m96 1337q0 47 32 80t79 33q47 0 80-33t33-80q0-47-33-78.5t-80-31.5q-47 0-79 31.5t-32 78.5"/><glyph glyph-name="j" unicode="j" horiz-adv-x="559" d="M-197-422l31 133q61 0 101 17.5T3-217q28 37 47.5 92T86 6l217 1018h154L227-55q-41-190-127-280.5T-133-426q-16 0-31.5 1t-32.5 3m533 1759q0 47 31.5 80t78.5 33q47 0 80-33t33-80q0-47-32.5-78.5T446 1227q-47 0-78.5 31.5T336 1337"/><glyph glyph-name="k" unicode="k" horiz-adv-x="989" d="M74 0l303 1434h153L344 561l88 23 369 440h188L625 608l-97-67 78-80L836 0H666L434 461H324L227 0"/><glyph glyph-name="l" unicode="l" horiz-adv-x="522" d="M102 135q0 41 13 101l254 1198h153L272 244q-6-35-6-58 0-39 13.5-56t35.5-17q41 0 69 5t67 19V20q-18-10-43-17T357.5-8q-25.5-4-51-7T260-18q-72 0-115 32.5T102 135"/><glyph glyph-name="m" unicode="m" horiz-adv-x="1489" d="M74 0l217 1024h108l-12-176h8q33 33 71 68.5t84 64.5q46 29 100.5 48.5T770 1049q92 0 124-57.5T926 831q31 39 71.5 78t89 70q48.5 31 101.5 50.5t106 19.5q94 0 144.5-44t50.5-163q0-86-31-228L1329 0h-153l129 616q12 59 19 106.5t7 82.5q0 55-22.5 84t-75.5 29q-43 0-91-28t-93-69q-45-41-81-88t-57-88L778 0H625l123 580q16 72 24 127t8 96q0 55-20.5 85T690 918q-51 0-100-27t-92-67q-43-40-79-85t-57-82L227 0"/><glyph glyph-name="n" unicode="n" horiz-adv-x="995" d="M74 0l217 1024h106l-8-176h8q27 33 64 68.5t83 64.5q46 29 103.5 48.5T774 1049q102 0 161.5-49.5T995 827q0-61-18-147L831 0H678l137 647q8 37 14.5 73t6.5 64q0 59-28 96.5T705 918q-53 0-104.5-25T504 830.5q-45-37.5-81-84T362 655L227 0"/><glyph glyph-name="o" unicode="o" horiz-adv-x="954" d="M102 319q0 162 42 296.5T260 846q74 96 171 149.5t208 53.5q86 0 146.5-28t98.5-76q38-48 54-110.5T954 705q0-154-40-287T803.5 186.5Q733 88 639 31.5T434-25q-92 0-154.5 30T177 84q-40 49-57.5 110.5T102 319m164 37q0-121 45-185.5T455 106q68 0 128 48.5T689 285q46 82 74 187.5T791 692q0 104-38 165t-145 61q-68 0-129-46.5t-109-124q-48-77.5-76-179T266 356"/><glyph glyph-name="p" unicode="p" horiz-adv-x="987" d="M-10-410l305 1434h106l-10-176h8q29 37 65 72.5t79 64.5q43 29 94 46.5t111 17.5q49 0 92-15.5t75.5-51.5q32.5-36 52-95.5T987 741q0-180-49-322.5T809 178Q729 80 629.5 27.5T432-25q-72 0-126 13.5T233 16l-90-426m121 564q35-27 72-37.5t80-10.5q80 0 152.5 44.5t130 126Q756 358 789.5 473T823 729q0 82-33.5 135.5T690 918q-55 0-105-29t-92-71q-42-42-75-90t-53-89"/><glyph glyph-name="q" unicode="q" horiz-adv-x="991" d="M94 289q0 137 45 272t125 241.5q80 106.5 190.5 173T698 1042q43 0 87-6t83-15q39-9 72-20.5t51-23.5L696-410H543l125 582h-9q-25-33-56.5-67.5t-71-63.5q-39.5-29-89-47.5T338-25q-66 0-113 24t-75.5 65.5q-28.5 41.5-42 99T94 289m164 14q0-98 32-147.5t91-49.5q51 0 103.5 31t97.5 77q45 46 79.5 98.5T717 408l102 473q-33 18-79 24t-81 6q-80 0-152.5-51T379 724q-55-85-88-194.5T258 303"/><glyph glyph-name="r" unicode="r" horiz-adv-x="782" d="M74 0l217 1024h106V848h9q25 39 53 72.5t63 60.5q35 27 76 42t90 15q45 0 94-14l-41-135q-18 4-37.5 6t-35.5 2q-104 0-180-65.5T369 672L227 0"/><glyph glyph-name="s" unicode="s" horiz-adv-x="803" d="M6 41l57 129q41-27 108-45.5T309 106q100 0 160.5 44.5T530 289q0 53-26.5 90T436 445.5q-41 29.5-88 58T260 568q-41 36-67.5 84T166 772q0 57 27.5 107.5T269 968q48 38 115 59.5t144 21.5q109 0 168.5-14.5T803 993l-51-123q-82 47-224 48-86 0-142-36t-56-110q0-43 26.5-74.5T424 637q41-29 88-58.5t88-67.5q41-38 67.5-89T694 301q0-160-107.5-243T299-25q-92 0-169 18.5T6 41"/><glyph glyph-name="t" unicode="t" horiz-adv-x="719" d="M115 893l30 131h152l43 203 164 47-53-250h268l-31-131H422L293 274q-4-25-7-45t-3-36q0-49 22.5-68t67.5-19q49 0 90 12.5t82 37.5V31Q502 6 434.5-9.5T305-25q-186 0-186 170 0 35 10 86l139 662"/><glyph glyph-name="u" unicode="u" horiz-adv-x="1018" d="M123 197q0 72 20 161l140 666h153L293 342q-12-55-12-102 0-57 22.5-95.5T385 106q49 0 99.5 25t96.5 63.5q46 38.5 83.5 86T727 373l137 651h154L889 416q-8-35-16.5-85T857 225.5Q850 170 846 118t-4-91V0H721v195h-8q-31-41-71-80t-88-70Q506 14 450.5-5.5T334-25q-45 0-83 10.5t-66.5 36Q156 47 139.5 89T123 197"/><glyph glyph-name="v" unicode="v" horiz-adv-x="1026" d="M123 1024h164l106-600 19-195h4l88 199 346 596h176L387-23h-65"/><glyph glyph-name="w" unicode="w" horiz-adv-x="1518" d="M117 1024h155l64-596-4-199h8l82 203 338 592h114l97-598 8-197h2l80 201 301 594h156L967-23h-78L780 653l-2 168h-4l-76-170L309-23h-73"/><glyph glyph-name="x" unicode="x" horiz-adv-x="1047" d="M-45 0l461 524-219 500h174l121-283 36-116 84 116 248 283h187L612 532 856 0H682L543 311l-41 123-86-123L141 0"/><glyph glyph-name="y" unicode="y" horiz-adv-x="999" d="M-41-401L8-260q23-8 49-8 59 0 119 61.5T309 0L133 1024h164l100-664 11-196h10l78 198 340 662h163L516 111Q463 11 410.5-84.5T303-255q-55-75-114.5-120T66-420q-35 0-60.5 4T-41-401"/><glyph glyph-name="z" unicode="z" horiz-adv-x="903" d="M-4 0l27 141 575 654 113 88H182l31 141h690l-31-141-581-660-111-82h535L686 0"/><glyph glyph-name="{" unicode="{" horiz-adv-x="877" d="M154 412l30 139q152 0 191 174l106 496q20 96 78.5 155.5T711 1436h166l-31-144h-98q-53 0-83-27.5t-44-93.5L520 686q-18-90-69.5-137T344 492l-2-13q41-6 70.5-47T440 326q0-10-3-24.5t-12-65Q416 186 393.5 83T330-207q-2-12-4-22.5t-2-20.5q-2-78 86-78h96l-33-143H307q-72 0-110.5 40T160-317q0 29 8 59l102 487q8 37 9 66 4 66-30 91.5T154 412"/><glyph glyph-name="|" unicode="|" horiz-adv-x="377" d="M236-266v1700h141V-266"/><glyph glyph-name="}" unicode="}" horiz-adv-x="594" d="M-129-471l33 143H0q51 0 81 28t42 93l102 486q20 90 70.5 137T403 473l5 12q-45 6-75 47t-28 107q0 10 2 23.5t4 25.5l105 483q4 12 5 22.5t1 20.5q2 78-84 78h-94l28 144h166q72 0 112-39t36-115q0-29-8-59L475 735q-8-35-8-61-2-68 31.5-94.5T594 553l-33-139q-74 0-123-43t-69-131q0-2-5.5-24.5T351 158l-16-80-18-90q-23-109-51-244-20-96-79.5-155.5T35-471"/><glyph glyph-name="~" unicode="~" horiz-adv-x="1001" d="M94 739q88 68 160 94.5T385 860q57 0 106.5-17.5t94.5-39q45-21.5 88-38.5t90-17q39 0 80 16t88 57l69-125q-78-53-140-74.5T748 600q-55 0-101.5 17.5t-88.5 39q-42 21.5-84 39T383 713q-47 0-100.5-21.5T164 616"/><glyph glyph-name="©" unicode="©" horiz-adv-x="1599" d="M158 594q0 170 57 304t155.5 226.5Q469 1217 600 1266t279 49q147 0 278-49t229.5-141.5Q1485 1032 1542 898t57-304q0-170-57-304T1386.5 63.5Q1288-29 1157-78t-278-49q-164 0-297 49T354.5 63.5Q260 156 209 290t-51 304m143 0q0-141 45-251t123-183.5Q547 86 652.5 47T879 8q121 0 226 39t183 112.5q78 73.5 123 183.5t45 251q0 141-45 250.5T1288 1028q-78 74-183.5 113T879 1180q-121 0-226.5-39T469 1028q-78-74-123-183.5T301 594m234 0q0 186 93 287.5T874 983q37 0 67-4t55.5-11q25.5-7 50-17.5T1102 928l-53-125q-45 23-86 31t-70 8q-86 0-140.5-53.5T698 594q0-119 53.5-183.5T909 344q96 0 164 37l43-121q-47-27-105.5-41T874 205q-166 0-252.5 104.5T535 594"/><glyph glyph-name="«" unicode="«" horiz-adv-x="930" d="M78 530l409 471 93-96-254-297-117-76 72-75 137-291-111-88m127 452l406 467 90-94-252-295-115-76 70-75 137-289-111-86"/><glyph glyph-name="­" unicode="­" horiz-adv-x="633" d="M129 520l33 139h471l-35-139"/><glyph glyph-name="°" unicode="°" horiz-adv-x="866" d="M289 1169q0 63 22.5 116.5T373 1377q39 38 92 59.5t113 21.5q59 0 112-19.5t92-57.5q39-38 61.5-91t22.5-121q0-68-22.5-121T782 957.5q-39-37.5-92-57T578 881q-59 0-112.5 19.5t-92.5 57q-39 37.5-61.5 90.5T289 1169m131 0q0-78 47-121.5t111-43.5q63 0 110 44t47 121q0 78-47 122t-110 44q-63 0-110.5-44T420 1169"/><glyph glyph-name="´" unicode="´" horiz-adv-x="639" d="M287 1169l180 306h172l-10-43-252-263"/><glyph glyph-name="·" unicode="·" horiz-adv-x="438" d="M201 606q0 55 32.5 87t85.5 32q53 0 86-31.5t33-87.5q0-53-32.5-86T319 487q-53 0-85.5 33T201 606"/><glyph glyph-name="»" unicode="»" horiz-adv-x="930" d="M78 174l252 295 114 78-71 88-140 289 117 73 223-448L168 82m260 90l254 297 115 78-72 90-141 291 118 73 228-452L520 78"/><glyph glyph-name="Ё" unicode="Ё" horiz-adv-x="1126" d="M82 0l305 1434h739l-30-152H516L416 813h530l-31-151H385L276 152h590L834 0H244m247 1626q0 41 29 68.5t76 27.5q47 0 74.5-27.5T698 1626q0-41-27.5-67.5T596 1532q-47 0-76 26.5t-29 67.5m375 0q0 41 27.5 68.5T968 1722q47 0 76-27.5t29-68.5q0-41-28.5-67.5T968 1532q-47 0-74.5 26.5T866 1626"/><glyph glyph-name="А" unicode="А" horiz-adv-x="1042" d="M-68 0l828 1456h76L1042 0H885l-58 397H328L106 0m302 545h403l-59 436-4 217h-3l-92-221"/><glyph glyph-name="Б" unicode="Б" horiz-adv-x="1120" d="M82 14l301 1420h737l-30-152H512l-90-430q35 6 84 12t96 6q203 0 310.5-93T1020 518q0-150-54.5-252T824 101.5q-87-62.5-196.5-90T408-16q-33 0-74 1t-94 5q-41 4-82 9T82 14m190 129q25-8 81.5-10t105.5-2q70 0 139.5 20.5T723 215q55 43 90 111.5T848 492q0 125-79 178t-214 53q-16 0-41-2t-48.5-4q-23.5-2-44-5t-30.5-5"/><glyph glyph-name="В" unicode="В" horiz-adv-x="1149" d="M82 10l299 1411q78 12 175 20.5t210 8.5q76 0 145.5-19.5T1033 1372q52-39 84-100.5t32-143.5q0-80-24.5-145T1055 868.5q-45-49.5-105.5-79T819 750v-9q45-10 86-33.5t72-58.5q31-35 49-81t18-101q0-143-56-236.5T845 82Q758 27 650.5 5.5T438-16h-79q-46 0-117 4Q119 0 82 10m190 135q12-4 38-6t55.5-4q29.5-2 61-3t56.5-1q72 0 141.5 17.5t125 54.5q55.5 37 89 96T872 444q0 63-30.5 105.5t-79.5 67Q713 641 650.5 650T524 659H381m29 140h108q35 0 82 1t80 5q47 10 100.5 28.5T878 886q44 34 71.5 86t27.5 130q0 57-17.5 95t-51.5 61.5q-34 23.5-81 34T723 1303q-66 0-123-3.5t-86-9.5"/><glyph glyph-name="Г" unicode="Г" horiz-adv-x="1114" d="M82 0l305 1434h727l-31-152H516L246 0"/><glyph glyph-name="Д" unicode="Д" horiz-adv-x="1288" d="M-129-264l86 416H94q20 23 73.5 102.5t121 232Q356 639 429 872.5T561 1434h727L1016 152h180l-88-416H995l27 264H68l-86-264m297 416h575l240 1130H684Q584 833 478.5 559T279 152"/><glyph glyph-name="Е" unicode="Е" horiz-adv-x="1126" d="M82 0l305 1434h739l-30-152H516L416 813h530l-31-151H385L276 152h590L834 0H244"/><glyph glyph-name="Ж" unicode="Ж" horiz-adv-x="1726" d="M-90 0l563 641 109 78-70 72-272 643h180l258-643h98l137 643h154L926 766l75 29 527 639h198l-524-623-96-66 82-83L1483 0h-180l-297 664H903L764 0H610l146 688-76-26L115 0"/><glyph glyph-name="З" unicode="З" horiz-adv-x="1067" d="M12 29l74 149q41-23 117-39t190-16q70 0 141.5 17.5t129 56.5Q721 236 757 298t36 153q0 61-21.5 102T713 620.5q-37 26.5-84 39T532 676q-23 2-45 2H336l31 141h28q37 0 91.5 3t86.5 7q55 6 112.5 25.5t104 54.5q46.5 35 76 86.5T895 1116q0 92-65.5 143.5T651 1311q-104 0-173.5-17.5T350 1255l-16 134q47 23 142 46t220 23q78 0 145.5-19.5t118-56q50.5-36.5 79-92T1067 1161q0-88-27.5-155.5T966 889q-46-49-107.5-79T729 770v-8q43-10 85-31.5t76-58.5q34-37 54.5-91.5T965 451q0-135-55.5-226.5T766 78Q678 23 570.5-1T356-25Q227-25 144-9.5T12 29"/><glyph glyph-name="И" unicode="И" horiz-adv-x="1380" d="M82 0l305 1434h164L344 459l-51-156h8l121 168 854 963h104L1077 0H913l203 958 49 166h-6l-121-172L186 0"/><glyph glyph-name="Й" unicode="Й" horiz-adv-x="1380" d="M82 0l305 1434h164L344 459l-51-156h8l121 168 854 963h104L1077 0H913l203 958 49 166h-6l-121-172L186 0m459 1741l139 41q0-76 38-117t106-41q86 0 141 42t78 114l149-35q-37-111-133-175.5T919 1505q-139 0-204.5 68.5T645 1741"/><glyph glyph-name="К" unicode="К" horiz-adv-x="1278" d="M82 0l303 1434h164L406 766l81 29 588 639h203L692 811l-94-63 80-82L1036 0H850L489 664H385L246 0"/><glyph glyph-name="Л" unicode="Л" horiz-adv-x="1270" d="M-86 10l55 148q20-6 45-6 39 0 79 24.5t81 85.5q37 55 80 147.5T344 642q47 140 98.5 334.5T549 1434h721L967 0H803l272 1282H674q-94-408-181-679T309 178Q246 78 177.5 34T33-10q-35 0-65.5 5T-86 10"/><glyph glyph-name="М" unicode="М" horiz-adv-x="1597" d="M82 0l305 1434h113l266-734 31-159h2l94 164 559 729h145L1292 0h-164l205 963 64 215h-8l-115-197-492-647h-49L498 981l-31 197h-8l-17-213L238 0"/><glyph glyph-name="Н" unicode="Н" horiz-adv-x="1362" d="M82 0l303 1434h164L418 809h649l131 625h164L1059 0H895l139 657H383L246 0"/><glyph glyph-name="О" unicode="О" horiz-adv-x="1325" d="M145 524q0 188 51.5 358.5T343 1181q95 128 229.5 202.5T870 1458q98 0 182.5-29.5t144.5-94q60-64.5 94-167t34-249.5q0-193-51-364t-143.5-300Q1038 125 910 50T629-25q-242 0-363 140.5T145 524m172 2q0-193 80-298t236-105q115 0 210 63.5t164.5 172Q1077 467 1115 610.5t38 302.5q0 119-26.5 197t-70.5 122q-44 44-100.5 61.5T842 1311q-117 0-213.5-64.5t-165-173Q395 965 356 822.5T317 526"/><glyph glyph-name="П" unicode="П" horiz-adv-x="1337" d="M82 0l305 1434h950L1034 0H870l273 1282H516L246 0"/><glyph glyph-name="Р" unicode="Р" horiz-adv-x="1159" d="M82 0l301 1419q78 18 164 24.5t170 6.5q94 0 175-20.5t140.5-65.5q59.5-45 93-115.5T1159 1079q0-156-56-260T955.5 652.5q-91.5-62.5-206-89T518 537h-31.5q-21.5 0-46 1t-47 3q-22.5 2-33.5 4L246 0m147 694q8-4 27.5-5t41-3q21.5-2 42-2H535q88 0 169.5 18.5t144 63.5Q911 811 949 882.5t38 180.5q0 74-24.5 121t-66.5 72.5q-42 25.5-97.5 36T682 1303q-47 0-91-3.5t-73-9.5"/><glyph glyph-name="С" unicode="С" horiz-adv-x="1231" d="M145 561q0 231 68 400t178.5 280Q502 1352 640 1405t280 53q117 0 190.5-16.5T1231 1403l-74-150q-41 23-107.5 38.5T897 1307q-115 0-220.5-50.5t-185-144.5q-79.5-94-127-229T317 580q0-98 26-181.5T417 255q48-60 118.5-94T696 127q96 0 160 21.5T971 199l12-140Q913 12 835.5-6.5T655-25q-121 0-215 44T280.5 142Q215 221 180 327.5T145 561"/><glyph glyph-name="Т" unicode="Т" horiz-adv-x="1264" d="M225 1282l31 152h1008l-31-152H809L539 0H375l270 1282"/><glyph glyph-name="У" unicode="У" horiz-adv-x="1300" d="M111 35l79 141q33-20 58.5-27.5T303 141q53 0 104.5 67.5T518 381L240 1434h174l188-756 12-182h9l77 188 420 750h180L758 502q-84-145-145.5-243.5t-114-158Q446 41 396 15.5T283-10q-66 0-105 13t-67 32"/><glyph glyph-name="Ф" unicode="Ф" horiz-adv-x="1536" d="M129 575q0 168 44 303.5T299 1109q82 95 196.5 146.5T750 1307q27 0 65.5-2t58.5-7l39 177h158l-39-183q39 10 78 12.5t70 2.5q74 0 139-23.5t113.5-73q48.5-49.5 76-128T1536 893q0-180-49-318.5T1355 342q-83-94-193.5-143T928 150q-27 0-70 3t-65 11L748-41H590l43 205q-35-8-69-11t-81-3q-55 0-117.5 19T251 237.5Q199 287 164 369t-35 206m172 11q0-84 20.5-140.5T376 354q34-35 76-49t85-14q20 0 60 1t69 11l180 854q-23 4-55.5 6t-61.5 2q-96 0-175-43t-135.5-119.5q-56.5-76.5-87-183T301 586m516-289q20-4 52-5t61-1q106 0 187 48t136.5 129q55.5 81 83 185.5T1364 870q0 160-63.5 227.5T1133 1165q-27 0-66-2t-68-12"/><glyph glyph-name="Х" unicode="Х" horiz-adv-x="1364" d="M-14 0l606 733-266 701h178l176-486 25-117 69 117 391 486h199L793 739 1083 0H905L709 514l-29 123-78-123L184 0"/><glyph glyph-name="Ц" unicode="Ц" horiz-adv-x="1323" d="M82 0l305 1434h164L279 152h610l270 1282h164L1053 152h178l-88-416h-111l25 264H250"/><glyph glyph-name="Ч" unicode="Ч" horiz-adv-x="1233" d="M246 823q0 61 14 127l102 484h164l-98-461q-6-29-10-56.5t-4-50.5q0-188 192-188 92 0 177 25.5T928 772l141 662h164L930 0H766l131 618q-59-35-142-63.5T555 526q-61 0-117.5 15.5T338 593q-43 36-67.5 92T246 823"/><glyph glyph-name="Ш" unicode="Ш" horiz-adv-x="1763" d="M82 0l305 1434h164L279 152h444l270 1282h164L885 152h444l270 1282h164L1458 0H246"/><glyph glyph-name="Щ" unicode="Щ" horiz-adv-x="1763" d="M82 0l305 1434h164L279 152h444l270 1282h164L885 152h444l270 1282h164L1491 152h180l-88-416h-113l27 264H246"/><glyph glyph-name="Ъ" unicode="Ъ" horiz-adv-x="1190" d="M188 1282l31 152h473L573 877q12 2 35 5t49.5 6q26.5 3 54 4t50.5 1q84 0 161.5-19.5t137-63.5q59.5-44 94.5-113.5t35-170.5q0-139-48-241.5t-134-169q-86-66.5-204-99T547-16q-27 0-67 1t-93 5q-41 2-82 8t-76 16l269 1268M418 143q27-6 73-9t95-3q92 0 171 23.5T894 225q58 47 91 118t33 163q0 68-24.5 114T928 693.5Q887 721 832.5 733T719 745q-18 0-44-2t-52.5-4q-26.5-2-49-6t-32.5-6"/><glyph glyph-name="Ы" unicode="Ы" horiz-adv-x="1554" d="M82 14l301 1420h164L430 877q33 6 79 11t93 5q84 0 156.5-22.5t126-67.5q53.5-45 83-111.5T997 537q0-147-52-253T806 111.5q-87-66.5-200.5-97T371-16q-49 0-129 4-92 8-160 26m192 129q29-6 62-9t80-3q80 0 154.5 24.5t131 71.5q56.5 47 90 119T825 514q0 119-71.5 175T543 745q-35 0-80-6t-68-12M1087 0l304 1434h163L1251 0"/><glyph glyph-name="Ь" unicode="Ь" horiz-adv-x="1044" d="M82 14l301 1420h164L430 877q10 2 31.5 5t47.5 6q26 3 54.5 4t50.5 1q86 0 164-20.5T915.5 808q59.5-44 94-113.5T1044 524q0-139-49-241.5t-136-169q-87-66.5-203.5-98T403-16q-27 0-66.5 1T242-10q-39 2-81 8T82 14m192 129q25-6 72-9t96-3q84 0 162 21.5T741.5 220q59.5 46 95 117T872 508q0 123-82.5 180T571 745q-16 0-41.5-2t-52-4q-26.5-2-49-6t-33.5-6"/><glyph glyph-name="Э" unicode="Э" horiz-adv-x="1130" d="M23 27l75 149q41-23 112-38t148-15q104 0 199.5 35T732 261.5Q811 330 865.5 429T942 657H365l28 146h570q2 23 3 47t1 47q0 195-88 304.5T598 1311q-92 0-161.5-20.5T315 1243l-12 135q70 37 151 58.5t183 21.5q147 0 242.5-49t150.5-126q55-77 77.5-172t22.5-187q0-201-48-374T936 250Q838 123 686.5 49T326-25q-94 0-174 14.5T23 27"/><glyph glyph-name="Ю" unicode="Ю" horiz-adv-x="1755" d="M82 0l303 1434h164L418 809h239q96 334 268.5 491.5T1315 1458q203 0 321.5-117.5T1755 983q0-203-48-386t-140-321.5Q1475 137 1341.5 56T1038-25q-109 0-186.5 38T724 118.5q-50 67.5-73.5 161T627 483q0 84 12 174H383L246 0m549 477q0-72 14-136.5T857 228q34-48 88-76.5t136-28.5q109 0 201 68.5t158.5 183Q1507 489 1545 642t38 321q0 158-70.5 253t-203.5 95q-113 0-207-67.5T939 1062q-69-114-106.5-265.5T795 477"/><glyph glyph-name="Я" unicode="Я" horiz-adv-x="1165" d="M-27 0l410 514 137 90q-39 12-83 39t-81 69q-37 42-61.5 102T270 958q0 141 54.5 235.5t140.5 152q86 57.5 193.5 81T872 1450q66 0 146-6t147-25L866 0H702l132 623-199-43L170 0m272 971q0-117 73-182.5T721 723h133l121 567q-25 6-58.5 9.5T834 1303q-72 0-141.5-16.5t-125-54.5q-55.5-38-90.5-102.5T442 971"/><glyph glyph-name="а" unicode="а" horiz-adv-x="977" d="M92 293q0 131 34 266t104.5 243.5Q301 911 412.5 981t269.5 70q57 0 140-13.5t155-36.5L848 403q-16-76-22.5-153.5T819 104V45.5Q819 18 823-4H709l-29 178h-8q-25-35-61-70.5T532 39q-43-29-92-46.5T336-25Q92-25 92 293m164 0q0-78 30.5-132.5T383 106q49 0 94 24t85 58.5q40 34.5 71 74.5t49 75l115 553q-61 29-156 29-94 0-166-55.5T354 720q-49-89-73.5-201.5T256 293"/><glyph glyph-name="б" unicode="б" horiz-adv-x="1110" d="M123 350q0 217 42 403.5t114.5 327Q352 1221 450.5 1306T664 1409q86 12 157.5 19.5t129 13.5q57.5 6 97 15t62.5 28l-6-144q-33-25-109.5-42T764 1270q-70-6-134.5-24.5t-124-70Q446 1124 395 1030t-94-248h14q86 127 181.5 182.5T715 1020q141 0 202.5-80T979 717q0-170-44-307.5T817 176Q743 80 648 27.5T449-25q-90 0-153 31T195.5 88q-37.5 51-55 118.5T123 350m164 23q0-53 6-100.5t26.5-82q20.5-34.5 57.5-54t98-19.5q61 0 121.5 40t109 113.5q48.5 73.5 79 178T815 682q0 39-7 74t-25.5 62.5Q764 846 732 862.5T649 879q-68 0-133-40T399.5 729q-51.5-70-82-161T287 373"/><glyph glyph-name="в" unicode="в" horiz-adv-x="893" d="M96 285q0 31 2 57.5t7.5 59q5.5 32.5 13.5 77T141 584q51 229 176 341.5T627 1038q78 0 129-14t81.5-40q30.5-26 43-60.5T893 846q0-109-70.5-188.5T635 545l-4-8q98-4 150.5-49.5T834 367q0-94-38-165T694.5 83Q631 35 549 10.5T379-14q-59 0-111.5 14T177 48q-38 34-59.5 92.5T96 285m148 8q0-176 164-176 53 0 101 14t85 44q37 30 58.5 73T674 350q0 53-44 86t-149 33h-15q-9 0-30.5-2t-62.5-4q-41-2-109-8-10-55-15-93t-5-69m45 280l184 19q31 2 76 16.5t87 40q42 25.5 70.5 62.5t28.5 86q0 55-28.5 82.5T596 907q-117 0-188.5-73.5T301 623"/><glyph glyph-name="г" unicode="г" horiz-adv-x="805" d="M55 246q0 98 43 159.5T206.5 508Q272 549 348 575.5t141.5 54Q555 657 598 693t43 95q0 66-36 92.5T481 907q-78 0-134-17.5T246 850l-31 121q66 35 143.5 51t163.5 16q82 0 136.5-18.5t87-49q32.5-30.5 46-71.5t13.5-86q0-98-43-158.5T653.5 556Q588 518 512 493.5t-141.5-53Q305 412 262 372t-43-108q0-72 46-115t122-43q76 0 149.5 27T651 188l41-100Q629 35 540 5T377-25Q277-25 214.5 3T116 72q-36 41-48.5 88T55 246"/><glyph glyph-name="д" unicode="д" horiz-adv-x="971" d="M104 360q0 129 36 250t103.5 215.5Q311 920 407.5 977t217.5 57q70 0 109.5-13t68.5-34h10q-10 156-113.5 248T418 1327l28 131q150 0 250.5-45t162-123q61.5-78 87-182T971 885q0-215-42-384T813 215Q739 98 640 36.5T426-25Q260-25 182 77.5T104 360m164-16q0-100 41-169t133-69q100 0 170 72t113 179.5Q768 465 787.5 591T807 825q-35 41-79 59.5T612 903q-66 0-127-41T376 747.5q-48-73.5-78-177T268 344"/><glyph glyph-name="е" unicode="е" horiz-adv-x="932" d="M102 332q0 168 47.5 301t124 225q76.5 92 174 141.5T647 1049q74 0 128-20.5t89-54.5q35-34 51.5-78t16.5-93q0-145-141.5-228T379 492q-25 0-51.5 1t-55.5 3q-8-39-12-74t-4-62q0-113 51-183.5T467 106q90 0 165 30t116 63l49-99Q725 39 627.5 7T432-25q-164 0-247 94.5T102 332m199 278q78 0 162 4t152.5 21.5Q684 653 729 691t45 106q0 20-7 41.5t-23.5 39q-16.5 17.5-46 29T623 918q-113 0-196-77T301 610"/><glyph glyph-name="ж" unicode="ж" horiz-adv-x="1473" d="M-29 4l41 139q25-6 49-6 82 0 154 87t113 294q10 59 16 105.5t6 85.5q0 109-37 148.5T219 897q-10 0-20.5-1t-20.5-3l-18 127q29 4 53.5 7t46.5 3q115 0 172-66.5T489 750q0-37-4-79t-12-89h201l94 442h154l-97-442h187q35 131 76.5 217t90 138q48.5 52 100.5 73.5t105 21.5q45 0 89-12l-35-131q-10 2-20.5 3t-20.5 1q-37 0-71-16.5t-63.5-56.5q-29.5-40-56-105.5T1155 551q-12-51-19.5-100.5T1128 354q0-98 32-166.5t102-68.5q23 0 53 10l22-125q-33-10-61.5-13t-54.5-3q-70 0-116 27.5T1031.5 89q-27.5 46-39 106.5T981 322q0 35 3 69.5t7 69.5H801L705 0H551l98 461H459q-37-137-81-227.5T285 89q-49-54-103.5-76.5T72-10q-25 0-50.5 4T-29 4"/><glyph glyph-name="з" unicode="з" horiz-adv-x="799" d="M-8 55l65 123q41-27 102.5-46T295 113q119 0 199.5 60T575 338q0 61-49 91t-168 30H246l26 127h136q35 0 74.5 16t73.5 45q34 29 56.5 65t22.5 76q0 66-39 92.5T453 907q-74 0-128.5-16.5T223 852l-33 121q66 35 145 50t181 15q152 0 217.5-54T799 827q0-53-18.5-98T730 648q-32-36-72-60.5T575 549v-8q88-16 124-66.5T735 358q0-90-36.5-159.5T599.5 81Q537 33 452 7.5T268-18q-82 0-157.5 20.5T-8 55"/><glyph glyph-name="и" unicode="и" horiz-adv-x="1018" d="M123 197q0 72 20 161l140 666h153L293 342q-12-55-12-102 0-57 22.5-95.5T385 106q49 0 99.5 25t96.5 63.5q46 38.5 83.5 86T727 373l137 651h154L889 416q-8-35-16.5-85T857 225.5Q850 170 846 118t-4-91V0H721v195h-8q-31-41-71-80t-88-70Q506 14 450.5-5.5T334-25q-45 0-83 10.5t-66.5 36Q156 47 139.5 89T123 197"/><glyph glyph-name="й" unicode="й" horiz-adv-x="1018" d="M123 197q0 72 20 161l140 666h153L293 342q-12-55-12-102 0-57 22.5-95.5T385 106q49 0 99.5 25t96.5 63.5q46 38.5 83.5 86T727 373l137 651h154L889 416q-8-35-16.5-85T857 225.5Q850 170 846 118t-4-91V0H721v195h-8q-31-41-71-80t-88-70Q506 14 450.5-5.5T334-25q-45 0-83 10.5t-66.5 36Q156 47 139.5 89T123 197m289 1173v19l141 49q0-96 40-132t102-36q63 0 119.5 39t90.5 127l111-39q-41-119-138-182.5T666 1151q-51 0-97.5 12.5t-81 39q-34.5 26.5-55 68.5t-20.5 99"/><glyph glyph-name="к" unicode="к" horiz-adv-x="993" d="M72 0l217 1024h153l-98-463 84 27 381 436h184L618 612l-94-67 82-82L836 0H664L432 461H322L225 0"/><glyph glyph-name="л" unicode="л" horiz-adv-x="975" d="M-68 10l48 131q25-6 47-6 45 0 85 33t83 129q43 96 93 270t118 457h569L758 0H604l191 893H520q-53-219-100-387T318.5 224.5Q264 111 198.5 51.5T41-8Q6-8-21.5-4T-68 10"/><glyph glyph-name="м" unicode="м" horiz-adv-x="1243" d="M72 0l217 1024h141l174-459 31-119h4l84 123 352 455h168L1026 0H874l130 608 51 195h-8L942 645 623 244h-54L410 645l-31 158h-8l-27-193L215 0"/><glyph glyph-name="н" unicode="н" horiz-adv-x="1038" d="M72 0l217 1024h153l-90-426h443l90 426h153L821 0H668l96 451H322L225 0"/><glyph glyph-name="о" unicode="о" horiz-adv-x="954" d="M102 319q0 162 42 296.5T260 846q74 96 171 149.5t208 53.5q86 0 146.5-28t98.5-76q38-48 54-110.5T954 705q0-154-40-287T803.5 186.5Q733 88 639 31.5T434-25q-92 0-154.5 30T177 84q-40 49-57.5 110.5T102 319m164 37q0-121 45-185.5T455 106q68 0 128 48.5T689 285q46 82 74 187.5T791 692q0 104-38 165t-145 61q-68 0-129-46.5t-109-124q-48-77.5-76-179T266 356"/><glyph glyph-name="п" unicode="п" horiz-adv-x="975" d="M54 0l217 1024h106l-8-176h8q27 33 64 68.5t83 64.5q46 29 103.5 48.5T754 1049q102 0 161.5-49.5T975 827q0-61-18-147L811 0H658l137 647q8 37 14.5 73t6.5 64q0 59-28 96.5T685 918q-53 0-104.5-25T484 830.5q-45-37.5-81-84T342 655L207 0"/><glyph glyph-name="р" unicode="р" horiz-adv-x="987" d="M-10-410l305 1434h106l-10-176h8q29 37 65 72.5t79 64.5q43 29 94 46.5t111 17.5q49 0 92-15.5t75.5-51.5q32.5-36 52-95.5T987 741q0-180-49-322.5T809 178Q729 80 629.5 27.5T432-25q-72 0-126 13.5T233 16l-90-426m121 564q35-27 72-37.5t80-10.5q80 0 152.5 44.5t130 126Q756 358 789.5 473T823 729q0 82-33.5 135.5T690 918q-55 0-105-29t-92-71q-42-42-75-90t-53-89"/><glyph glyph-name="с" unicode="с" horiz-adv-x="887" d="M102 303q0 174 47.5 312.5t126 234.5q78.5 96 181 147.5T668 1049q78 0 128-14.5t91-33.5l-58-127q-35 20-86 32t-110 12q-70 0-136.5-47.5T379 746.5q-51-76.5-82-176T266 367q0-133 55.5-197T471 106q61 0 129 28t109 56l39-102q-31-27-71-47.5T595 6q-42-14-83-22.5T434-25Q334-25 269.5 7T168 88q-37 49-51.5 106.5T102 303"/><glyph glyph-name="т" unicode="т" horiz-adv-x="1489" d="M74 0l217 1024h108l-12-176h8q33 33 71 68.5t84 64.5q46 29 100.5 48.5T770 1049q92 0 124-57.5T926 831q31 39 71.5 78t89 70q48.5 31 101.5 50.5t106 19.5q94 0 144.5-44t50.5-163q0-86-31-228L1329 0h-153l129 616q12 59 19 106.5t7 82.5q0 55-22.5 84t-75.5 29q-43 0-91-28t-93-69q-45-41-81-88t-57-88L778 0H625l123 580q16 72 24 127t8 96q0 55-20.5 85T690 918q-51 0-100-27t-92-67q-43-40-79-85t-57-82L227 0"/><glyph glyph-name="у" unicode="у" horiz-adv-x="999" d="M-41-401L8-260q23-8 49-8 59 0 119 61.5T309 0L133 1024h164l100-664 11-196h10l78 198 340 662h163L516 111Q463 11 410.5-84.5T303-255q-55-75-114.5-120T66-420q-35 0-60.5 4T-41-401"/><glyph glyph-name="ф" unicode="ф" horiz-adv-x="1339" d="M90 303q0 174 45 311.5T258 847q78 95 180.5 144t218.5 49q53 0 93-8l84 402h147l-86-404q37 6 64.5 8t54.5 2q160 0 242.5-89t82.5-232q0-193-50-333t-130-231.5Q1079 63 979 19T778-25q-18 0-52 3.5T674-10l-84-400H442L528-8q-29-8-51-12.5T426-25q-168 0-252 91.5T90 303m164 33q0-102 51.5-166T457 106q23 0 47 4.5t53 8.5l166 780q-23 4-43.5 7t-48.5 3q-61 0-128-37.5T381 760q-55-74-91-180.5T254 336m444-221q20-4 42-6.5t44-2.5q66 0 135.5 37t126 111q56.5 74 93.5 185.5t37 262.5q-1 207-222 207-25 0-43-3t-47-9"/><glyph glyph-name="х" unicode="х" horiz-adv-x="1047" d="M-45 0l461 524-219 500h174l121-283 36-116 84 116 248 283h187L612 532 856 0H682L543 311l-41 123-86-123L141 0"/><glyph glyph-name="ц" unicode="ц" horiz-adv-x="1018" d="M123 197q0 72 20 161l140 666h153L293 342q-12-55-12-102 0-57 22.5-95.5T385 106q49 0 99.5 25t96.5 63.5q46 38.5 83.5 86T727 373l137 651h154q-41-193-69.5-325t-47-220q-18.5-88-30-139T855 261q-5-28-6-40t-1-24q0-66 55-66h113L909-260H786L854 0h-6q-72 0-106.5 35T707 135q0 29 6 60h-8q-29-39-68-78t-86-71Q504 14 449.5-5.5T334-25q-45 0-83 10.5t-66.5 36Q156 47 139.5 89T123 197"/><glyph glyph-name="ч" unicode="ч" horiz-adv-x="934" d="M141 584q-6 74 82 440h156l-60-279q-14-72-14-122 0-59 27.5-95T436 492q90 0 149.5 25.5T680 567l98 457h156L717 0H561l90 430q-35-20-100.5-45T387 360q-55 0-100 11.5t-77 37Q178 434 159.5 477T141 584"/><glyph glyph-name="ш" unicode="ш" horiz-adv-x="1495" d="M121 180q0 88 31 230l129 614h153L305 408q-25-111-24-183 0-119 79-119 49 0 97.5 27t90.5 68q42 41 74.5 89t53.5 89l135 645h154L844 444q-14-68-23.5-123t-9.5-96q0-57 20.5-88t67.5-31q35 0 79 26t87 65q43 39 81 84t58 86l137 657h154l-152-715q-16-78-25-157.5T1305 0h-117l-6 174h-8q-68-86-153-142.5T819-25q-76 0-115.5 56.5T664 184v6q-31-41-69-78.5T512 43q-45-31-96-49.5T309-25q-92 0-140 43t-48 162"/><glyph glyph-name="щ" unicode="щ" horiz-adv-x="1495" d="M121 180q0 88 31 230l129 614h153L305 408q-10-53-17-98.5t-7-80.5q0-59 19-91t60-32q49 0 97.5 27t90.5 68q42 41 74.5 89t53.5 89l135 645h154L844 444q-14-68-23.5-123t-9.5-96q0-57 20.5-88t67.5-31q35 0 79 26t87 65q43 39 81 84t58 86l137 657h154q-37-172-61.5-291t-41-196.5Q1376 459 1368 417t-13-63.5q-5-21.5-7-29t-2-11.5q-4-25-10.5-56.5T1329 197q0-66 55-66h111l-104-391h-125l69 260h-6q-74 0-107.5 35t-33.5 98q0 27 6 62h-8q-70-102-160-161T819-25q-76 0-115.5 56.5T664 184v6q-31-41-69-78.5T512 43q-45-31-96-49.5T309-25q-92 0-140 43t-48 162"/><glyph glyph-name="ъ" unicode="ъ" horiz-adv-x="905" d="M106 883l29 141h389L414 610q49 16 106.5 26.5T637 647q119 0 193.5-54T905 422q0-96-39-176T757.5 108.5Q688 51 595 19.5T395-12q-117 0-168 53t-51 137q0 20 2 42t8 44l154 619m-6-670q0-94 106-94 63 0 118.5 20.5t96.5 57q41 36.5 63.5 85T741 385q0 59-31.5 97T586 520q-20 0-47-3t-54.5-8q-27.5-5-54.5-13.5T385 475l-43-199q-8-33-8-63"/><glyph glyph-name="ы" unicode="ы" horiz-adv-x="1280" d="M123 162q0 39 8 71l178 791h154l-96-403q35 10 92 18t104 8q150 0 211.5-60.5T836 428q0-106-44-188T677 101.5q-71-56.5-159-85T340-12q-113 0-165 47t-52 127m158 43q0-39 21.5-62.5T373 119q61 0 115.5 19.5t95.5 55q41 35.5 64.5 85T672 387q0 63-35 98t-137 35q-84 0-162-33l-53-247q-2-10-3-18.5t-1-16.5M909 0l217 1024h154L1063 0"/><glyph glyph-name="ь" unicode="ь" horiz-adv-x="850" d="M123 184q0 29 6 60l182 780h154l-96-403q4 0 5 1t5 1q41 10 86 17t100 7q90 0 145.5-18.5t86-49q30.5-30.5 42-71.5t11.5-84q0-109-40-189.5t-106.5-136Q637 43 551 15.5T373-12q-72 0-119 16t-77 44q-30 28-42 63.5T123 184m158 37q0-47 29.5-74.5T406 119q57 0 107 19.5t89 54q39 34.5 61.5 84T686 387q0 72-38 102.5T512 520q-53 0-94-11t-78-24l-53-215q-6-29-6-49"/><glyph glyph-name="э" unicode="э" horiz-adv-x="834" d="M-18 39l67 125q39-27 103.5-42.5T281 106q141 0 236 88.5T651 455H227l27 125h408q4 20 6 41.5t2 46.5q0 129-51.5 189.5T473 918q-94 0-156.5-22T213 850l-41 106q70 45 153 69t185 24q84 0 144.5-25T755 955q40-44 59.5-103T834 723q0-209-47.5-352.5T661.5 140Q584 53 484.5 14T283-25Q76-25-18 39"/><glyph glyph-name="ю" unicode="ю" horiz-adv-x="1327" d="M72 0l217 1024h153l-90-432h191q29 104 75 188t107 143.5q61 59.5 135 92.5t160 33q88 0 146.5-28t94-76q35.5-48 51-110.5T1327 705q0-154-40-287t-109.5-231.5Q1108 88 1015 31.5T817-25q-92 0-151.5 30t-94 79q-34.5 49-48 110.5T510 319q0 37 3 72t7 70H322L225 0m439 356q0-121 36.5-185.5T836 106q63 0 122.5 48.5T1063 285q45 82 72.5 187.5T1163 692q0 104-33.5 165T991 918q-68 0-127-46.5t-104-124q-45-77.5-70.5-179T664 356"/><glyph glyph-name="я" unicode="я" horiz-adv-x="926" d="M-33 0l299 350 101 76q-82 14-137.5 68.5T174 647q0 94 39 169t104.5 126q65.5 51 152.5 79t183 28q41 0 82-5.5t78-12.5q37-7 65.5-16t47.5-16L717 0H563l90 422-157-25L166 0m172 666q0-150 213-150h24.5q12.5 0 35 1t63.5 3l82 371q-10 10-45 18.5t-95 8.5q-123 0-200.5-69T338 666"/><glyph glyph-name="ё" unicode="ё" horiz-adv-x="974" d="M102 332q0 168 47.5 301t124 225q76.5 92 174 141.5T647 1049q74 0 128-20.5t89-54.5q35-34 51.5-78t16.5-93q0-145-141.5-228T379 492q-25 0-51.5 1t-55.5 3q-8-39-12-74t-4-62q0-113 51-183.5T467 106q90 0 165 30t116 63l49-99Q725 39 627.5 7T432-25q-164 0-247 94.5T102 332m199 278q78 0 162 4t152.5 21.5Q684 653 729 691t45 106q0 20-7 41.5t-23.5 39q-16.5 17.5-46 29T623 918q-113 0-196-77T301 610m108 688q0 45 25.5 75t68.5 30q43 0 70-30t27-75q0-41-27-70.5t-70-29.5q-43 0-68.5 29.5T409 1298m375 2q0 43 25.5 73t68.5 30q45 0 70.5-30t25.5-73q0-43-25.5-72.5T878 1198q-43 0-68.5 29.5T784 1300"/><glyph glyph-name="—" unicode="—" horiz-adv-x="1401" d="M231 520l33 139h1137l-33-139"/><glyph glyph-name="€" unicode="€" horiz-adv-x="1245" d="M12 516l66 135h147q10 78 25 144H72l65 135h152q49 137 126 236.5t168 164q91 64.5 189 96t191 31.5q98 0 166.5-16.5T1245 1399l-71-125q-76 45-242 45-55 0-122-22.5T677.5 1227Q612 1180 553 1106T451 930h565l-64-135H403q-16-70-24-144h502l-64-135H369v-12q0-84 18.5-154.5t59-123Q487 174 555 144.5T721 115q66 0 130 18.5T967 180l28-123q-35-25-76.5-40t-87-24Q786-16 743-20.5T664-25q-111 0-195 38T328.5 118.5q-56.5 67.5-85 160T215 477v39"/><glyph glyph-name="₽" unicode="₽" horiz-adv-x="1169" d="M57 286l29 127h141l33 148H119l28 127h140l155 731q82 18 166 24.5t172 6.5q82 0 154-21.5t124-64.5q52-43 81.5-107.5T1169 1108q0-121-32.5-212.5t-91-156Q987 675 906 635.5T729 575q-41-8-88-10t-106-6H424l-31-146h332l-27-127H365L305 0H141l60 286m252 414h151q62 0 132.5 16.5t130 55.5Q926 811 966 877.5t40 166.5q0 129-58.5 195.5T756 1306q-54 0-104-3t-72-9"/><glyph horiz-adv-x="649" d="M178 94q0 55 33 87t86 32q53 0 86-31.5T416 94q0-53-33-86t-86-33q-53 0-86 33t-33 86m117 268l41 361 149 711h164L500 723 389 362"/><glyph glyph-name="!" unicode="!" horiz-adv-x="624" d="M162 1038l84 396h151l-143-396m135 0l84 396h151l-143-396"/><glyph glyph-name="&quot;" unicode="&quot;" horiz-adv-x="1071" d="M131 461l29 131h164l63 268H233l29 131h156l78 324h139l-78-324h217l78 324h139l-78-324h158l-33-131H883l-64-268h150l-33-131H786l-79-342H567l80 342H430l-80-342H211l80 342m172 131h217l63 268H526"/><glyph glyph-name="#" unicode="#" horiz-adv-x="1108" d="M125 104l72 125q33-23 95-57.5T436 123l123 575q-45 33-89 70t-78 80q-34 43-55.5 97T315 1069q0 90 30 158.5t84 117q54 48.5 128 76t162 33.5l41 184h131l-39-182q88-8 150.5-30.5T1108 1380l-70-129q-35 16-90 34t-127 26L711 797q47-35 93-74t82-88q36-49 58.5-111.5T967 379q0-84-29-154.5t-84-123q-55-52.5-136-85T535-23q0-2-6.5-29.5T516-115q-8-39-18-90H367l39 187Q308-4 234 35t-109 69m358 990q0-78 41-132.5T625 860l96 453q-117-8-177.5-68.5T483 1094m52-975q123 8 193.5 74T799 365q0 92-45 154.5T645 635"/><glyph glyph-name="$" unicode="$" horiz-adv-x="1411" d="M123 1004q0 119 36 204.5t91 141q55 55.5 122.5 82T506 1458q117 0 177-63.5t60-180.5q0-111-30.5-194.5t-82.5-141q-52-57.5-123-87T358 762q-104 0-169.5 63.5T123 1004m57-949l1051 1405 102-80L282-25m-18 1045q0-66 30-102.5t89-36.5q43 0 83 22.5t70.5 64.5q30.5 42 48 102t17.5 136q0 72-31.5 102.5T481 1339q-43 0-83-25.5t-69.5-68.5q-29.5-43-47-101T264 1020m527-776q0 119 36 204.5t91 141q55 55.5 122.5 82T1174 698q117 0 177-63.5t60-180.5q0-111-30.5-194.5t-82.5-141q-52-57.5-123-87T1026 2Q922 2 856.5 65.5T791 244m141 16q0-66 30-102.5t89-36.5q43 0 83 22.5t70.5 64.5q30.5 42 48 102t17.5 136q0 72-31.5 102.5T1149 579q-43 0-83-25.5T996.5 485q-29.5-43-47-101T932 260"/><glyph glyph-name="%" unicode="%" horiz-adv-x="1389" d="M178 303q0 96 40 184t103.5 164Q385 727 465 787.5T625 889q-14 37-24.5 66.5t-18 59Q575 1044 572 1076t-3 73q0 55 20.5 110.5T653 1359q43 44 107.5 71.5T915 1458q72 0 116-19.5t68.5-48q24.5-28.5 33-63.5t8.5-65q0-117-89-216.5T809 862q20-59 48-121.5t60.5-124Q950 555 987 494.5t74-111.5q27 25 56.5 62.5t58 79.5q28.5 42 55 87t49.5 86l109-59q-18-35-51-83t-70-98q-37-50-74-96.5t-66-76.5q66-82 112-125t97-76L1219-31q-47 27-100.5 78T1014 166q-43-37-92.5-71T815 34.5Q758 8 691.5-8.5T549-25q-86 0-154.5 25t-117 69q-48.5 44-74 103T178 303m164 35q0-111 67.5-166T600 117q49 0 98.5 13t94.5 34.5q45 21.5 82.5 48T942 268q-43 59-83 129t-74.5 139.5Q750 606 722 670.5T676 784q-74-47-135.5-100T435 574.5q-44-56.5-68.5-116T342 338m381 815q0-31 2-55.5t7-46q5-21.5 12.5-44T764 954q117 70 175 133.5t58 141.5q0 41-23.5 69.5T893 1327q-47 0-79-14.5t-52.5-40q-20.5-25.5-29.5-57t-9-62.5"/><glyph glyph-name="&amp;" unicode="&amp;" horiz-adv-x="444" d="M209 1038l84 396h151l-143-396"/><glyph glyph-name="'" unicode="'" horiz-adv-x="764" d="M111 154q0 207 47 397t127 356q80 166 184 304.5T688 1458l76-72q-115-131-206-273T401.5 817.5Q336 664 303 501t-33-323q0-135 28-274.5T391-375l-94-71Q186-284 148.5-134T111 154"/><glyph glyph-name="(" unicode="(" horiz-adv-x="453" d="M-195-379Q-95-270-7.5-131t155 293.5Q215 317 254 482t39 319q0 201-25.5 338T178 1382l103 68q47-61 79.5-137t53-154q20.5-78 30-154.5T453 858q0-205-46.5-396.5t-125-358Q203-63 99.5-202.5T-117-451"/><glyph glyph-name=")" unicode=")" horiz-adv-x="698" d="M145 1133v114h103l129-24-92 90-56 94 101 57 51-86 37-114 43 116 49 82 98-53-51-88-96-98 139 24h98v-114h-92l-133 24 94-98 49-80-98-57-51 86-49 125-37-119-51-86-103 57 54 86 88 86-121-24"/><glyph glyph-name="*" unicode="*" horiz-adv-x="981" d="M113 618v148h360v371h148V766h360V618H621V248H473v370"/><glyph glyph-name="+" unicode="+" horiz-adv-x="276" d="M-43-225q78 29 125 90t57 121q-8-4-20-4-29 0-56.5 24.5T35 72q0 53 34.5 90T170 199q51 0 78.5-35T276 84q0-63-21.5-123.5t-60-112Q156-203 103.5-243T-10-305"/><glyph glyph-name="," unicode="," horiz-adv-x="633" d="M129 520l33 139h471l-35-139"/><glyph glyph-name="-" unicode="-" horiz-adv-x="309" d="M72 94q0 55 32.5 87t85.5 32q53 0 86-31.5T309 94q0-53-32.5-86T190-25q-53 0-85.5 33T72 94"/><glyph glyph-name="." unicode="." horiz-adv-x="993" d="M-190-229L877 1458l116-63L-74-295"/><glyph glyph-name="/" unicode="/" horiz-adv-x="1094" d="M117 449q0 215 46 400t127 320.5q81 135.5 193.5 212T731 1458q174 0 268.5-112.5T1094 987q0-184-40-364.5T937 298Q860 154 747.5 64.5T487-25q-104 0-174.5 40T198 121.5q-44 66.5-62.5 152T117 449m159 8q0-104 20.5-171T351 183q34-36 76-50t85-14q92 0 170 72.5T815 385q55 121 87 272.5T934 967q0 176-49 262t-178 86q-82 0-159-63.5T410.5 1073Q350 958 313 800.5T276 457"/><glyph glyph-name="0" unicode="0" horiz-adv-x="862" d="M129 0l31 152h272l213 991 45 121-100-97-246-161-57 104 506 348h69L584 152h266L819 0"/><glyph glyph-name="1" unicode="1" horiz-adv-x="1055" d="M66 0l12 59q51 51 132 128t172 170.5Q473 451 565 553t167 205.5q75 103.5 119 200t44 178.5q0 39-8 71.5t-26.5 56q-18.5 23.5-53.5 37t-90 13.5q-74 0-143.5-30T426 1204l-43 123q98 72 188.5 101.5T768 1458q143 0 215-81t72-208q0-106-59.5-231T845 687q-91-126-199.5-245.5T436 225l-112-88v-8l127 23h419L842 0"/><glyph glyph-name="2" unicode="2" horiz-adv-x="1085" d="M88 27l74 145q41-23 98-38t133-15q96 0 169 30.5t119 81q46 50.5 70.5 115T776 477q0 106-53 163.5T524 698H377l12 60 373 454 106 91-129-21H360l29 152h696l-12-60-411-495-80-60v-4l67 14q57 0 108.5-19t91.5-59q40-40 63.5-101.5T936 502q0-111-36-206T793.5 129Q723 57 616.5 16T369-25q-88 0-159 14.5T88 27"/><glyph glyph-name="3" unicode="3" horiz-adv-x="1081" d="M70 440l14 68 850 948h104L852 580h229l-28-140H821L729 0H580l92 440M283 565l137 15h282l97 450 55 168h-8l-96-139-355-391"/><glyph glyph-name="4" unicode="4" horiz-adv-x="1090" d="M96 23l70 141q43-18 91-31.5T381 119q92 0 164.5 29.5t124 82q51.5 52.5 78 122T772 506q2 117-62.5 174T498 737l-164-10 149 707h607l-33-152H596l-88-410h14.5q12.5 0 28.5 2 18 0 39 3 96 0 161.5-30T857 770q40-47 57.5-109.5T932 535q0-158-51.5-265.5t-134-173Q664 31 560.5 3T350-25q-82 0-144.5 12.5T96 23"/><glyph glyph-name="5" unicode="5" horiz-adv-x="1018" d="M129 418q0 205 78 387t203 320.5Q535 1264 692.5 1352t317.5 106l8-131q-113-18-223.5-74.5T591 1113q-93-83-165-186.5T317 711q20 27 55.5 52t79.5 45.5q44 20.5 94 32T649 852q147 0 243.5-89T989 500q0-115-33.5-210t-98-166Q793 53 701.5 14T498-25q-68 0-133.5 24T247 75q-52 52-85 136t-33 207m154 16q0-68 13-126t42-101q29-43 72-67.5T514 115q82 0 141.5 31.5t97.5 83Q791 281 808 346t21 133q-4 102-55 168t-168 66q-47 0-93-13.5t-88-36q-42-22.5-76-52T295 549q-4-27-8-58.5t-4-56.5"/><glyph glyph-name="6" unicode="6" horiz-adv-x="1171" d="M141 0l742 1200 106 100-119-18H328l30 152h813l-10-56L309 0"/><glyph glyph-name="7" unicode="7" horiz-adv-x="1073" d="M125 299q0 141 93 261t263 192q-33 27-62.5 54.5t-53 63Q342 905 327.5 952T313 1067q0 94 36 167t96.5 123q60.5 50 140.5 75.5t166 25.5q68 0 127-19.5t102-57.5q43-38 67.5-94t24.5-130q0-61-23.5-121.5t-65.5-114Q942 868 885.5 822T762 739q37-31 70.5-64.5t58-73.5q24.5-40 40-88T946 406q0-86-27.5-164t-86-137.5Q774 45 683 10T463-25q-84 0-146.5 26T211 70q-43 43-64.5 102T125 299m160 18q0-37 10-73.5t33.5-64q23.5-27.5 65.5-44T498 119q57 0 109 15.5t93 48q41 32.5 63.5 81T786 375q0 57-15 101t-39.5 80Q707 592 668 622.5T584 682q-135-63-217-155.5T285 317m188 758q0-98 49-158.5T657 803q51 33 98.5 72.5t81 81.5q33.5 42 55 85t21.5 86q0 96-47 141.5T733 1315q-53 0-100-15.5t-82-46q-35-30.5-56.5-76T473 1075"/><glyph glyph-name="8" unicode="8" horiz-adv-x="1077" d="M190 106q129 29 239 84.5t198 132q88 76.5 151.5 172T879 698q-66-57-144-86.5T539 582q-55 0-111.5 20.5t-104 65.5q-47.5 45-77 116.5T217 956q0 119 37 212.5t103.5 158q66.5 64.5 155.5 98t194 33.5q76 0 143.5-27.5t118.5-83q51-55.5 79.5-136.5t28.5-187q0-236-83-423T782 279.5Q653 145 497.5 67.5T199-25M377 975q0-74 22.5-123t54-78q31.5-29 69.5-41t75-12q94 0 179 37t130 90q2 12 5 34.5t6.5 45q3.5 22.5 4.5 44t1 32.5q0 143-61.5 229T680 1319q-59 0-113.5-20.5T471 1235q-41-43-67.5-107.5T377 975"/><glyph glyph-name="9" unicode="9" horiz-adv-x="592" d="M182 94q0 55 33 87t86 32q53 0 86-31.5T420 94q0-53-33-86t-86-33q-53 0-86 33t-33 86m172 826q0 55 33 86.5t86 31.5q53 0 86-31.5t33-86.5q0-53-33-86t-86-33q-53 0-86 33t-33 86"/><glyph glyph-name=":" unicode=":" horiz-adv-x="604" d="M111-225q78 29 125 90t57 121q-8-4-21-4-29 0-56.5 24.5T188 72q0 53 35 90t101 37q51 0 78.5-35T430 84q0-63-21.5-123.5t-60.5-112Q309-203 257-243t-114-62M367 920q0 55 32.5 86.5T485 1038q53 0 86-31.5t33-86.5q0-53-32.5-86T485 801q-53 0-85.5 33T367 920"/><glyph glyph-name=";" unicode=";" horiz-adv-x="975" d="M111 625v59l776 473 78-127-486-297-186-78 184-65 498-295-78-123"/><glyph glyph-name="&lt;" unicode="&lt;" horiz-adv-x="981" d="M113 449v147h868V449M113 788v148h868V788"/><glyph glyph-name="=" unicode="=" horiz-adv-x="979" d="M115 1032l78 125 786-452v-60L203 172l-78 125 485 297 187 78-185 65"/><glyph glyph-name="&gt;" unicode="&gt;" horiz-adv-x="907" d="M164 94q0 55 32.5 87t86.5 32q53 0 85.5-31.5T401 94q0-53-32.5-86T283-25q-53 0-86 33t-33 86m80 1262q41 25 78.5 43t80.5 31.5q43 13.5 93.5 20.5t115.5 7q152 0 223.5-69.5T907 1208q0-111-34.5-191.5t-88-144q-53.5-63.5-118-118T543.5 643Q485 586 440 519.5T381 362H252q10 102 51 179t95.5 139.5Q453 743 514 797.5t111.5 109q50.5 54.5 84 116.5t33.5 142q0 78-42 120t-146 42q-72 0-142.5-27.5T283 1237"/><glyph glyph-name="?" unicode="?" horiz-adv-x="2060" d="M238 483q0 223 76.5 403.5T522 1194q131 127 305 195.5t369 68.5q184 0 342-54t274.5-155.5q116.5-101.5 182-248T2060 668q0-131-45-251t-121.5-210q-76.5-90-179-144.5T1497 8q-86 0-136 37t-50 137q0 18 2 40t6 46h-8q-31-47-70-93t-87-83q-48-37-102.5-60.5T938 8q-49 0-93 21.5T768 92q-33 41-52.5 97.5T696 317q0 131 43 258t116 225.5q73 98.5 170 159t206 60.5q74 0 120-22.5t89-55.5l67 64h70l-104-588q-10-53-15.5-95t-5.5-75q0-51 17.5-76t62.5-25q70 0 137.5 37T1791 288.5q54 67.5 88 164t34 215.5q0 158-53.5 278.5T1710 1150q-96 83-229 126t-293 43q-168 0-313.5-61.5t-254-170Q512 979 449.5 827.5T387 498q0-182 56.5-325.5t161-242Q709-168 854-219t324-51q59 0 135 14t137 43l41-131q-90-39-169-52.5T1153-410q-190 0-356 57.5t-291 170Q381-70 309.5 97T238 483m616-139q0-80 33-138.5t119-58.5q41 0 85 29t87 75q43 46 82.5 103.5T1331 471l62 334q-35 41-71 58.5t-89 17.5q-80 0-149.5-49.5t-120-126q-50.5-76.5-80-173T854 344"/><glyph glyph-name="@" unicode="@" horiz-adv-x="1042" d="M-68 0l828 1456h76L1042 0H885l-58 397H328L106 0m302 545h403l-59 436-4 217h-3l-92-221"/><glyph glyph-name="A" unicode="A" horiz-adv-x="1149" d="M82 10l299 1411q78 12 175 20.5t210 8.5q76 0 145.5-19.5T1033 1372q52-39 84-100.5t32-143.5q0-80-24.5-145T1055 868.5q-45-49.5-105.5-79T819 750v-9q45-10 86-33.5t72-58.5q31-35 49-81t18-101q0-143-56-236.5T845 82Q758 27 650.5 5.5T438-16h-79q-46 0-117 4Q119 0 82 10m190 135q12-4 38-6t55.5-4q29.5-2 61-3t56.5-1q72 0 141.5 17.5t125 54.5q55.5 37 89 96T872 444q0 63-30.5 105.5t-79.5 67Q713 641 650.5 650T524 659H381m29 140h108q35 0 82 1t80 5q47 10 100.5 28.5T878 886q44 34 71.5 86t27.5 130q0 57-17.5 95t-51.5 61.5q-34 23.5-81 34T723 1303q-66 0-123-3.5t-86-9.5"/><glyph glyph-name="B" unicode="B" horiz-adv-x="1231" d="M145 561q0 231 68 400t178.5 280Q502 1352 640 1405t280 53q117 0 190.5-16.5T1231 1403l-74-150q-41 23-107.5 38.5T897 1307q-115 0-220.5-50.5t-185-144.5q-79.5-94-127-229T317 580q0-98 26-181.5T417 255q48-60 118.5-94T696 127q96 0 160 21.5T971 199l12-140Q913 12 835.5-6.5T655-25q-121 0-215 44T280.5 142Q215 221 180 327.5T145 561"/><glyph glyph-name="C" unicode="C" horiz-adv-x="1270" d="M82-2l305 1436q78 10 176.5 13t177.5 3q121 0 219.5-32t167-97.5Q1196 1255 1233 1155t37-235q0-90-16.5-196T1199 515q-38-103-101.5-199.5T940 144.5Q846 70 719 26T426-18q-31 0-81 1t-99 3Q103-6 82-2m194 143q8-2 33-3t52.5-2q27.5-1 53-2t36.5-1q178 0 300.5 74T951 393.5Q1028 506 1063 641t35 256q0 92-20.5 166t-64.5 126q-44 52-114 80.5T729 1298q-25 0-55.5-1t-59-2q-28.5-1-55.5-3t-41-4"/><glyph glyph-name="D" unicode="D" horiz-adv-x="1126" d="M82 0l305 1434h739l-30-152H516L416 813h530l-31-151H385L276 152h590L834 0H244"/><glyph glyph-name="E" unicode="E" horiz-adv-x="1126" d="M82 0l305 1434h739l-30-152H516L412 793h540l-30-152H381L246 0"/><glyph glyph-name="F" unicode="F" horiz-adv-x="1251" d="M145 557q0 252 74 424t189.5 277.5Q524 1364 663.5 1411t270.5 47q117 0 193.5-15.5T1251 1405l-71-150q-41 23-110 37.5T915 1307q-119 0-226-46.5T499 1122q-83-92-132.5-228T317 578q0-92 22.5-174t69-143.5Q455 199 523.5 163T686 127q66 0 113 13.5t94 37.5l84 400-229 40 20 97h377L1012 84Q867-25 651-25q-102 0-193 37T297 122q-70 73-111 181.5T145 557"/><glyph glyph-name="G" unicode="G" horiz-adv-x="1362" d="M82 0l303 1434h164L418 809h649l131 625h164L1059 0H895l139 657H383L246 0"/><glyph glyph-name="H" unicode="H" horiz-adv-x="594" d="M127 0l303 1434h164L291 0"/><glyph glyph-name="I" unicode="I" horiz-adv-x="618" d="M-125 12l62 146q39-27 110-27 43 0 71.5 15.5t49 45q20.5 29.5 34 70.5t23.5 94l230 1078h163L381 315q-18-82-44-144T271 66q-40-43-98-64.5T33-20q-16 0-38 2t-44.5 6Q-72-8-92.5-2T-125 12"/><glyph glyph-name="J" unicode="J" horiz-adv-x="1278" d="M82 0l303 1434h164L406 766l81 29 588 639h203L692 811l-94-63 80-82L1036 0H850L489 664H385L246 0"/><glyph glyph-name="K" unicode="K" horiz-adv-x="920" d="M82 0l303 1434h164L276 152h644L889 0H242"/><glyph glyph-name="L" unicode="L" horiz-adv-x="1597" d="M82 0l305 1434h113l266-734 31-159h2l94 164 559 729h145L1292 0h-164l205 963 64 215h-8l-115-197-492-647h-49L498 981l-31 197h-8l-17-213L238 0"/><glyph glyph-name="M" unicode="M" horiz-adv-x="1368" d="M82 0l309 1456h82l447-958 67-201h8l19 201 200 936h154L1059-23h-76L535 938l-70 211h-6l-25-211L236 0"/><glyph glyph-name="N" unicode="N" horiz-adv-x="1325" d="M145 524q0 188 51.5 358.5T343 1181q95 128 229.5 202.5T870 1458q98 0 182.5-29.5t144.5-94q60-64.5 94-167t34-249.5q0-193-51-364t-143.5-300Q1038 125 910 50T629-25q-242 0-363 140.5T145 524m172 2q0-193 80-298t236-105q115 0 210 63.5t164.5 172Q1077 467 1115 610.5t38 302.5q0 119-26.5 197t-70.5 122q-44 44-100.5 61.5T842 1311q-117 0-213.5-64.5t-165-173Q395 965 356 822.5T317 526"/><glyph glyph-name="O" unicode="O" horiz-adv-x="1159" d="M82 0l301 1419q78 18 164 24.5t170 6.5q94 0 175-20.5t140.5-65.5q59.5-45 93-115.5T1159 1079q0-156-56-260T955.5 652.5q-91.5-62.5-206-89T518 537h-31.5q-21.5 0-46 1t-47 3q-22.5 2-33.5 4L246 0m147 694q8-4 27.5-5t41-3q21.5-2 42-2H535q88 0 169.5 18.5t144 63.5Q911 811 949 882.5t38 180.5q0 74-24.5 121t-66.5 72.5q-42 25.5-97.5 36T682 1303q-47 0-91-3.5t-73-9.5"/><glyph glyph-name="P" unicode="P" horiz-adv-x="1329" d="M145 524q0 188 51.5 358.5T343 1181q95 128 229.5 202.5T870 1458q98 0 182.5-29.5t144.5-94q60-64.5 94-167t34-249.5q0-193-51-364t-143.5-300Q1038 125 910 50T629-25q-242 0-363 140.5T145 524m172 2q0-193 80-298t236-105q115 0 210 63.5t164.5 172Q1077 467 1115 610.5t38 302.5q0 119-26.5 197t-70.5 122q-44 44-100.5 61.5T842 1311q-117 0-213.5-64.5t-165-173Q395 965 356 822.5T317 526m43-776l31 150q55 12 109 12 82 0 157.5-21.5t154.5-46q79-24.5 163-46t180-21.5q84 0 174 20l-33-147q-49-14-95-19.5t-91-5.5q-98 0-186 21.5t-169 46q-81 24.5-156 46T453-240q-23 0-46.5-2t-46.5-8"/><glyph glyph-name="Q" unicode="Q" horiz-adv-x="1114" d="M82 0l301 1419q86 16 166 23.5t160 7.5q78 0 151.5-19.5t130-61.5q56.5-42 90-109.5T1114 1096q0-180-105.5-300T702 641l74-74L997 0H819L573 618l-192 31L246 0m160 762h141q74 0 144.5 14.5t126.5 51q56 36.5 90 100t34 159.5q0 37-14.5 75t-43 70q-28.5 32-76 51.5T698 1303q-49 0-98-3.5t-82-9.5"/><glyph glyph-name="R" unicode="R" horiz-adv-x="1149" d="M35 51l84 150q47-27 128-52.5T438 123q63 0 127 11t115 40q51 29 83 76t32 119q0 74-38 125t-95.5 93q-57.5 42-124 81t-124 90q-57.5 51-95 120.5T281 1051q0 109 39.5 186.5T429 1364q69 49 162 71.5t197 22.5q119 0 213.5-18.5T1149 1393l-82-146q-41 23-122 43.5T758 1311q-135 0-220-61.5T453 1071q0-76 37.5-128t95-94q57.5-42 124-81t124-89Q891 629 929 559t38-170q0-199-143.5-306.5T412-25Q275-25 179.5-1T35 51"/><glyph glyph-name="S" unicode="S" horiz-adv-x="1264" d="M225 1282l31 152h1008l-31-152H809L539 0H375l270 1282"/><glyph glyph-name="T" unicode="T" horiz-adv-x="1329" d="M178 338q0 84 23 190l190 906h164L365 526q-23-90-23-164 0-129 67.5-179T610 133q80 0 140.5 22.5T855 225q44 47 73.5 121T981 524l193 910h155l-201-957q-29-131-71.5-225t-107-153.5Q885 39 795 10.5T586-18Q473-18 395 7.5T269 79q-48 46-69.5 112.5T178 338"/><glyph glyph-name="U" unicode="U" horiz-adv-x="1333" d="M213 1434h168l137-981V233h4l92 224 543 977h176L510-23h-76"/><glyph glyph-name="V" unicode="V" horiz-adv-x="1817" d="M233 1434h168l37-957-18-237h2l80 241 481 953h88l76-957-19-237h2l82 241 437 953h168L1128-23h-90l-77 961 12 217h-8l-82-219L403-23h-90"/><glyph glyph-name="W" unicode="W" horiz-adv-x="1364" d="M-14 0l606 733-266 701h178l176-486 25-117 69 117 391 486h199L793 739 1083 0H905L709 514l-29 123-78-123L184 0"/><glyph glyph-name="X" unicode="X" horiz-adv-x="1280" d="M221 1434h178l183-627 6-125h2l61 129 445 623h184L657 571 537 0H373l121 569"/><glyph glyph-name="Y" unicode="Y" horiz-adv-x="1217" d="M-2 0l31 154 891 1046 100 82H270l31 152h916l-31-154L289 227l-96-75h751L913 0"/><glyph glyph-name="Z" unicode="Z" horiz-adv-x="791" d="M33-471l403 1905h355l-31-144H561L217-328h201l-31-143H186"/><glyph glyph-name="[" unicode="[" horiz-adv-x="920" d="M84 1401l141 57L920-227l-136-60"/><glyph glyph-name="\" unicode="\" horiz-adv-x="627" d="M-129-471l31 143H98l342 1618H242l30 144h355L223-471H70"/><glyph glyph-name="]" unicode="]" horiz-adv-x="995" d="M209 891l381 565h59l346-565H825l-161 276-48 142-63-144-191-274"/><glyph glyph-name="^" unicode="^" horiz-adv-x="745" d="M-90-281h835v-139H-90"/><glyph glyph-name="_" unicode="_" horiz-adv-x="608" d="M354 1432l8 43h187l59-306h-88"/><glyph glyph-name="`" unicode="`" horiz-adv-x="977" d="M92 293q0 131 34 266t104.5 243.5Q301 911 412.5 981t269.5 70q57 0 140-13.5t155-36.5L848 403q-16-76-22.5-153.5T819 104V45.5Q819 18 823-4H709l-29 178h-8q-25-35-61-70.5T532 39q-43-29-92-46.5T336-25Q92-25 92 293m164 0q0-78 30.5-132.5T383 106q49 0 94 24t85 58.5q40 34.5 71 74.5t49 75l115 553q-61 29-156 29-94 0-166-55.5T354 720q-49-89-73.5-201.5T256 293"/><glyph glyph-name="a" unicode="a" horiz-adv-x="1001" d="M88 63l291 1371h153L408 848h8q29 37 65.5 72.5T563 985q45 29 96.5 46.5T770 1049q121 0 176-85t55-214q0-184-51-326.5t-135-241Q731 84 623.5 33T403-18Q292-18 209.5 6.5T88 63m172 93q61-43 174-43 66 0 137.5 40t131 116.5Q762 346 800 457.5T838 713q0 104-32 154.5T721 918q-51 0-104.5-26T515 825q-48-41-88-91t-65-97"/><glyph glyph-name="b" unicode="b" horiz-adv-x="887" d="M102 303q0 174 47.5 312.5t126 234.5q78.5 96 181 147.5T668 1049q78 0 128-14.5t91-33.5l-58-127q-35 20-86 32t-110 12q-70 0-136.5-47.5T379 746.5q-51-76.5-82-176T266 367q0-133 55.5-197T471 106q61 0 129 28t109 56l39-102q-31-27-71-47.5T595 6q-42-14-83-22.5T434-25Q334-25 269.5 7T168 88q-37 49-51.5 106.5T102 303"/><glyph glyph-name="c" unicode="c" horiz-adv-x="1087" d="M102 322q0 121 35 248.5t102.5 232q67.5 104.5 169 172T643 1042q37 0 63.5-2t50-6q23.5-4 44-11t43.5-15l90 426h153L858 352q-16-80-24.5-149.5T825 74q0-23 1-41.5T829-4H727l-29 178h-8q-25-35-61.5-70.5T547 39q-45-29-95.5-46.5T348-25q-113 0-179.5 83T102 322m164-11q0-84 33-144.5T406 106q43 0 88 24t84.5 58.5Q618 223 650 263t50 75l115 532q-35 23-79 32t-115 9q-82 0-147.5-50t-112-134q-46.5-84-71-192.5T266 311"/><glyph glyph-name="d" unicode="d" horiz-adv-x="932" d="M102 332q0 168 47.5 301t124 225q76.5 92 174 141.5T647 1049q74 0 128-20.5t89-54.5q35-34 51.5-78t16.5-93q0-145-141.5-228T379 492q-25 0-51.5 1t-55.5 3q-8-39-12-74t-4-62q0-113 51-183.5T467 106q90 0 165 30t116 63l49-99Q725 39 627.5 7T432-25q-164 0-247 94.5T102 332m199 278q78 0 162 4t152.5 21.5Q684 653 729 691t45 106q0 20-7 41.5t-23.5 39q-16.5 17.5-46 29T623 918q-113 0-196-77T301 610"/><glyph glyph-name="e" unicode="e" horiz-adv-x="881" d="M-233-385l45 115q41-14 74.5-19.5T-31-295q78 0 117 75t66 236l143 877H137l27 131h149l27 137q14 76 34.5 131.5t54.5 92q34 36.5 84 55t122 18.5q68 0 131-13t115-36l-45-121q-100 39-191 39-76 0-110.5-52T481 1108l-14-84h207l-25-131H449L285-70q-12-76-34-140t-56.5-112.5q-34.5-48.5-88-76T-23-426q-61 0-113 9t-97 32"/><glyph glyph-name="f" unicode="f" horiz-adv-x="1006" d="M10-342l68 115q16-8 39.5-21.5t57.5-26q34-12.5 82-20.5t114-8q102 0 171.5 73.5T647 2l37 172h-8q-29-39-62.5-73.5T539 38q-41-28-89.5-44.5T344-23q-111 0-178.5 80T98 285q0 137 38 272t113 242.5q75 107.5 184.5 175T686 1042q111 0 186.5-18t133.5-45L788-47q-43-201-148-294t-280-93q-133 0-219 33.5T10-342m252 653q0-94 38-148t101-54q51 0 101.5 26.5T595 204q42 42 76 91t56 92l104 494q-33 18-79.5 24t-96.5 6q-84 0-155.5-49T376 730q-52-83-83-191.5T262 311"/><glyph glyph-name="g" unicode="g" horiz-adv-x="1010" d="M74 0l303 1434h153L403 848h9q27 33 64.5 67.5T563 980q49 30 106.5 49.5T795 1049q100 0 157.5-48.5T1010 825q0-86-27-207L852 0H698l123 584q12 61 20.5 109t8.5 85q0 76-31 108t-96 32q-53 0-108.5-28T508 819q-51-43-91-96t-61-102L227 0"/><glyph glyph-name="h" unicode="h" horiz-adv-x="584" d="M111 0l217 1024h153L264 0m96 1337q0 47 32 80t79 33q47 0 80-33t33-80q0-47-33-78.5t-80-31.5q-47 0-79 31.5t-32 78.5"/><glyph glyph-name="i" unicode="i" horiz-adv-x="559" d="M-197-422l31 133q61 0 101 17.5T3-217q28 37 47.5 92T86 6l217 1018h154L227-55q-41-190-127-280.5T-133-426q-16 0-31.5 1t-32.5 3m533 1759q0 47 31.5 80t78.5 33q47 0 80-33t33-80q0-47-32.5-78.5T446 1227q-47 0-78.5 31.5T336 1337"/><glyph glyph-name="j" unicode="j" horiz-adv-x="989" d="M74 0l303 1434h153L344 561l88 23 369 440h188L625 608l-97-67 78-80L836 0H666L434 461H324L227 0"/><glyph glyph-name="k" unicode="k" horiz-adv-x="522" d="M102 135q0 41 13 101l254 1198h153L272 244q-6-35-6-58 0-39 13.5-56t35.5-17q41 0 69 5t67 19V20q-18-10-43-17T357.5-8q-25.5-4-51-7T260-18q-72 0-115 32.5T102 135"/><glyph glyph-name="l" unicode="l" horiz-adv-x="1489" d="M74 0l217 1024h108l-12-176h8q33 33 71 68.5t84 64.5q46 29 100.5 48.5T770 1049q92 0 124-57.5T926 831q31 39 71.5 78t89 70q48.5 31 101.5 50.5t106 19.5q94 0 144.5-44t50.5-163q0-86-31-228L1329 0h-153l129 616q12 59 19 106.5t7 82.5q0 55-22.5 84t-75.5 29q-43 0-91-28t-93-69q-45-41-81-88t-57-88L778 0H625l123 580q16 72 24 127t8 96q0 55-20.5 85T690 918q-51 0-100-27t-92-67q-43-40-79-85t-57-82L227 0"/><glyph glyph-name="m" unicode="m" horiz-adv-x="995" d="M74 0l217 1024h106l-8-176h8q27 33 64 68.5t83 64.5q46 29 103.5 48.5T774 1049q102 0 161.5-49.5T995 827q0-61-18-147L831 0H678l137 647q8 37 14.5 73t6.5 64q0 59-28 96.5T705 918q-53 0-104.5-25T504 830.5q-45-37.5-81-84T362 655L227 0"/><glyph glyph-name="n" unicode="n" horiz-adv-x="954" d="M102 319q0 162 42 296.5T260 846q74 96 171 149.5t208 53.5q86 0 146.5-28t98.5-76q38-48 54-110.5T954 705q0-154-40-287T803.5 186.5Q733 88 639 31.5T434-25q-92 0-154.5 30T177 84q-40 49-57.5 110.5T102 319m164 37q0-121 45-185.5T455 106q68 0 128 48.5T689 285q46 82 74 187.5T791 692q0 104-38 165t-145 61q-68 0-129-46.5t-109-124q-48-77.5-76-179T266 356"/><glyph glyph-name="o" unicode="o" horiz-adv-x="987" d="M-10-410l305 1434h106l-10-176h8q29 37 65 72.5t79 64.5q43 29 94 46.5t111 17.5q49 0 92-15.5t75.5-51.5q32.5-36 52-95.5T987 741q0-180-49-322.5T809 178Q729 80 629.5 27.5T432-25q-72 0-126 13.5T233 16l-90-426m121 564q35-27 72-37.5t80-10.5q80 0 152.5 44.5t130 126Q756 358 789.5 473T823 729q0 82-33.5 135.5T690 918q-55 0-105-29t-92-71q-42-42-75-90t-53-89"/><glyph glyph-name="p" unicode="p" horiz-adv-x="991" d="M94 289q0 137 45 272t125 241.5q80 106.5 190.5 173T698 1042q43 0 87-6t83-15q39-9 72-20.5t51-23.5L696-410H543l125 582h-9q-25-33-56.5-67.5t-71-63.5q-39.5-29-89-47.5T338-25q-66 0-113 24t-75.5 65.5q-28.5 41.5-42 99T94 289m164 14q0-98 32-147.5t91-49.5q51 0 103.5 31t97.5 77q45 46 79.5 98.5T717 408l102 473q-33 18-79 24t-81 6q-80 0-152.5-51T379 724q-55-85-88-194.5T258 303"/><glyph glyph-name="q" unicode="q" horiz-adv-x="782" d="M74 0l217 1024h106V848h9q25 39 53 72.5t63 60.5q35 27 76 42t90 15q45 0 94-14l-41-135q-18 4-37.5 6t-35.5 2q-104 0-180-65.5T369 672L227 0"/><glyph glyph-name="r" unicode="r" horiz-adv-x="803" d="M6 41l57 129q41-27 108-45.5T309 106q100 0 160.5 44.5T530 289q0 53-26.5 90T436 445.5q-41 29.5-88 58T260 568q-41 36-67.5 84T166 772q0 57 27.5 107.5T269 968q48 38 115 59.5t144 21.5q109 0 168.5-14.5T803 993l-51-123q-82 47-224 48-86 0-142-36t-56-110q0-43 26.5-74.5T424 637q41-29 88-58.5t88-67.5q41-38 67.5-89T694 301q0-160-107.5-243T299-25q-92 0-169 18.5T6 41"/><glyph glyph-name="s" unicode="s" horiz-adv-x="719" d="M115 893l30 131h152l43 203 164 47-53-250h268l-31-131H422L293 274q-4-25-7-45t-3-36q0-49 22.5-68t67.5-19q49 0 90 12.5t82 37.5V31Q502 6 434.5-9.5T305-25q-186 0-186 170 0 35 10 86l139 662"/><glyph glyph-name="t" unicode="t" horiz-adv-x="1018" d="M123 197q0 72 20 161l140 666h153L293 342q-12-55-12-102 0-57 22.5-95.5T385 106q49 0 99.5 25t96.5 63.5q46 38.5 83.5 86T727 373l137 651h154L889 416q-8-35-16.5-85T857 225.5Q850 170 846 118t-4-91V0H721v195h-8q-31-41-71-80t-88-70Q506 14 450.5-5.5T334-25q-45 0-83 10.5t-66.5 36Q156 47 139.5 89T123 197"/><glyph glyph-name="u" unicode="u" horiz-adv-x="1026" d="M123 1024h164l106-600 19-195h4l88 199 346 596h176L387-23h-65"/><glyph glyph-name="v" unicode="v" horiz-adv-x="1518" d="M117 1024h155l64-596-4-199h8l82 203 338 592h114l97-598 8-197h2l80 201 301 594h156L967-23h-78L780 653l-2 168h-4l-76-170L309-23h-73"/><glyph glyph-name="w" unicode="w" horiz-adv-x="1047" d="M-45 0l461 524-219 500h174l121-283 36-116 84 116 248 283h187L612 532 856 0H682L543 311l-41 123-86-123L141 0"/><glyph glyph-name="x" unicode="x" horiz-adv-x="999" d="M-41-401L8-260q23-8 49-8 59 0 119 61.5T309 0L133 1024h164l100-664 11-196h10l78 198 340 662h163L516 111Q463 11 410.5-84.5T303-255q-55-75-114.5-120T66-420q-35 0-60.5 4T-41-401"/><glyph glyph-name="y" unicode="y" horiz-adv-x="903" d="M-4 0l27 141 575 654 113 88H182l31 141h690l-31-141-581-660-111-82h535L686 0"/><glyph glyph-name="z" unicode="z" horiz-adv-x="877" d="M154 412l30 139q152 0 191 174l106 496q20 96 78.5 155.5T711 1436h166l-31-144h-98q-53 0-83-27.5t-44-93.5L520 686q-18-90-69.5-137T344 492l-2-13q41-6 70.5-47T440 326q0-10-3-24.5t-12-65Q416 186 393.5 83T330-207q-2-12-4-22.5t-2-20.5q-2-78 86-78h96l-33-143H307q-72 0-110.5 40T160-317q0 29 8 59l102 487q8 37 9 66 4 66-30 91.5T154 412"/><glyph glyph-name="{" unicode="{" horiz-adv-x="377" d="M236-266v1700h141V-266"/><glyph glyph-name="|" unicode="|" horiz-adv-x="594" d="M-129-471l33 143H0q51 0 81 28t42 93l102 486q20 90 70.5 137T403 473l5 12q-45 6-75 47t-28 107q0 10 2 23.5t4 25.5l105 483q4 12 5 22.5t1 20.5q2 78-84 78h-94l28 144h166q72 0 112-39t36-115q0-29-8-59L475 735q-8-35-8-61-2-68 31.5-94.5T594 553l-33-139q-74 0-123-43t-69-131q0-2-5.5-24.5T351 158l-16-80-18-90q-23-109-51-244-20-96-79.5-155.5T35-471"/><glyph glyph-name="}" unicode="}" horiz-adv-x="1001" d="M94 739q88 68 160 94.5T385 860q57 0 106.5-17.5t94.5-39q45-21.5 88-38.5t90-17q39 0 80 16t88 57l69-125q-78-53-140-74.5T748 600q-55 0-101.5 17.5t-88.5 39q-42 21.5-84 39T383 713q-47 0-100.5-21.5T164 616"/><glyph glyph-name="¡" unicode="¡" horiz-adv-x="639" d="M287 1169l180 306h172l-10-43-252-263"/><glyph glyph-name="©" unicode="©" horiz-adv-x="930" d="M78 530l409 471 93-96-254-297-117-76 72-75 137-291-111-88m127 452l406 467 90-94-252-295-115-76 70-75 137-289-111-86"/><glyph glyph-name="«" unicode="«" horiz-adv-x="438" d="M201 606q0 55 32.5 87t85.5 32q53 0 86-31.5t33-87.5q0-53-32.5-86T319 487q-53 0-85.5 33T201 606"/><glyph glyph-name="Ç" unicode="Ç" horiz-adv-x="633" d="M129 520l33 139h471l-35-139"/><glyph glyph-name="È" unicode="È" horiz-adv-x="1126" d="M82 0l305 1434h739l-30-152H516L416 813h530l-31-151H385L276 152h590L834 0H244m247 1626q0 41 29 68.5t76 27.5q47 0 74.5-27.5T698 1626q0-41-27.5-67.5T596 1532q-47 0-76 26.5t-29 67.5m375 0q0 41 27.5 68.5T968 1722q47 0 76-27.5t29-68.5q0-41-28.5-67.5T968 1532q-47 0-74.5 26.5T866 1626"/><glyph glyph-name="Ê" unicode="Ê" horiz-adv-x="1599" d="M158 594q0 170 57 304t155.5 226.5Q469 1217 600 1266t279 49q147 0 278-49t229.5-141.5Q1485 1032 1542 898t57-304q0-170-57-304T1386.5 63.5Q1288-29 1157-78t-278-49q-164 0-297 49T354.5 63.5Q260 156 209 290t-51 304m143 0q0-141 45-251t123-183.5Q547 86 652.5 47T879 8q121 0 226 39t183 112.5q78 73.5 123 183.5t45 251q0 141-45 250.5T1288 1028q-78 74-183.5 113T879 1180q-121 0-226.5-39T469 1028q-78-74-123-183.5T301 594m234 0q0 186 93 287.5T874 983q37 0 67-4t55.5-11q25.5-7 50-17.5T1102 928l-53-125q-45 23-86 31t-70 8q-86 0-140.5-53.5T698 594q0-119 53.5-183.5T909 344q96 0 164 37l43-121q-47-27-105.5-41T874 205q-166 0-252.5 104.5T535 594"/><glyph glyph-name="Ñ" unicode="Ñ" horiz-adv-x="1245" d="M12 516l66 135h147q10 78 25 144H72l65 135h152q49 137 126 236.5t168 164q91 64.5 189 96t191 31.5q98 0 166.5-16.5T1245 1399l-71-125q-76 45-242 45-55 0-122-22.5T677.5 1227Q612 1180 553 1106T451 930h565l-64-135H403q-16-70-24-144h502l-64-135H369v-12q0-84 18.5-154.5t59-123Q487 174 555 144.5T721 115q66 0 130 18.5T967 180l28-123q-35-25-76.5-40t-87-24Q786-16 743-20.5T664-25q-111 0-195 38T328.5 118.5q-56.5 67.5-85 160T215 477v39"/><glyph glyph-name="Û" unicode="Û" horiz-adv-x="1169" d="M57 286l29 127h141l33 148H119l28 127h140l155 731q82 18 166 24.5t172 6.5q82 0 154-21.5t124-64.5q52-43 81.5-107.5T1169 1108q0-121-32.5-212.5t-91-156Q987 675 906 635.5T729 575q-41-8-88-10t-106-6H424l-31-146h332l-27-127H365L305 0H141l60 286m252 414h151q62 0 132.5 16.5t130 55.5Q926 811 966 877.5t40 166.5q0 129-58.5 195.5T756 1306q-54 0-104-3t-72-9"/><glyph glyph-name="á" unicode="á" horiz-adv-x="930" d="M78 174l252 295 114 78-71 88-140 289 117 73 223-448L168 82m260 90l254 297 115 78-72 90-141 291 118 73 228-452L520 78"/><glyph horiz-adv-x="649" d="M178 94q0 55 33 87t86 32q53 0 86-31.5T416 94q0-53-33-86t-86-33q-53 0-86 33t-33 86m117 268l41 361 149 711h164L500 723 389 362"/><glyph horiz-adv-x="624" d="M162 1038l84 396h151l-143-396m135 0l84 396h151l-143-396"/><glyph glyph-name="!" unicode="!" horiz-adv-x="1071" d="M131 461l29 131h164l63 268H233l29 131h156l78 324h139l-78-324h217l78 324h139l-78-324h158l-33-131H883l-64-268h150l-33-131H786l-79-342H567l80 342H430l-80-342H211l80 342m172 131h217l63 268H526"/><glyph glyph-name="&quot;" unicode="&quot;" horiz-adv-x="1108" d="M125 104l72 125q33-23 95-57.5T436 123l123 575q-45 33-89 70t-78 80q-34 43-55.5 97T315 1069q0 90 30 158.5t84 117q54 48.5 128 76t162 33.5l41 184h131l-39-182q88-8 150.5-30.5T1108 1380l-70-129q-35 16-90 34t-127 26L711 797q47-35 93-74t82-88q36-49 58.5-111.5T967 379q0-84-29-154.5t-84-123q-55-52.5-136-85T535-23q0-2-6.5-29.5T516-115q-8-39-18-90H367l39 187Q308-4 234 35t-109 69m358 990q0-78 41-132.5T625 860l96 453q-117-8-177.5-68.5T483 1094m52-975q123 8 193.5 74T799 365q0 92-45 154.5T645 635"/><glyph glyph-name="#" unicode="#" horiz-adv-x="1411" d="M123 1004q0 119 36 204.5t91 141q55 55.5 122.5 82T506 1458q117 0 177-63.5t60-180.5q0-111-30.5-194.5t-82.5-141q-52-57.5-123-87T358 762q-104 0-169.5 63.5T123 1004m57-949l1051 1405 102-80L282-25m-18 1045q0-66 30-102.5t89-36.5q43 0 83 22.5t70.5 64.5q30.5 42 48 102t17.5 136q0 72-31.5 102.5T481 1339q-43 0-83-25.5t-69.5-68.5q-29.5-43-47-101T264 1020m527-776q0 119 36 204.5t91 141q55 55.5 122.5 82T1174 698q117 0 177-63.5t60-180.5q0-111-30.5-194.5t-82.5-141q-52-57.5-123-87T1026 2Q922 2 856.5 65.5T791 244m141 16q0-66 30-102.5t89-36.5q43 0 83 22.5t70.5 64.5q30.5 42 48 102t17.5 136q0 72-31.5 102.5T1149 579q-43 0-83-25.5T996.5 485q-29.5-43-47-101T932 260"/><glyph glyph-name="$" unicode="$" horiz-adv-x="1389" d="M178 303q0 96 40 184t103.5 164Q385 727 465 787.5T625 889q-14 37-24.5 66.5t-18 59Q575 1044 572 1076t-3 73q0 55 20.5 110.5T653 1359q43 44 107.5 71.5T915 1458q72 0 116-19.5t68.5-48q24.5-28.5 33-63.5t8.5-65q0-117-89-216.5T809 862q20-59 48-121.5t60.5-124Q950 555 987 494.5t74-111.5q27 25 56.5 62.5t58 79.5q28.5 42 55 87t49.5 86l109-59q-18-35-51-83t-70-98q-37-50-74-96.5t-66-76.5q66-82 112-125t97-76L1219-31q-47 27-100.5 78T1014 166q-43-37-92.5-71T815 34.5Q758 8 691.5-8.5T549-25q-86 0-154.5 25t-117 69q-48.5 44-74 103T178 303m164 35q0-111 67.5-166T600 117q49 0 98.5 13t94.5 34.5q45 21.5 82.5 48T942 268q-43 59-83 129t-74.5 139.5Q750 606 722 670.5T676 784q-74-47-135.5-100T435 574.5q-44-56.5-68.5-116T342 338m381 815q0-31 2-55.5t7-46q5-21.5 12.5-44T764 954q117 70 175 133.5t58 141.5q0 41-23.5 69.5T893 1327q-47 0-79-14.5t-52.5-40q-20.5-25.5-29.5-57t-9-62.5"/><glyph glyph-name="%" unicode="%" horiz-adv-x="444" d="M209 1038l84 396h151l-143-396"/><glyph glyph-name="&amp;" unicode="&amp;" horiz-adv-x="764" d="M111 154q0 207 47 397t127 356q80 166 184 304.5T688 1458l76-72q-115-131-206-273T401.5 817.5Q336 664 303 501t-33-323q0-135 28-274.5T391-375l-94-71Q186-284 148.5-134T111 154"/><glyph glyph-name="'" unicode="'" horiz-adv-x="453" d="M-195-379Q-95-270-7.5-131t155 293.5Q215 317 254 482t39 319q0 201-25.5 338T178 1382l103 68q47-61 79.5-137t53-154q20.5-78 30-154.5T453 858q0-205-46.5-396.5t-125-358Q203-63 99.5-202.5T-117-451"/><glyph glyph-name="(" unicode="(" horiz-adv-x="698" d="M145 1133v114h103l129-24-92 90-56 94 101 57 51-86 37-114 43 116 49 82 98-53-51-88-96-98 139 24h98v-114h-92l-133 24 94-98 49-80-98-57-51 86-49 125-37-119-51-86-103 57 54 86 88 86-121-24"/><glyph glyph-name=")" unicode=")" horiz-adv-x="981" d="M113 618v148h360v371h148V766h360V618H621V248H473v370"/><glyph glyph-name="*" unicode="*" horiz-adv-x="276" d="M-43-225q78 29 125 90t57 121q-8-4-20-4-29 0-56.5 24.5T35 72q0 53 34.5 90T170 199q51 0 78.5-35T276 84q0-63-21.5-123.5t-60-112Q156-203 103.5-243T-10-305"/><glyph glyph-name="+" unicode="+" horiz-adv-x="633" d="M129 520l33 139h471l-35-139"/><glyph glyph-name="," unicode="," horiz-adv-x="309" d="M72 94q0 55 32.5 87t85.5 32q53 0 86-31.5T309 94q0-53-32.5-86T190-25q-53 0-85.5 33T72 94"/><glyph glyph-name="-" unicode="-" horiz-adv-x="993" d="M-190-229L877 1458l116-63L-74-295"/><glyph glyph-name="." unicode="." horiz-adv-x="1094" d="M117 449q0 215 46 400t127 320.5q81 135.5 193.5 212T731 1458q174 0 268.5-112.5T1094 987q0-184-40-364.5T937 298Q860 154 747.5 64.5T487-25q-104 0-174.5 40T198 121.5q-44 66.5-62.5 152T117 449m159 8q0-104 20.5-171T351 183q34-36 76-50t85-14q92 0 170 72.5T815 385q55 121 87 272.5T934 967q0 176-49 262t-178 86q-82 0-159-63.5T410.5 1073Q350 958 313 800.5T276 457"/><glyph glyph-name="/" unicode="/" horiz-adv-x="862" d="M129 0l31 152h272l213 991 45 121-100-97-246-161-57 104 506 348h69L584 152h266L819 0"/><glyph glyph-name="0" unicode="0" horiz-adv-x="1055" d="M66 0l12 59q51 51 132 128t172 170.5Q473 451 565 553t167 205.5q75 103.5 119 200t44 178.5q0 39-8 71.5t-26.5 56q-18.5 23.5-53.5 37t-90 13.5q-74 0-143.5-30T426 1204l-43 123q98 72 188.5 101.5T768 1458q143 0 215-81t72-208q0-106-59.5-231T845 687q-91-126-199.5-245.5T436 225l-112-88v-8l127 23h419L842 0"/><glyph glyph-name="1" unicode="1" horiz-adv-x="1085" d="M88 27l74 145q41-23 98-38t133-15q96 0 169 30.5t119 81q46 50.5 70.5 115T776 477q0 106-53 163.5T524 698H377l12 60 373 454 106 91-129-21H360l29 152h696l-12-60-411-495-80-60v-4l67 14q57 0 108.5-19t91.5-59q40-40 63.5-101.5T936 502q0-111-36-206T793.5 129Q723 57 616.5 16T369-25q-88 0-159 14.5T88 27"/><glyph glyph-name="2" unicode="2" horiz-adv-x="1081" d="M70 440l14 68 850 948h104L852 580h229l-28-140H821L729 0H580l92 440M283 565l137 15h282l97 450 55 168h-8l-96-139-355-391"/><glyph glyph-name="3" unicode="3" horiz-adv-x="1090" d="M96 23l70 141q43-18 91-31.5T381 119q92 0 164.5 29.5t124 82q51.5 52.5 78 122T772 506q2 117-62.5 174T498 737l-164-10 149 707h607l-33-152H596l-88-410h14.5q12.5 0 28.5 2 18 0 39 3 96 0 161.5-30T857 770q40-47 57.5-109.5T932 535q0-158-51.5-265.5t-134-173Q664 31 560.5 3T350-25q-82 0-144.5 12.5T96 23"/><glyph glyph-name="4" unicode="4" horiz-adv-x="1018" d="M129 418q0 205 78 387t203 320.5Q535 1264 692.5 1352t317.5 106l8-131q-113-18-223.5-74.5T591 1113q-93-83-165-186.5T317 711q20 27 55.5 52t79.5 45.5q44 20.5 94 32T649 852q147 0 243.5-89T989 500q0-115-33.5-210t-98-166Q793 53 701.5 14T498-25q-68 0-133.5 24T247 75q-52 52-85 136t-33 207m154 16q0-68 13-126t42-101q29-43 72-67.5T514 115q82 0 141.5 31.5t97.5 83Q791 281 808 346t21 133q-4 102-55 168t-168 66q-47 0-93-13.5t-88-36q-42-22.5-76-52T295 549q-4-27-8-58.5t-4-56.5"/><glyph glyph-name="5" unicode="5" horiz-adv-x="1171" d="M141 0l742 1200 106 100-119-18H328l30 152h813l-10-56L309 0"/><glyph glyph-name="6" unicode="6" horiz-adv-x="1073" d="M125 299q0 141 93 261t263 192q-33 27-62.5 54.5t-53 63Q342 905 327.5 952T313 1067q0 94 36 167t96.5 123q60.5 50 140.5 75.5t166 25.5q68 0 127-19.5t102-57.5q43-38 67.5-94t24.5-130q0-61-23.5-121.5t-65.5-114Q942 868 885.5 822T762 739q37-31 70.5-64.5t58-73.5q24.5-40 40-88T946 406q0-86-27.5-164t-86-137.5Q774 45 683 10T463-25q-84 0-146.5 26T211 70q-43 43-64.5 102T125 299m160 18q0-37 10-73.5t33.5-64q23.5-27.5 65.5-44T498 119q57 0 109 15.5t93 48q41 32.5 63.5 81T786 375q0 57-15 101t-39.5 80Q707 592 668 622.5T584 682q-135-63-217-155.5T285 317m188 758q0-98 49-158.5T657 803q51 33 98.5 72.5t81 81.5q33.5 42 55 85t21.5 86q0 96-47 141.5T733 1315q-53 0-100-15.5t-82-46q-35-30.5-56.5-76T473 1075"/><glyph glyph-name="7" unicode="7" horiz-adv-x="1077" d="M190 106q129 29 239 84.5t198 132q88 76.5 151.5 172T879 698q-66-57-144-86.5T539 582q-55 0-111.5 20.5t-104 65.5q-47.5 45-77 116.5T217 956q0 119 37 212.5t103.5 158q66.5 64.5 155.5 98t194 33.5q76 0 143.5-27.5t118.5-83q51-55.5 79.5-136.5t28.5-187q0-236-83-423T782 279.5Q653 145 497.5 67.5T199-25M377 975q0-74 22.5-123t54-78q31.5-29 69.5-41t75-12q94 0 179 37t130 90q2 12 5 34.5t6.5 45q3.5 22.5 4.5 44t1 32.5q0 143-61.5 229T680 1319q-59 0-113.5-20.5T471 1235q-41-43-67.5-107.5T377 975"/><glyph glyph-name="8" unicode="8" horiz-adv-x="592" d="M182 94q0 55 33 87t86 32q53 0 86-31.5T420 94q0-53-33-86t-86-33q-53 0-86 33t-33 86m172 826q0 55 33 86.5t86 31.5q53 0 86-31.5t33-86.5q0-53-33-86t-86-33q-53 0-86 33t-33 86"/><glyph glyph-name="9" unicode="9" horiz-adv-x="604" d="M111-225q78 29 125 90t57 121q-8-4-21-4-29 0-56.5 24.5T188 72q0 53 35 90t101 37q51 0 78.5-35T430 84q0-63-21.5-123.5t-60.5-112Q309-203 257-243t-114-62M367 920q0 55 32.5 86.5T485 1038q53 0 86-31.5t33-86.5q0-53-32.5-86T485 801q-53 0-85.5 33T367 920"/><glyph glyph-name=":" unicode=":" horiz-adv-x="975" d="M111 625v59l776 473 78-127-486-297-186-78 184-65 498-295-78-123"/><glyph glyph-name=";" unicode=";" horiz-adv-x="981" d="M113 449v147h868V449M113 788v148h868V788"/><glyph glyph-name="&lt;" unicode="&lt;" horiz-adv-x="979" d="M115 1032l78 125 786-452v-60L203 172l-78 125 485 297 187 78-185 65"/><glyph glyph-name="=" unicode="=" horiz-adv-x="907" d="M164 94q0 55 32.5 87t86.5 32q53 0 85.5-31.5T401 94q0-53-32.5-86T283-25q-53 0-86 33t-33 86m80 1262q41 25 78.5 43t80.5 31.5q43 13.5 93.5 20.5t115.5 7q152 0 223.5-69.5T907 1208q0-111-34.5-191.5t-88-144q-53.5-63.5-118-118T543.5 643Q485 586 440 519.5T381 362H252q10 102 51 179t95.5 139.5Q453 743 514 797.5t111.5 109q50.5 54.5 84 116.5t33.5 142q0 78-42 120t-146 42q-72 0-142.5-27.5T283 1237"/><glyph glyph-name="&gt;" unicode="&gt;" horiz-adv-x="2060" d="M238 483q0 223 76.5 403.5T522 1194q131 127 305 195.5t369 68.5q184 0 342-54t274.5-155.5q116.5-101.5 182-248T2060 668q0-131-45-251t-121.5-210q-76.5-90-179-144.5T1497 8q-86 0-136 37t-50 137q0 18 2 40t6 46h-8q-31-47-70-93t-87-83q-48-37-102.5-60.5T938 8q-49 0-93 21.5T768 92q-33 41-52.5 97.5T696 317q0 131 43 258t116 225.5q73 98.5 170 159t206 60.5q74 0 120-22.5t89-55.5l67 64h70l-104-588q-10-53-15.5-95t-5.5-75q0-51 17.5-76t62.5-25q70 0 137.5 37T1791 288.5q54 67.5 88 164t34 215.5q0 158-53.5 278.5T1710 1150q-96 83-229 126t-293 43q-168 0-313.5-61.5t-254-170Q512 979 449.5 827.5T387 498q0-182 56.5-325.5t161-242Q709-168 854-219t324-51q59 0 135 14t137 43l41-131q-90-39-169-52.5T1153-410q-190 0-356 57.5t-291 170Q381-70 309.5 97T238 483m616-139q0-80 33-138.5t119-58.5q41 0 85 29t87 75q43 46 82.5 103.5T1331 471l62 334q-35 41-71 58.5t-89 17.5q-80 0-149.5-49.5t-120-126q-50.5-76.5-80-173T854 344"/><glyph glyph-name="?" unicode="?" horiz-adv-x="1042" d="M-68 0l828 1456h76L1042 0H885l-58 397H328L106 0m302 545h403l-59 436-4 217h-3l-92-221"/><glyph glyph-name="@" unicode="@" horiz-adv-x="1149" d="M82 10l299 1411q78 12 175 20.5t210 8.5q76 0 145.5-19.5T1033 1372q52-39 84-100.5t32-143.5q0-80-24.5-145T1055 868.5q-45-49.5-105.5-79T819 750v-9q45-10 86-33.5t72-58.5q31-35 49-81t18-101q0-143-56-236.5T845 82Q758 27 650.5 5.5T438-16h-79q-46 0-117 4Q119 0 82 10m190 135q12-4 38-6t55.5-4q29.5-2 61-3t56.5-1q72 0 141.5 17.5t125 54.5q55.5 37 89 96T872 444q0 63-30.5 105.5t-79.5 67Q713 641 650.5 650T524 659H381m29 140h108q35 0 82 1t80 5q47 10 100.5 28.5T878 886q44 34 71.5 86t27.5 130q0 57-17.5 95t-51.5 61.5q-34 23.5-81 34T723 1303q-66 0-123-3.5t-86-9.5"/><glyph glyph-name="A" unicode="A" horiz-adv-x="1231" d="M145 561q0 231 68 400t178.5 280Q502 1352 640 1405t280 53q117 0 190.5-16.5T1231 1403l-74-150q-41 23-107.5 38.5T897 1307q-115 0-220.5-50.5t-185-144.5q-79.5-94-127-229T317 580q0-98 26-181.5T417 255q48-60 118.5-94T696 127q96 0 160 21.5T971 199l12-140Q913 12 835.5-6.5T655-25q-121 0-215 44T280.5 142Q215 221 180 327.5T145 561"/><glyph glyph-name="B" unicode="B" horiz-adv-x="1270" d="M82-2l305 1436q78 10 176.5 13t177.5 3q121 0 219.5-32t167-97.5Q1196 1255 1233 1155t37-235q0-90-16.5-196T1199 515q-38-103-101.5-199.5T940 144.5Q846 70 719 26T426-18q-31 0-81 1t-99 3Q103-6 82-2m194 143q8-2 33-3t52.5-2q27.5-1 53-2t36.5-1q178 0 300.5 74T951 393.5Q1028 506 1063 641t35 256q0 92-20.5 166t-64.5 126q-44 52-114 80.5T729 1298q-25 0-55.5-1t-59-2q-28.5-1-55.5-3t-41-4"/><glyph glyph-name="C" unicode="C" horiz-adv-x="1126" d="M82 0l305 1434h739l-30-152H516L416 813h530l-31-151H385L276 152h590L834 0H244"/><glyph glyph-name="D" unicode="D" horiz-adv-x="1126" d="M82 0l305 1434h739l-30-152H516L412 793h540l-30-152H381L246 0"/><glyph glyph-name="E" unicode="E" horiz-adv-x="1251" d="M145 557q0 252 74 424t189.5 277.5Q524 1364 663.5 1411t270.5 47q117 0 193.5-15.5T1251 1405l-71-150q-41 23-110 37.5T915 1307q-119 0-226-46.5T499 1122q-83-92-132.5-228T317 578q0-92 22.5-174t69-143.5Q455 199 523.5 163T686 127q66 0 113 13.5t94 37.5l84 400-229 40 20 97h377L1012 84Q867-25 651-25q-102 0-193 37T297 122q-70 73-111 181.5T145 557"/><glyph glyph-name="F" unicode="F" horiz-adv-x="1362" d="M82 0l303 1434h164L418 809h649l131 625h164L1059 0H895l139 657H383L246 0"/><glyph glyph-name="G" unicode="G" horiz-adv-x="594" d="M127 0l303 1434h164L291 0"/><glyph glyph-name="H" unicode="H" horiz-adv-x="618" d="M-125 12l62 146q39-27 110-27 43 0 71.5 15.5t49 45q20.5 29.5 34 70.5t23.5 94l230 1078h163L381 315q-18-82-44-144T271 66q-40-43-98-64.5T33-20q-16 0-38 2t-44.5 6Q-72-8-92.5-2T-125 12"/><glyph glyph-name="I" unicode="I" horiz-adv-x="1278" d="M82 0l303 1434h164L406 766l81 29 588 639h203L692 811l-94-63 80-82L1036 0H850L489 664H385L246 0"/><glyph glyph-name="J" unicode="J" horiz-adv-x="920" d="M82 0l303 1434h164L276 152h644L889 0H242"/><glyph glyph-name="K" unicode="K" horiz-adv-x="1597" d="M82 0l305 1434h113l266-734 31-159h2l94 164 559 729h145L1292 0h-164l205 963 64 215h-8l-115-197-492-647h-49L498 981l-31 197h-8l-17-213L238 0"/><glyph glyph-name="L" unicode="L" horiz-adv-x="1368" d="M82 0l309 1456h82l447-958 67-201h8l19 201 200 936h154L1059-23h-76L535 938l-70 211h-6l-25-211L236 0"/><glyph glyph-name="M" unicode="M" horiz-adv-x="1325" d="M145 524q0 188 51.5 358.5T343 1181q95 128 229.5 202.5T870 1458q98 0 182.5-29.5t144.5-94q60-64.5 94-167t34-249.5q0-193-51-364t-143.5-300Q1038 125 910 50T629-25q-242 0-363 140.5T145 524m172 2q0-193 80-298t236-105q115 0 210 63.5t164.5 172Q1077 467 1115 610.5t38 302.5q0 119-26.5 197t-70.5 122q-44 44-100.5 61.5T842 1311q-117 0-213.5-64.5t-165-173Q395 965 356 822.5T317 526"/><glyph glyph-name="N" unicode="N" horiz-adv-x="1159" d="M82 0l301 1419q78 18 164 24.5t170 6.5q94 0 175-20.5t140.5-65.5q59.5-45 93-115.5T1159 1079q0-156-56-260T955.5 652.5q-91.5-62.5-206-89T518 537h-31.5q-21.5 0-46 1t-47 3q-22.5 2-33.5 4L246 0m147 694q8-4 27.5-5t41-3q21.5-2 42-2H535q88 0 169.5 18.5t144 63.5Q911 811 949 882.5t38 180.5q0 74-24.5 121t-66.5 72.5q-42 25.5-97.5 36T682 1303q-47 0-91-3.5t-73-9.5"/><glyph glyph-name="O" unicode="O" horiz-adv-x="1329" d="M145 524q0 188 51.5 358.5T343 1181q95 128 229.5 202.5T870 1458q98 0 182.5-29.5t144.5-94q60-64.5 94-167t34-249.5q0-193-51-364t-143.5-300Q1038 125 910 50T629-25q-242 0-363 140.5T145 524m172 2q0-193 80-298t236-105q115 0 210 63.5t164.5 172Q1077 467 1115 610.5t38 302.5q0 119-26.5 197t-70.5 122q-44 44-100.5 61.5T842 1311q-117 0-213.5-64.5t-165-173Q395 965 356 822.5T317 526m43-776l31 150q55 12 109 12 82 0 157.5-21.5t154.5-46q79-24.5 163-46t180-21.5q84 0 174 20l-33-147q-49-14-95-19.5t-91-5.5q-98 0-186 21.5t-169 46q-81 24.5-156 46T453-240q-23 0-46.5-2t-46.5-8"/><glyph glyph-name="P" unicode="P" horiz-adv-x="1114" d="M82 0l301 1419q86 16 166 23.5t160 7.5q78 0 151.5-19.5t130-61.5q56.5-42 90-109.5T1114 1096q0-180-105.5-300T702 641l74-74L997 0H819L573 618l-192 31L246 0m160 762h141q74 0 144.5 14.5t126.5 51q56 36.5 90 100t34 159.5q0 37-14.5 75t-43 70q-28.5 32-76 51.5T698 1303q-49 0-98-3.5t-82-9.5"/><glyph glyph-name="Q" unicode="Q" horiz-adv-x="1149" d="M35 51l84 150q47-27 128-52.5T438 123q63 0 127 11t115 40q51 29 83 76t32 119q0 74-38 125t-95.5 93q-57.5 42-124 81t-124 90q-57.5 51-95 120.5T281 1051q0 109 39.5 186.5T429 1364q69 49 162 71.5t197 22.5q119 0 213.5-18.5T1149 1393l-82-146q-41 23-122 43.5T758 1311q-135 0-220-61.5T453 1071q0-76 37.5-128t95-94q57.5-42 124-81t124-89Q891 629 929 559t38-170q0-199-143.5-306.5T412-25Q275-25 179.5-1T35 51"/><glyph glyph-name="R" unicode="R" horiz-adv-x="1264" d="M225 1282l31 152h1008l-31-152H809L539 0H375l270 1282"/><glyph glyph-name="S" unicode="S" horiz-adv-x="1329" d="M178 338q0 84 23 190l190 906h164L365 526q-23-90-23-164 0-129 67.5-179T610 133q80 0 140.5 22.5T855 225q44 47 73.5 121T981 524l193 910h155l-201-957q-29-131-71.5-225t-107-153.5Q885 39 795 10.5T586-18Q473-18 395 7.5T269 79q-48 46-69.5 112.5T178 338"/><glyph glyph-name="T" unicode="T" horiz-adv-x="1333" d="M213 1434h168l137-981V233h4l92 224 543 977h176L510-23h-76"/><glyph glyph-name="U" unicode="U" horiz-adv-x="1817" d="M233 1434h168l37-957-18-237h2l80 241 481 953h88l76-957-19-237h2l82 241 437 953h168L1128-23h-90l-77 961 12 217h-8l-82-219L403-23h-90"/><glyph glyph-name="V" unicode="V" horiz-adv-x="1364" d="M-14 0l606 733-266 701h178l176-486 25-117 69 117 391 486h199L793 739 1083 0H905L709 514l-29 123-78-123L184 0"/><glyph glyph-name="W" unicode="W" horiz-adv-x="1280" d="M221 1434h178l183-627 6-125h2l61 129 445 623h184L657 571 537 0H373l121 569"/><glyph glyph-name="X" unicode="X" horiz-adv-x="1217" d="M-2 0l31 154 891 1046 100 82H270l31 152h916l-31-154L289 227l-96-75h751L913 0"/><glyph glyph-name="Y" unicode="Y" horiz-adv-x="791" d="M33-471l403 1905h355l-31-144H561L217-328h201l-31-143H186"/><glyph glyph-name="Z" unicode="Z" horiz-adv-x="920" d="M84 1401l141 57L920-227l-136-60"/><glyph glyph-name="[" unicode="[" horiz-adv-x="627" d="M-129-471l31 143H98l342 1618H242l30 144h355L223-471H70"/><glyph glyph-name="\" unicode="\" horiz-adv-x="995" d="M209 891l381 565h59l346-565H825l-161 276-48 142-63-144-191-274"/><glyph glyph-name="]" unicode="]" horiz-adv-x="745" d="M-90-281h835v-139H-90"/><glyph glyph-name="^" unicode="^" horiz-adv-x="608" d="M354 1432l8 43h187l59-306h-88"/><glyph glyph-name="_" unicode="_" horiz-adv-x="977" d="M92 293q0 131 34 266t104.5 243.5Q301 911 412.5 981t269.5 70q57 0 140-13.5t155-36.5L848 403q-16-76-22.5-153.5T819 104V45.5Q819 18 823-4H709l-29 178h-8q-25-35-61-70.5T532 39q-43-29-92-46.5T336-25Q92-25 92 293m164 0q0-78 30.5-132.5T383 106q49 0 94 24t85 58.5q40 34.5 71 74.5t49 75l115 553q-61 29-156 29-94 0-166-55.5T354 720q-49-89-73.5-201.5T256 293"/><glyph glyph-name="`" unicode="`" horiz-adv-x="1001" d="M88 63l291 1371h153L408 848h8q29 37 65.5 72.5T563 985q45 29 96.5 46.5T770 1049q121 0 176-85t55-214q0-184-51-326.5t-135-241Q731 84 623.5 33T403-18Q292-18 209.5 6.5T88 63m172 93q61-43 174-43 66 0 137.5 40t131 116.5Q762 346 800 457.5T838 713q0 104-32 154.5T721 918q-51 0-104.5-26T515 825q-48-41-88-91t-65-97"/><glyph glyph-name="a" unicode="a" horiz-adv-x="887" d="M102 303q0 174 47.5 312.5t126 234.5q78.5 96 181 147.5T668 1049q78 0 128-14.5t91-33.5l-58-127q-35 20-86 32t-110 12q-70 0-136.5-47.5T379 746.5q-51-76.5-82-176T266 367q0-133 55.5-197T471 106q61 0 129 28t109 56l39-102q-31-27-71-47.5T595 6q-42-14-83-22.5T434-25Q334-25 269.5 7T168 88q-37 49-51.5 106.5T102 303"/><glyph glyph-name="b" unicode="b" horiz-adv-x="1087" d="M102 322q0 121 35 248.5t102.5 232q67.5 104.5 169 172T643 1042q37 0 63.5-2t50-6q23.5-4 44-11t43.5-15l90 426h153L858 352q-16-80-24.5-149.5T825 74q0-23 1-41.5T829-4H727l-29 178h-8q-25-35-61.5-70.5T547 39q-45-29-95.5-46.5T348-25q-113 0-179.5 83T102 322m164-11q0-84 33-144.5T406 106q43 0 88 24t84.5 58.5Q618 223 650 263t50 75l115 532q-35 23-79 32t-115 9q-82 0-147.5-50t-112-134q-46.5-84-71-192.5T266 311"/><glyph glyph-name="c" unicode="c" horiz-adv-x="932" d="M102 332q0 168 47.5 301t124 225q76.5 92 174 141.5T647 1049q74 0 128-20.5t89-54.5q35-34 51.5-78t16.5-93q0-145-141.5-228T379 492q-25 0-51.5 1t-55.5 3q-8-39-12-74t-4-62q0-113 51-183.5T467 106q90 0 165 30t116 63l49-99Q725 39 627.5 7T432-25q-164 0-247 94.5T102 332m199 278q78 0 162 4t152.5 21.5Q684 653 729 691t45 106q0 20-7 41.5t-23.5 39q-16.5 17.5-46 29T623 918q-113 0-196-77T301 610"/><glyph glyph-name="d" unicode="d" horiz-adv-x="881" d="M-233-385l45 115q41-14 74.5-19.5T-31-295q78 0 117 75t66 236l143 877H137l27 131h149l27 137q14 76 34.5 131.5t54.5 92q34 36.5 84 55t122 18.5q68 0 131-13t115-36l-45-121q-100 39-191 39-76 0-110.5-52T481 1108l-14-84h207l-25-131H449L285-70q-12-76-34-140t-56.5-112.5q-34.5-48.5-88-76T-23-426q-61 0-113 9t-97 32"/><glyph glyph-name="e" unicode="e" horiz-adv-x="1006" d="M10-342l68 115q16-8 39.5-21.5t57.5-26q34-12.5 82-20.5t114-8q102 0 171.5 73.5T647 2l37 172h-8q-29-39-62.5-73.5T539 38q-41-28-89.5-44.5T344-23q-111 0-178.5 80T98 285q0 137 38 272t113 242.5q75 107.5 184.5 175T686 1042q111 0 186.5-18t133.5-45L788-47q-43-201-148-294t-280-93q-133 0-219 33.5T10-342m252 653q0-94 38-148t101-54q51 0 101.5 26.5T595 204q42 42 76 91t56 92l104 494q-33 18-79.5 24t-96.5 6q-84 0-155.5-49T376 730q-52-83-83-191.5T262 311"/><glyph glyph-name="f" unicode="f" horiz-adv-x="1010" d="M74 0l303 1434h153L403 848h9q27 33 64.5 67.5T563 980q49 30 106.5 49.5T795 1049q100 0 157.5-48.5T1010 825q0-86-27-207L852 0H698l123 584q12 61 20.5 109t8.5 85q0 76-31 108t-96 32q-53 0-108.5-28T508 819q-51-43-91-96t-61-102L227 0"/><glyph glyph-name="g" unicode="g" horiz-adv-x="584" d="M111 0l217 1024h153L264 0m96 1337q0 47 32 80t79 33q47 0 80-33t33-80q0-47-33-78.5t-80-31.5q-47 0-79 31.5t-32 78.5"/><glyph glyph-name="h" unicode="h" horiz-adv-x="559" d="M-197-422l31 133q61 0 101 17.5T3-217q28 37 47.5 92T86 6l217 1018h154L227-55q-41-190-127-280.5T-133-426q-16 0-31.5 1t-32.5 3m533 1759q0 47 31.5 80t78.5 33q47 0 80-33t33-80q0-47-32.5-78.5T446 1227q-47 0-78.5 31.5T336 1337"/><glyph glyph-name="i" unicode="i" horiz-adv-x="989" d="M74 0l303 1434h153L344 561l88 23 369 440h188L625 608l-97-67 78-80L836 0H666L434 461H324L227 0"/><glyph glyph-name="j" unicode="j" horiz-adv-x="522" d="M102 135q0 41 13 101l254 1198h153L272 244q-6-35-6-58 0-39 13.5-56t35.5-17q41 0 69 5t67 19V20q-18-10-43-17T357.5-8q-25.5-4-51-7T260-18q-72 0-115 32.5T102 135"/><glyph glyph-name="k" unicode="k" horiz-adv-x="1489" d="M74 0l217 1024h108l-12-176h8q33 33 71 68.5t84 64.5q46 29 100.5 48.5T770 1049q92 0 124-57.5T926 831q31 39 71.5 78t89 70q48.5 31 101.5 50.5t106 19.5q94 0 144.5-44t50.5-163q0-86-31-228L1329 0h-153l129 616q12 59 19 106.5t7 82.5q0 55-22.5 84t-75.5 29q-43 0-91-28t-93-69q-45-41-81-88t-57-88L778 0H625l123 580q16 72 24 127t8 96q0 55-20.5 85T690 918q-51 0-100-27t-92-67q-43-40-79-85t-57-82L227 0"/><glyph glyph-name="l" unicode="l" horiz-adv-x="995" d="M74 0l217 1024h106l-8-176h8q27 33 64 68.5t83 64.5q46 29 103.5 48.5T774 1049q102 0 161.5-49.5T995 827q0-61-18-147L831 0H678l137 647q8 37 14.5 73t6.5 64q0 59-28 96.5T705 918q-53 0-104.5-25T504 830.5q-45-37.5-81-84T362 655L227 0"/><glyph glyph-name="m" unicode="m" horiz-adv-x="954" d="M102 319q0 162 42 296.5T260 846q74 96 171 149.5t208 53.5q86 0 146.5-28t98.5-76q38-48 54-110.5T954 705q0-154-40-287T803.5 186.5Q733 88 639 31.5T434-25q-92 0-154.5 30T177 84q-40 49-57.5 110.5T102 319m164 37q0-121 45-185.5T455 106q68 0 128 48.5T689 285q46 82 74 187.5T791 692q0 104-38 165t-145 61q-68 0-129-46.5t-109-124q-48-77.5-76-179T266 356"/><glyph glyph-name="n" unicode="n" horiz-adv-x="987" d="M-10-410l305 1434h106l-10-176h8q29 37 65 72.5t79 64.5q43 29 94 46.5t111 17.5q49 0 92-15.5t75.5-51.5q32.5-36 52-95.5T987 741q0-180-49-322.5T809 178Q729 80 629.5 27.5T432-25q-72 0-126 13.5T233 16l-90-426m121 564q35-27 72-37.5t80-10.5q80 0 152.5 44.5t130 126Q756 358 789.5 473T823 729q0 82-33.5 135.5T690 918q-55 0-105-29t-92-71q-42-42-75-90t-53-89"/><glyph glyph-name="o" unicode="o" horiz-adv-x="991" d="M94 289q0 137 45 272t125 241.5q80 106.5 190.5 173T698 1042q43 0 87-6t83-15q39-9 72-20.5t51-23.5L696-410H543l125 582h-9q-25-33-56.5-67.5t-71-63.5q-39.5-29-89-47.5T338-25q-66 0-113 24t-75.5 65.5q-28.5 41.5-42 99T94 289m164 14q0-98 32-147.5t91-49.5q51 0 103.5 31t97.5 77q45 46 79.5 98.5T717 408l102 473q-33 18-79 24t-81 6q-80 0-152.5-51T379 724q-55-85-88-194.5T258 303"/><glyph glyph-name="p" unicode="p" horiz-adv-x="782" d="M74 0l217 1024h106V848h9q25 39 53 72.5t63 60.5q35 27 76 42t90 15q45 0 94-14l-41-135q-18 4-37.5 6t-35.5 2q-104 0-180-65.5T369 672L227 0"/><glyph glyph-name="q" unicode="q" horiz-adv-x="803" d="M6 41l57 129q41-27 108-45.5T309 106q100 0 160.5 44.5T530 289q0 53-26.5 90T436 445.5q-41 29.5-88 58T260 568q-41 36-67.5 84T166 772q0 57 27.5 107.5T269 968q48 38 115 59.5t144 21.5q109 0 168.5-14.5T803 993l-51-123q-82 47-224 48-86 0-142-36t-56-110q0-43 26.5-74.5T424 637q41-29 88-58.5t88-67.5q41-38 67.5-89T694 301q0-160-107.5-243T299-25q-92 0-169 18.5T6 41"/><glyph glyph-name="r" unicode="r" horiz-adv-x="719" d="M115 893l30 131h152l43 203 164 47-53-250h268l-31-131H422L293 274q-4-25-7-45t-3-36q0-49 22.5-68t67.5-19q49 0 90 12.5t82 37.5V31Q502 6 434.5-9.5T305-25q-186 0-186 170 0 35 10 86l139 662"/><glyph glyph-name="s" unicode="s" horiz-adv-x="1018" d="M123 197q0 72 20 161l140 666h153L293 342q-12-55-12-102 0-57 22.5-95.5T385 106q49 0 99.5 25t96.5 63.5q46 38.5 83.5 86T727 373l137 651h154L889 416q-8-35-16.5-85T857 225.5Q850 170 846 118t-4-91V0H721v195h-8q-31-41-71-80t-88-70Q506 14 450.5-5.5T334-25q-45 0-83 10.5t-66.5 36Q156 47 139.5 89T123 197"/><glyph glyph-name="t" unicode="t" horiz-adv-x="1026" d="M123 1024h164l106-600 19-195h4l88 199 346 596h176L387-23h-65"/><glyph glyph-name="u" unicode="u" horiz-adv-x="1518" d="M117 1024h155l64-596-4-199h8l82 203 338 592h114l97-598 8-197h2l80 201 301 594h156L967-23h-78L780 653l-2 168h-4l-76-170L309-23h-73"/><glyph glyph-name="v" unicode="v" horiz-adv-x="1047" d="M-45 0l461 524-219 500h174l121-283 36-116 84 116 248 283h187L612 532 856 0H682L543 311l-41 123-86-123L141 0"/><glyph glyph-name="w" unicode="w" horiz-adv-x="999" d="M-41-401L8-260q23-8 49-8 59 0 119 61.5T309 0L133 1024h164l100-664 11-196h10l78 198 340 662h163L516 111Q463 11 410.5-84.5T303-255q-55-75-114.5-120T66-420q-35 0-60.5 4T-41-401"/><glyph glyph-name="x" unicode="x" horiz-adv-x="903" d="M-4 0l27 141 575 654 113 88H182l31 141h690l-31-141-581-660-111-82h535L686 0"/><glyph glyph-name="y" unicode="y" horiz-adv-x="877" d="M154 412l30 139q152 0 191 174l106 496q20 96 78.5 155.5T711 1436h166l-31-144h-98q-53 0-83-27.5t-44-93.5L520 686q-18-90-69.5-137T344 492l-2-13q41-6 70.5-47T440 326q0-10-3-24.5t-12-65Q416 186 393.5 83T330-207q-2-12-4-22.5t-2-20.5q-2-78 86-78h96l-33-143H307q-72 0-110.5 40T160-317q0 29 8 59l102 487q8 37 9 66 4 66-30 91.5T154 412"/><glyph glyph-name="z" unicode="z" horiz-adv-x="377" d="M236-266v1700h141V-266"/><glyph glyph-name="{" unicode="{" horiz-adv-x="594" d="M-129-471l33 143H0q51 0 81 28t42 93l102 486q20 90 70.5 137T403 473l5 12q-45 6-75 47t-28 107q0 10 2 23.5t4 25.5l105 483q4 12 5 22.5t1 20.5q2 78-84 78h-94l28 144h166q72 0 112-39t36-115q0-29-8-59L475 735q-8-35-8-61-2-68 31.5-94.5T594 553l-33-139q-74 0-123-43t-69-131q0-2-5.5-24.5T351 158l-16-80-18-90q-23-109-51-244-20-96-79.5-155.5T35-471"/><glyph glyph-name="|" unicode="|" horiz-adv-x="1001" d="M94 739q88 68 160 94.5T385 860q57 0 106.5-17.5t94.5-39q45-21.5 88-38.5t90-17q39 0 80 16t88 57l69-125q-78-53-140-74.5T748 600q-55 0-101.5 17.5t-88.5 39q-42 21.5-84 39T383 713q-47 0-100.5-21.5T164 616"/><glyph glyph-name="~" unicode="~" horiz-adv-x="1599" d="M158 594q0 170 57 304t155.5 226.5Q469 1217 600 1266t279 49q147 0 278-49t229.5-141.5Q1485 1032 1542 898t57-304q0-170-57-304T1386.5 63.5Q1288-29 1157-78t-278-49q-164 0-297 49T354.5 63.5Q260 156 209 290t-51 304m143 0q0-141 45-251t123-183.5Q547 86 652.5 47T879 8q121 0 226 39t183 112.5q78 73.5 123 183.5t45 251q0 141-45 250.5T1288 1028q-78 74-183.5 113T879 1180q-121 0-226.5-39T469 1028q-78-74-123-183.5T301 594m234 0q0 186 93 287.5T874 983q37 0 67-4t55.5-11q25.5-7 50-17.5T1102 928l-53-125q-45 23-86 31t-70 8q-86 0-140.5-53.5T698 594q0-119 53.5-183.5T909 344q96 0 164 37l43-121q-47-27-105.5-41T874 205q-166 0-252.5 104.5T535 594"/><glyph horiz-adv-x="930" d="M78 530l409 471 93-96-254-297-117-76 72-75 137-291-111-88m127 452l406 467 90-94-252-295-115-76 70-75 137-289-111-86"/><glyph glyph-name="©" unicode="©" horiz-adv-x="633" d="M129 520l33 139h471l-35-139"/><glyph glyph-name="«" unicode="«" horiz-adv-x="866" d="M289 1169q0 63 22.5 116.5T373 1377q39 38 92 59.5t113 21.5q59 0 112-19.5t92-57.5q39-38 61.5-91t22.5-121q0-68-22.5-121T782 957.5q-39-37.5-92-57T578 881q-59 0-112.5 19.5t-92.5 57q-39 37.5-61.5 90.5T289 1169m131 0q0-78 47-121.5t111-43.5q63 0 110 44t47 121q0 78-47 122t-110 44q-63 0-110.5-44T420 1169"/><glyph glyph-name="­" unicode="­" horiz-adv-x="639" d="M287 1169l180 306h172l-10-43-252-263"/><glyph glyph-name="°" unicode="°" horiz-adv-x="438" d="M201 606q0 55 32.5 87t85.5 32q53 0 86-31.5t33-87.5q0-53-32.5-86T319 487q-53 0-85.5 33T201 606"/><glyph glyph-name="´" unicode="´" horiz-adv-x="930" d="M78 174l252 295 114 78-71 88-140 289 117 73 223-448L168 82m260 90l254 297 115 78-72 90-141 291 118 73 228-452L520 78"/><glyph glyph-name="·" unicode="·" horiz-adv-x="1126" d="M82 0l305 1434h739l-30-152H516L416 813h530l-31-151H385L276 152h590L834 0H244m247 1626q0 41 29 68.5t76 27.5q47 0 74.5-27.5T698 1626q0-41-27.5-67.5T596 1532q-47 0-76 26.5t-29 67.5m375 0q0 41 27.5 68.5T968 1722q47 0 76-27.5t29-68.5q0-41-28.5-67.5T968 1532q-47 0-74.5 26.5T866 1626"/><glyph glyph-name="»" unicode="»" horiz-adv-x="1042" d="M-68 0l828 1456h76L1042 0H885l-58 397H328L106 0m302 545h403l-59 436-4 217h-3l-92-221"/><glyph glyph-name="Ё" unicode="Ё" horiz-adv-x="1120" d="M82 14l301 1420h737l-30-152H512l-90-430q35 6 84 12t96 6q203 0 310.5-93T1020 518q0-150-54.5-252T824 101.5q-87-62.5-196.5-90T408-16q-33 0-74 1t-94 5q-41 4-82 9T82 14m190 129q25-8 81.5-10t105.5-2q70 0 139.5 20.5T723 215q55 43 90 111.5T848 492q0 125-79 178t-214 53q-16 0-41-2t-48.5-4q-23.5-2-44-5t-30.5-5"/><glyph glyph-name="А" unicode="А" horiz-adv-x="1149" d="M82 10l299 1411q78 12 175 20.5t210 8.5q76 0 145.5-19.5T1033 1372q52-39 84-100.5t32-143.5q0-80-24.5-145T1055 868.5q-45-49.5-105.5-79T819 750v-9q45-10 86-33.5t72-58.5q31-35 49-81t18-101q0-143-56-236.5T845 82Q758 27 650.5 5.5T438-16h-79q-46 0-117 4Q119 0 82 10m190 135q12-4 38-6t55.5-4q29.5-2 61-3t56.5-1q72 0 141.5 17.5t125 54.5q55.5 37 89 96T872 444q0 63-30.5 105.5t-79.5 67Q713 641 650.5 650T524 659H381m29 140h108q35 0 82 1t80 5q47 10 100.5 28.5T878 886q44 34 71.5 86t27.5 130q0 57-17.5 95t-51.5 61.5q-34 23.5-81 34T723 1303q-66 0-123-3.5t-86-9.5"/><glyph glyph-name="Б" unicode="Б" horiz-adv-x="1114" d="M82 0l305 1434h727l-31-152H516L246 0"/><glyph glyph-name="В" unicode="В" horiz-adv-x="1288" d="M-129-264l86 416H94q20 23 73.5 102.5t121 232Q356 639 429 872.5T561 1434h727L1016 152h180l-88-416H995l27 264H68l-86-264m297 416h575l240 1130H684Q584 833 478.5 559T279 152"/><glyph glyph-name="Г" unicode="Г" horiz-adv-x="1126" d="M82 0l305 1434h739l-30-152H516L416 813h530l-31-151H385L276 152h590L834 0H244"/><glyph glyph-name="Д" unicode="Д" horiz-adv-x="1726" d="M-90 0l563 641 109 78-70 72-272 643h180l258-643h98l137 643h154L926 766l75 29 527 639h198l-524-623-96-66 82-83L1483 0h-180l-297 664H903L764 0H610l146 688-76-26L115 0"/><glyph glyph-name="Е" unicode="Е" horiz-adv-x="1067" d="M12 29l74 149q41-23 117-39t190-16q70 0 141.5 17.5t129 56.5Q721 236 757 298t36 153q0 61-21.5 102T713 620.5q-37 26.5-84 39T532 676q-23 2-45 2H336l31 141h28q37 0 91.5 3t86.5 7q55 6 112.5 25.5t104 54.5q46.5 35 76 86.5T895 1116q0 92-65.5 143.5T651 1311q-104 0-173.5-17.5T350 1255l-16 134q47 23 142 46t220 23q78 0 145.5-19.5t118-56q50.5-36.5 79-92T1067 1161q0-88-27.5-155.5T966 889q-46-49-107.5-79T729 770v-8q43-10 85-31.5t76-58.5q34-37 54.5-91.5T965 451q0-135-55.5-226.5T766 78Q678 23 570.5-1T356-25Q227-25 144-9.5T12 29"/><glyph glyph-name="Ж" unicode="Ж" horiz-adv-x="1380" d="M82 0l305 1434h164L344 459l-51-156h8l121 168 854 963h104L1077 0H913l203 958 49 166h-6l-121-172L186 0"/><glyph glyph-name="З" unicode="З" horiz-adv-x="1380" d="M82 0l305 1434h164L344 459l-51-156h8l121 168 854 963h104L1077 0H913l203 958 49 166h-6l-121-172L186 0m459 1741l139 41q0-76 38-117t106-41q86 0 141 42t78 114l149-35q-37-111-133-175.5T919 1505q-139 0-204.5 68.5T645 1741"/><glyph glyph-name="И" unicode="И" horiz-adv-x="1278" d="M82 0l303 1434h164L406 766l81 29 588 639h203L692 811l-94-63 80-82L1036 0H850L489 664H385L246 0"/><glyph glyph-name="Й" unicode="Й" horiz-adv-x="1270" d="M-86 10l55 148q20-6 45-6 39 0 79 24.5t81 85.5q37 55 80 147.5T344 642q47 140 98.5 334.5T549 1434h721L967 0H803l272 1282H674q-94-408-181-679T309 178Q246 78 177.5 34T33-10q-35 0-65.5 5T-86 10"/><glyph glyph-name="К" unicode="К" horiz-adv-x="1597" d="M82 0l305 1434h113l266-734 31-159h2l94 164 559 729h145L1292 0h-164l205 963 64 215h-8l-115-197-492-647h-49L498 981l-31 197h-8l-17-213L238 0"/><glyph glyph-name="Л" unicode="Л" horiz-adv-x="1362" d="M82 0l303 1434h164L418 809h649l131 625h164L1059 0H895l139 657H383L246 0"/><glyph glyph-name="М" unicode="М" horiz-adv-x="1325" d="M145 524q0 188 51.5 358.5T343 1181q95 128 229.5 202.5T870 1458q98 0 182.5-29.5t144.5-94q60-64.5 94-167t34-249.5q0-193-51-364t-143.5-300Q1038 125 910 50T629-25q-242 0-363 140.5T145 524m172 2q0-193 80-298t236-105q115 0 210 63.5t164.5 172Q1077 467 1115 610.5t38 302.5q0 119-26.5 197t-70.5 122q-44 44-100.5 61.5T842 1311q-117 0-213.5-64.5t-165-173Q395 965 356 822.5T317 526"/><glyph glyph-name="Н" unicode="Н" horiz-adv-x="1337" d="M82 0l305 1434h950L1034 0H870l273 1282H516L246 0"/><glyph glyph-name="О" unicode="О" horiz-adv-x="1159" d="M82 0l301 1419q78 18 164 24.5t170 6.5q94 0 175-20.5t140.5-65.5q59.5-45 93-115.5T1159 1079q0-156-56-260T955.5 652.5q-91.5-62.5-206-89T518 537h-31.5q-21.5 0-46 1t-47 3q-22.5 2-33.5 4L246 0m147 694q8-4 27.5-5t41-3q21.5-2 42-2H535q88 0 169.5 18.5t144 63.5Q911 811 949 882.5t38 180.5q0 74-24.5 121t-66.5 72.5q-42 25.5-97.5 36T682 1303q-47 0-91-3.5t-73-9.5"/><glyph glyph-name="П" unicode="П" horiz-adv-x="1231" d="M145 561q0 231 68 400t178.5 280Q502 1352 640 1405t280 53q117 0 190.5-16.5T1231 1403l-74-150q-41 23-107.5 38.5T897 1307q-115 0-220.5-50.5t-185-144.5q-79.5-94-127-229T317 580q0-98 26-181.5T417 255q48-60 118.5-94T696 127q96 0 160 21.5T971 199l12-140Q913 12 835.5-6.5T655-25q-121 0-215 44T280.5 142Q215 221 180 327.5T145 561"/><glyph glyph-name="Р" unicode="Р" horiz-adv-x="1264" d="M225 1282l31 152h1008l-31-152H809L539 0H375l270 1282"/><glyph glyph-name="С" unicode="С" horiz-adv-x="1300" d="M111 35l79 141q33-20 58.5-27.5T303 141q53 0 104.5 67.5T518 381L240 1434h174l188-756 12-182h9l77 188 420 750h180L758 502q-84-145-145.5-243.5t-114-158Q446 41 396 15.5T283-10q-66 0-105 13t-67 32"/><glyph glyph-name="Т" unicode="Т" horiz-adv-x="1536" d="M129 575q0 168 44 303.5T299 1109q82 95 196.5 146.5T750 1307q27 0 65.5-2t58.5-7l39 177h158l-39-183q39 10 78 12.5t70 2.5q74 0 139-23.5t113.5-73q48.5-49.5 76-128T1536 893q0-180-49-318.5T1355 342q-83-94-193.5-143T928 150q-27 0-70 3t-65 11L748-41H590l43 205q-35-8-69-11t-81-3q-55 0-117.5 19T251 237.5Q199 287 164 369t-35 206m172 11q0-84 20.5-140.5T376 354q34-35 76-49t85-14q20 0 60 1t69 11l180 854q-23 4-55.5 6t-61.5 2q-96 0-175-43t-135.5-119.5q-56.5-76.5-87-183T301 586m516-289q20-4 52-5t61-1q106 0 187 48t136.5 129q55.5 81 83 185.5T1364 870q0 160-63.5 227.5T1133 1165q-27 0-66-2t-68-12"/><glyph glyph-name="У" unicode="У" horiz-adv-x="1364" d="M-14 0l606 733-266 701h178l176-486 25-117 69 117 391 486h199L793 739 1083 0H905L709 514l-29 123-78-123L184 0"/><glyph glyph-name="Ф" unicode="Ф" horiz-adv-x="1323" d="M82 0l305 1434h164L279 152h610l270 1282h164L1053 152h178l-88-416h-111l25 264H250"/><glyph glyph-name="Х" unicode="Х" horiz-adv-x="1233" d="M246 823q0 61 14 127l102 484h164l-98-461q-6-29-10-56.5t-4-50.5q0-188 192-188 92 0 177 25.5T928 772l141 662h164L930 0H766l131 618q-59-35-142-63.5T555 526q-61 0-117.5 15.5T338 593q-43 36-67.5 92T246 823"/><glyph glyph-name="Ц" unicode="Ц" horiz-adv-x="1763" d="M82 0l305 1434h164L279 152h444l270 1282h164L885 152h444l270 1282h164L1458 0H246"/><glyph glyph-name="Ч" unicode="Ч" horiz-adv-x="1763" d="M82 0l305 1434h164L279 152h444l270 1282h164L885 152h444l270 1282h164L1491 152h180l-88-416h-113l27 264H246"/><glyph glyph-name="Ш" unicode="Ш" horiz-adv-x="1190" d="M188 1282l31 152h473L573 877q12 2 35 5t49.5 6q26.5 3 54 4t50.5 1q84 0 161.5-19.5t137-63.5q59.5-44 94.5-113.5t35-170.5q0-139-48-241.5t-134-169q-86-66.5-204-99T547-16q-27 0-67 1t-93 5q-41 2-82 8t-76 16l269 1268M418 143q27-6 73-9t95-3q92 0 171 23.5T894 225q58 47 91 118t33 163q0 68-24.5 114T928 693.5Q887 721 832.5 733T719 745q-18 0-44-2t-52.5-4q-26.5-2-49-6t-32.5-6"/><glyph glyph-name="Щ" unicode="Щ" horiz-adv-x="1554" d="M82 14l301 1420h164L430 877q33 6 79 11t93 5q84 0 156.5-22.5t126-67.5q53.5-45 83-111.5T997 537q0-147-52-253T806 111.5q-87-66.5-200.5-97T371-16q-49 0-129 4-92 8-160 26m192 129q29-6 62-9t80-3q80 0 154.5 24.5t131 71.5q56.5 47 90 119T825 514q0 119-71.5 175T543 745q-35 0-80-6t-68-12M1087 0l304 1434h163L1251 0"/><glyph glyph-name="Ъ" unicode="Ъ" horiz-adv-x="1044" d="M82 14l301 1420h164L430 877q10 2 31.5 5t47.5 6q26 3 54.5 4t50.5 1q86 0 164-20.5T915.5 808q59.5-44 94-113.5T1044 524q0-139-49-241.5t-136-169q-87-66.5-203.5-98T403-16q-27 0-66.5 1T242-10q-39 2-81 8T82 14m192 129q25-6 72-9t96-3q84 0 162 21.5T741.5 220q59.5 46 95 117T872 508q0 123-82.5 180T571 745q-16 0-41.5-2t-52-4q-26.5-2-49-6t-33.5-6"/><glyph glyph-name="Ы" unicode="Ы" horiz-adv-x="1130" d="M23 27l75 149q41-23 112-38t148-15q104 0 199.5 35T732 261.5Q811 330 865.5 429T942 657H365l28 146h570q2 23 3 47t1 47q0 195-88 304.5T598 1311q-92 0-161.5-20.5T315 1243l-12 135q70 37 151 58.5t183 21.5q147 0 242.5-49t150.5-126q55-77 77.5-172t22.5-187q0-201-48-374T936 250Q838 123 686.5 49T326-25q-94 0-174 14.5T23 27"/><glyph glyph-name="Ь" unicode="Ь" horiz-adv-x="1755" d="M82 0l303 1434h164L418 809h239q96 334 268.5 491.5T1315 1458q203 0 321.5-117.5T1755 983q0-203-48-386t-140-321.5Q1475 137 1341.5 56T1038-25q-109 0-186.5 38T724 118.5q-50 67.5-73.5 161T627 483q0 84 12 174H383L246 0m549 477q0-72 14-136.5T857 228q34-48 88-76.5t136-28.5q109 0 201 68.5t158.5 183Q1507 489 1545 642t38 321q0 158-70.5 253t-203.5 95q-113 0-207-67.5T939 1062q-69-114-106.5-265.5T795 477"/><glyph glyph-name="Э" unicode="Э" horiz-adv-x="1165" d="M-27 0l410 514 137 90q-39 12-83 39t-81 69q-37 42-61.5 102T270 958q0 141 54.5 235.5t140.5 152q86 57.5 193.5 81T872 1450q66 0 146-6t147-25L866 0H702l132 623-199-43L170 0m272 971q0-117 73-182.5T721 723h133l121 567q-25 6-58.5 9.5T834 1303q-72 0-141.5-16.5t-125-54.5q-55.5-38-90.5-102.5T442 971"/><glyph glyph-name="Ю" unicode="Ю" horiz-adv-x="977" d="M92 293q0 131 34 266t104.5 243.5Q301 911 412.5 981t269.5 70q57 0 140-13.5t155-36.5L848 403q-16-76-22.5-153.5T819 104V45.5Q819 18 823-4H709l-29 178h-8q-25-35-61-70.5T532 39q-43-29-92-46.5T336-25Q92-25 92 293m164 0q0-78 30.5-132.5T383 106q49 0 94 24t85 58.5q40 34.5 71 74.5t49 75l115 553q-61 29-156 29-94 0-166-55.5T354 720q-49-89-73.5-201.5T256 293"/><glyph glyph-name="Я" unicode="Я" horiz-adv-x="1110" d="M123 350q0 217 42 403.5t114.5 327Q352 1221 450.5 1306T664 1409q86 12 157.5 19.5t129 13.5q57.5 6 97 15t62.5 28l-6-144q-33-25-109.5-42T764 1270q-70-6-134.5-24.5t-124-70Q446 1124 395 1030t-94-248h14q86 127 181.5 182.5T715 1020q141 0 202.5-80T979 717q0-170-44-307.5T817 176Q743 80 648 27.5T449-25q-90 0-153 31T195.5 88q-37.5 51-55 118.5T123 350m164 23q0-53 6-100.5t26.5-82q20.5-34.5 57.5-54t98-19.5q61 0 121.5 40t109 113.5q48.5 73.5 79 178T815 682q0 39-7 74t-25.5 62.5Q764 846 732 862.5T649 879q-68 0-133-40T399.5 729q-51.5-70-82-161T287 373"/><glyph glyph-name="а" unicode="а" horiz-adv-x="893" d="M96 285q0 31 2 57.5t7.5 59q5.5 32.5 13.5 77T141 584q51 229 176 341.5T627 1038q78 0 129-14t81.5-40q30.5-26 43-60.5T893 846q0-109-70.5-188.5T635 545l-4-8q98-4 150.5-49.5T834 367q0-94-38-165T694.5 83Q631 35 549 10.5T379-14q-59 0-111.5 14T177 48q-38 34-59.5 92.5T96 285m148 8q0-176 164-176 53 0 101 14t85 44q37 30 58.5 73T674 350q0 53-44 86t-149 33h-15q-9 0-30.5-2t-62.5-4q-41-2-109-8-10-55-15-93t-5-69m45 280l184 19q31 2 76 16.5t87 40q42 25.5 70.5 62.5t28.5 86q0 55-28.5 82.5T596 907q-117 0-188.5-73.5T301 623"/><glyph glyph-name="б" unicode="б" horiz-adv-x="805" d="M55 246q0 98 43 159.5T206.5 508Q272 549 348 575.5t141.5 54Q555 657 598 693t43 95q0 66-36 92.5T481 907q-78 0-134-17.5T246 850l-31 121q66 35 143.5 51t163.5 16q82 0 136.5-18.5t87-49q32.5-30.5 46-71.5t13.5-86q0-98-43-158.5T653.5 556Q588 518 512 493.5t-141.5-53Q305 412 262 372t-43-108q0-72 46-115t122-43q76 0 149.5 27T651 188l41-100Q629 35 540 5T377-25Q277-25 214.5 3T116 72q-36 41-48.5 88T55 246"/><glyph glyph-name="в" unicode="в" horiz-adv-x="971" d="M104 360q0 129 36 250t103.5 215.5Q311 920 407.5 977t217.5 57q70 0 109.5-13t68.5-34h10q-10 156-113.5 248T418 1327l28 131q150 0 250.5-45t162-123q61.5-78 87-182T971 885q0-215-42-384T813 215Q739 98 640 36.5T426-25Q260-25 182 77.5T104 360m164-16q0-100 41-169t133-69q100 0 170 72t113 179.5Q768 465 787.5 591T807 825q-35 41-79 59.5T612 903q-66 0-127-41T376 747.5q-48-73.5-78-177T268 344"/><glyph glyph-name="г" unicode="г" horiz-adv-x="932" d="M102 332q0 168 47.5 301t124 225q76.5 92 174 141.5T647 1049q74 0 128-20.5t89-54.5q35-34 51.5-78t16.5-93q0-145-141.5-228T379 492q-25 0-51.5 1t-55.5 3q-8-39-12-74t-4-62q0-113 51-183.5T467 106q90 0 165 30t116 63l49-99Q725 39 627.5 7T432-25q-164 0-247 94.5T102 332m199 278q78 0 162 4t152.5 21.5Q684 653 729 691t45 106q0 20-7 41.5t-23.5 39q-16.5 17.5-46 29T623 918q-113 0-196-77T301 610"/><glyph glyph-name="д" unicode="д" horiz-adv-x="1473" d="M-29 4l41 139q25-6 49-6 82 0 154 87t113 294q10 59 16 105.5t6 85.5q0 109-37 148.5T219 897q-10 0-20.5-1t-20.5-3l-18 127q29 4 53.5 7t46.5 3q115 0 172-66.5T489 750q0-37-4-79t-12-89h201l94 442h154l-97-442h187q35 131 76.5 217t90 138q48.5 52 100.5 73.5t105 21.5q45 0 89-12l-35-131q-10 2-20.5 3t-20.5 1q-37 0-71-16.5t-63.5-56.5q-29.5-40-56-105.5T1155 551q-12-51-19.5-100.5T1128 354q0-98 32-166.5t102-68.5q23 0 53 10l22-125q-33-10-61.5-13t-54.5-3q-70 0-116 27.5T1031.5 89q-27.5 46-39 106.5T981 322q0 35 3 69.5t7 69.5H801L705 0H551l98 461H459q-37-137-81-227.5T285 89q-49-54-103.5-76.5T72-10q-25 0-50.5 4T-29 4"/><glyph glyph-name="е" unicode="е" horiz-adv-x="799" d="M-8 55l65 123q41-27 102.5-46T295 113q119 0 199.5 60T575 338q0 61-49 91t-168 30H246l26 127h136q35 0 74.5 16t73.5 45q34 29 56.5 65t22.5 76q0 66-39 92.5T453 907q-74 0-128.5-16.5T223 852l-33 121q66 35 145 50t181 15q152 0 217.5-54T799 827q0-53-18.5-98T730 648q-32-36-72-60.5T575 549v-8q88-16 124-66.5T735 358q0-90-36.5-159.5T599.5 81Q537 33 452 7.5T268-18q-82 0-157.5 20.5T-8 55"/><glyph glyph-name="ж" unicode="ж" horiz-adv-x="1018" d="M123 197q0 72 20 161l140 666h153L293 342q-12-55-12-102 0-57 22.5-95.5T385 106q49 0 99.5 25t96.5 63.5q46 38.5 83.5 86T727 373l137 651h154L889 416q-8-35-16.5-85T857 225.5Q850 170 846 118t-4-91V0H721v195h-8q-31-41-71-80t-88-70Q506 14 450.5-5.5T334-25q-45 0-83 10.5t-66.5 36Q156 47 139.5 89T123 197"/><glyph glyph-name="з" unicode="з" horiz-adv-x="1018" d="M123 197q0 72 20 161l140 666h153L293 342q-12-55-12-102 0-57 22.5-95.5T385 106q49 0 99.5 25t96.5 63.5q46 38.5 83.5 86T727 373l137 651h154L889 416q-8-35-16.5-85T857 225.5Q850 170 846 118t-4-91V0H721v195h-8q-31-41-71-80t-88-70Q506 14 450.5-5.5T334-25q-45 0-83 10.5t-66.5 36Q156 47 139.5 89T123 197m289 1173v19l141 49q0-96 40-132t102-36q63 0 119.5 39t90.5 127l111-39q-41-119-138-182.5T666 1151q-51 0-97.5 12.5t-81 39q-34.5 26.5-55 68.5t-20.5 99"/><glyph glyph-name="и" unicode="и" horiz-adv-x="993" d="M72 0l217 1024h153l-98-463 84 27 381 436h184L618 612l-94-67 82-82L836 0H664L432 461H322L225 0"/><glyph glyph-name="й" unicode="й" horiz-adv-x="975" d="M-68 10l48 131q25-6 47-6 45 0 85 33t83 129q43 96 93 270t118 457h569L758 0H604l191 893H520q-53-219-100-387T318.5 224.5Q264 111 198.5 51.5T41-8Q6-8-21.5-4T-68 10"/><glyph glyph-name="к" unicode="к" horiz-adv-x="1243" d="M72 0l217 1024h141l174-459 31-119h4l84 123 352 455h168L1026 0H874l130 608 51 195h-8L942 645 623 244h-54L410 645l-31 158h-8l-27-193L215 0"/><glyph glyph-name="л" unicode="л" horiz-adv-x="1038" d="M72 0l217 1024h153l-90-426h443l90 426h153L821 0H668l96 451H322L225 0"/><glyph glyph-name="м" unicode="м" horiz-adv-x="954" d="M102 319q0 162 42 296.5T260 846q74 96 171 149.5t208 53.5q86 0 146.5-28t98.5-76q38-48 54-110.5T954 705q0-154-40-287T803.5 186.5Q733 88 639 31.5T434-25q-92 0-154.5 30T177 84q-40 49-57.5 110.5T102 319m164 37q0-121 45-185.5T455 106q68 0 128 48.5T689 285q46 82 74 187.5T791 692q0 104-38 165t-145 61q-68 0-129-46.5t-109-124q-48-77.5-76-179T266 356"/><glyph glyph-name="н" unicode="н" horiz-adv-x="975" d="M54 0l217 1024h106l-8-176h8q27 33 64 68.5t83 64.5q46 29 103.5 48.5T754 1049q102 0 161.5-49.5T975 827q0-61-18-147L811 0H658l137 647q8 37 14.5 73t6.5 64q0 59-28 96.5T685 918q-53 0-104.5-25T484 830.5q-45-37.5-81-84T342 655L207 0"/><glyph glyph-name="о" unicode="о" horiz-adv-x="987" d="M-10-410l305 1434h106l-10-176h8q29 37 65 72.5t79 64.5q43 29 94 46.5t111 17.5q49 0 92-15.5t75.5-51.5q32.5-36 52-95.5T987 741q0-180-49-322.5T809 178Q729 80 629.5 27.5T432-25q-72 0-126 13.5T233 16l-90-426m121 564q35-27 72-37.5t80-10.5q80 0 152.5 44.5t130 126Q756 358 789.5 473T823 729q0 82-33.5 135.5T690 918q-55 0-105-29t-92-71q-42-42-75-90t-53-89"/><glyph glyph-name="п" unicode="п" horiz-adv-x="887" d="M102 303q0 174 47.5 312.5t126 234.5q78.5 96 181 147.5T668 1049q78 0 128-14.5t91-33.5l-58-127q-35 20-86 32t-110 12q-70 0-136.5-47.5T379 746.5q-51-76.5-82-176T266 367q0-133 55.5-197T471 106q61 0 129 28t109 56l39-102q-31-27-71-47.5T595 6q-42-14-83-22.5T434-25Q334-25 269.5 7T168 88q-37 49-51.5 106.5T102 303"/><glyph glyph-name="р" unicode="р" horiz-adv-x="1489" d="M74 0l217 1024h108l-12-176h8q33 33 71 68.5t84 64.5q46 29 100.5 48.5T770 1049q92 0 124-57.5T926 831q31 39 71.5 78t89 70q48.5 31 101.5 50.5t106 19.5q94 0 144.5-44t50.5-163q0-86-31-228L1329 0h-153l129 616q12 59 19 106.5t7 82.5q0 55-22.5 84t-75.5 29q-43 0-91-28t-93-69q-45-41-81-88t-57-88L778 0H625l123 580q16 72 24 127t8 96q0 55-20.5 85T690 918q-51 0-100-27t-92-67q-43-40-79-85t-57-82L227 0"/><glyph glyph-name="с" unicode="с" horiz-adv-x="999" d="M-41-401L8-260q23-8 49-8 59 0 119 61.5T309 0L133 1024h164l100-664 11-196h10l78 198 340 662h163L516 111Q463 11 410.5-84.5T303-255q-55-75-114.5-120T66-420q-35 0-60.5 4T-41-401"/><glyph glyph-name="т" unicode="т" horiz-adv-x="1339" d="M90 303q0 174 45 311.5T258 847q78 95 180.5 144t218.5 49q53 0 93-8l84 402h147l-86-404q37 6 64.5 8t54.5 2q160 0 242.5-89t82.5-232q0-193-50-333t-130-231.5Q1079 63 979 19T778-25q-18 0-52 3.5T674-10l-84-400H442L528-8q-29-8-51-12.5T426-25q-168 0-252 91.5T90 303m164 33q0-102 51.5-166T457 106q23 0 47 4.5t53 8.5l166 780q-23 4-43.5 7t-48.5 3q-61 0-128-37.5T381 760q-55-74-91-180.5T254 336m444-221q20-4 42-6.5t44-2.5q66 0 135.5 37t126 111q56.5 74 93.5 185.5t37 262.5q-1 207-222 207-25 0-43-3t-47-9"/><glyph glyph-name="у" unicode="у" horiz-adv-x="1047" d="M-45 0l461 524-219 500h174l121-283 36-116 84 116 248 283h187L612 532 856 0H682L543 311l-41 123-86-123L141 0"/><glyph glyph-name="ф" unicode="ф" horiz-adv-x="1018" d="M123 197q0 72 20 161l140 666h153L293 342q-12-55-12-102 0-57 22.5-95.5T385 106q49 0 99.5 25t96.5 63.5q46 38.5 83.5 86T727 373l137 651h154q-41-193-69.5-325t-47-220q-18.5-88-30-139T855 261q-5-28-6-40t-1-24q0-66 55-66h113L909-260H786L854 0h-6q-72 0-106.5 35T707 135q0 29 6 60h-8q-29-39-68-78t-86-71Q504 14 449.5-5.5T334-25q-45 0-83 10.5t-66.5 36Q156 47 139.5 89T123 197"/><glyph glyph-name="х" unicode="х" horiz-adv-x="934" d="M141 584q-6 74 82 440h156l-60-279q-14-72-14-122 0-59 27.5-95T436 492q90 0 149.5 25.5T680 567l98 457h156L717 0H561l90 430q-35-20-100.5-45T387 360q-55 0-100 11.5t-77 37Q178 434 159.5 477T141 584"/><glyph glyph-name="ц" unicode="ц" horiz-adv-x="1495" d="M121 180q0 88 31 230l129 614h153L305 408q-25-111-24-183 0-119 79-119 49 0 97.5 27t90.5 68q42 41 74.5 89t53.5 89l135 645h154L844 444q-14-68-23.5-123t-9.5-96q0-57 20.5-88t67.5-31q35 0 79 26t87 65q43 39 81 84t58 86l137 657h154l-152-715q-16-78-25-157.5T1305 0h-117l-6 174h-8q-68-86-153-142.5T819-25q-76 0-115.5 56.5T664 184v6q-31-41-69-78.5T512 43q-45-31-96-49.5T309-25q-92 0-140 43t-48 162"/><glyph glyph-name="ч" unicode="ч" horiz-adv-x="1495" d="M121 180q0 88 31 230l129 614h153L305 408q-10-53-17-98.5t-7-80.5q0-59 19-91t60-32q49 0 97.5 27t90.5 68q42 41 74.5 89t53.5 89l135 645h154L844 444q-14-68-23.5-123t-9.5-96q0-57 20.5-88t67.5-31q35 0 79 26t87 65q43 39 81 84t58 86l137 657h154q-37-172-61.5-291t-41-196.5Q1376 459 1368 417t-13-63.5q-5-21.5-7-29t-2-11.5q-4-25-10.5-56.5T1329 197q0-66 55-66h111l-104-391h-125l69 260h-6q-74 0-107.5 35t-33.5 98q0 27 6 62h-8q-70-102-160-161T819-25q-76 0-115.5 56.5T664 184v6q-31-41-69-78.5T512 43q-45-31-96-49.5T309-25q-92 0-140 43t-48 162"/><glyph glyph-name="ш" unicode="ш" horiz-adv-x="905" d="M106 883l29 141h389L414 610q49 16 106.5 26.5T637 647q119 0 193.5-54T905 422q0-96-39-176T757.5 108.5Q688 51 595 19.5T395-12q-117 0-168 53t-51 137q0 20 2 42t8 44l154 619m-6-670q0-94 106-94 63 0 118.5 20.5t96.5 57q41 36.5 63.5 85T741 385q0 59-31.5 97T586 520q-20 0-47-3t-54.5-8q-27.5-5-54.5-13.5T385 475l-43-199q-8-33-8-63"/><glyph glyph-name="щ" unicode="щ" horiz-adv-x="1280" d="M123 162q0 39 8 71l178 791h154l-96-403q35 10 92 18t104 8q150 0 211.5-60.5T836 428q0-106-44-188T677 101.5q-71-56.5-159-85T340-12q-113 0-165 47t-52 127m158 43q0-39 21.5-62.5T373 119q61 0 115.5 19.5t95.5 55q41 35.5 64.5 85T672 387q0 63-35 98t-137 35q-84 0-162-33l-53-247q-2-10-3-18.5t-1-16.5M909 0l217 1024h154L1063 0"/><glyph glyph-name="ъ" unicode="ъ" horiz-adv-x="850" d="M123 184q0 29 6 60l182 780h154l-96-403q4 0 5 1t5 1q41 10 86 17t100 7q90 0 145.5-18.5t86-49q30.5-30.5 42-71.5t11.5-84q0-109-40-189.5t-106.5-136Q637 43 551 15.5T373-12q-72 0-119 16t-77 44q-30 28-42 63.5T123 184m158 37q0-47 29.5-74.5T406 119q57 0 107 19.5t89 54q39 34.5 61.5 84T686 387q0 72-38 102.5T512 520q-53 0-94-11t-78-24l-53-215q-6-29-6-49"/><glyph glyph-name="ы" unicode="ы" horiz-adv-x="834" d="M-18 39l67 125q39-27 103.5-42.5T281 106q141 0 236 88.5T651 455H227l27 125h408q4 20 6 41.5t2 46.5q0 129-51.5 189.5T473 918q-94 0-156.5-22T213 850l-41 106q70 45 153 69t185 24q84 0 144.5-25T755 955q40-44 59.5-103T834 723q0-209-47.5-352.5T661.5 140Q584 53 484.5 14T283-25Q76-25-18 39"/><glyph glyph-name="ь" unicode="ь" horiz-adv-x="1327" d="M72 0l217 1024h153l-90-432h191q29 104 75 188t107 143.5q61 59.5 135 92.5t160 33q88 0 146.5-28t94-76q35.5-48 51-110.5T1327 705q0-154-40-287t-109.5-231.5Q1108 88 1015 31.5T817-25q-92 0-151.5 30t-94 79q-34.5 49-48 110.5T510 319q0 37 3 72t7 70H322L225 0m439 356q0-121 36.5-185.5T836 106q63 0 122.5 48.5T1063 285q45 82 72.5 187.5T1163 692q0 104-33.5 165T991 918q-68 0-127-46.5t-104-124q-45-77.5-70.5-179T664 356"/><glyph glyph-name="э" unicode="э" horiz-adv-x="926" d="M-33 0l299 350 101 76q-82 14-137.5 68.5T174 647q0 94 39 169t104.5 126q65.5 51 152.5 79t183 28q41 0 82-5.5t78-12.5q37-7 65.5-16t47.5-16L717 0H563l90 422-157-25L166 0m172 666q0-150 213-150h24.5q12.5 0 35 1t63.5 3l82 371q-10 10-45 18.5t-95 8.5q-123 0-200.5-69T338 666"/><glyph glyph-name="ю" unicode="ю" horiz-adv-x="974" d="M102 332q0 168 47.5 301t124 225q76.5 92 174 141.5T647 1049q74 0 128-20.5t89-54.5q35-34 51.5-78t16.5-93q0-145-141.5-228T379 492q-25 0-51.5 1t-55.5 3q-8-39-12-74t-4-62q0-113 51-183.5T467 106q90 0 165 30t116 63l49-99Q725 39 627.5 7T432-25q-164 0-247 94.5T102 332m199 278q78 0 162 4t152.5 21.5Q684 653 729 691t45 106q0 20-7 41.5t-23.5 39q-16.5 17.5-46 29T623 918q-113 0-196-77T301 610m108 688q0 45 25.5 75t68.5 30q43 0 70-30t27-75q0-41-27-70.5t-70-29.5q-43 0-68.5 29.5T409 1298m375 2q0 43 25.5 73t68.5 30q45 0 70.5-30t25.5-73q0-43-25.5-72.5T878 1198q-43 0-68.5 29.5T784 1300"/><glyph glyph-name="я" unicode="я" horiz-adv-x="1401" d="M231 520l33 139h1137l-33-139"/><glyph glyph-name="ё" unicode="ё" horiz-adv-x="1245" d="M12 516l66 135h147q10 78 25 144H72l65 135h152q49 137 126 236.5t168 164q91 64.5 189 96t191 31.5q98 0 166.5-16.5T1245 1399l-71-125q-76 45-242 45-55 0-122-22.5T677.5 1227Q612 1180 553 1106T451 930h565l-64-135H403q-16-70-24-144h502l-64-135H369v-12q0-84 18.5-154.5t59-123Q487 174 555 144.5T721 115q66 0 130 18.5T967 180l28-123q-35-25-76.5-40t-87-24Q786-16 743-20.5T664-25q-111 0-195 38T328.5 118.5q-56.5 67.5-85 160T215 477v39"/><glyph glyph-name="—" unicode="—" horiz-adv-x="1169" d="M57 286l29 127h141l33 148H119l28 127h140l155 731q82 18 166 24.5t172 6.5q82 0 154-21.5t124-64.5q52-43 81.5-107.5T1169 1108q0-121-32.5-212.5t-91-156Q987 675 906 635.5T729 575q-41-8-88-10t-106-6H424l-31-146h332l-27-127H365L305 0H141l60 286m252 414h151q62 0 132.5 16.5t130 55.5Q926 811 966 877.5t40 166.5q0 129-58.5 195.5T756 1306q-54 0-104-3t-72-9"/></font>
</defs>
</svg>
