<svg xmlns="http://www.w3.org/2000/svg"><defs><font id="."><font-face font-family="" units-per-em="2048" ascent="1920" descent="-532" bbox="-144 -467 2129 1840"/><glyph glyph-name="!" unicode="!" horiz-adv-x="444" d="M395 461H163l-48 928h329M111 136q0 80 43 120.5T278 297q79 0 122.5-41.5T444 136q0-75-44-118.5T278-26q-79 0-123 42.5T111 136"/><glyph glyph-name="&quot;" unicode="&quot;" horiz-adv-x="792" d="M391 1389l-39-502H165l-39 502m666 0l-39-502H566l-39 502"/><glyph glyph-name="#" unicode="#" horiz-adv-x="1214" d="M949 802l-45-221h246V386H867L794 0H585l74 386H475L403 0H199l70 386H43v195h263l45 221H111v198h275l73 387h208l-73-387h188l74 387h204l-74-387h228V802M512 581h186l45 221H557"/><glyph glyph-name="$" unicode="$" horiz-adv-x="1037" d="M1037 434q0-151-109-242.5T622 82v-195H492V78q-232 5-406 82v250q82-40 198.5-71.5T492 301v295l-64 24q-188 74-266 161T84 997q0 137 107.5 226T492 1331v145h130v-141q218-10 394-88l-90-222q-148 61-304 74V819q186-71 264-123.5t114.5-115Q1037 518 1037 434m-286-14q0 40-32 67.5T622 544V308q129 22 129 112M370 997q0-42 29-69t93-56v223q-122-18-122-98"/><glyph glyph-name="%" unicode="%" horiz-adv-x="1693" d="M299 973q0-121 21.5-180.5T390 733q91 0 91 240 0 237-91 237-48 0-69.5-58.5T299 973m421 2q0-219-84.5-328.5T388 537q-157 0-242.5 112.5T60 975q0 434 328 434 160 0 246-112.5T720 975m654 414L603 0H375l771 1389m126-971q0-121 21.5-180t68.5-59q92 0 92 239 0 238-92 238-47 0-68.5-58.5T1272 418m421 2q0-218-84.5-327.5T1360-17q-156 0-241.5 112.5T1033 420q0 434 327 434 161 0 247-112.5t86-321.5"/><glyph glyph-name="&amp;" unicode="&amp;" horiz-adv-x="1459" d="M1459 0h-358L992 107Q810-19 581-19 350-19 214 87.5T78 375q0 130 57.5 222T332 769q-71 81-103 155.5T197 1088q0 144 110.5 232.5T603 1409q177 0 283-82.5T992 1107q0-113-65.5-206.5T714 722l270-263q68 111 117 286h302q-34-128-94-250.5T1173 278M383 403q0-82 61-130.5T601 224q120 0 216 58L502 596q-56-42-87.5-87.5T383 403m341 673q0 51-34 80t-89 29q-63 0-99.5-30.5T465 1068q0-84 90-184 81 45 125 89t44 103"/><glyph glyph-name="'" unicode="'" horiz-adv-x="391" d="M391 1389l-39-502H165l-39 502"/><glyph glyph-name="(" unicode="(" horiz-adv-x="601" d="M78 533q0 252 73.5 471.5T364 1389h237q-134-183-202-402.5T331 535q0-233 69.5-450T599-308H364Q224-146 151 69.5T78 533"/><glyph glyph-name=")" unicode=")" horiz-adv-x="581" d="M581 533q0-250-73.5-465.5T295-308H60Q188-133 258.5 84T329 535q0 232-68.5 451.5T58 1389h237q140-166 213-386t73-470"/><glyph glyph-name="*" unicode="*" horiz-adv-x="1000" d="M654 1478l-39-349 354 98 31-239-323-23 212-282-215-115-149 297-130-295-224 113 210 282-321 25 37 237 347-98-39 349"/><glyph glyph-name="+" unicode="+" horiz-adv-x="1027" d="M451 581H84v208h367v371h208V789h368V581H659V216H451"/><glyph glyph-name="," unicode="," horiz-adv-x="436" d="M436 204Q387 12 269-251H60q62 253 96 477h266"/><glyph glyph-name="-" unicode="-" horiz-adv-x="568" d="M58 403v237h510V403"/><glyph glyph-name="." unicode="." horiz-adv-x="444" d="M111 136q0 80 43 120.5T278 297q79 0 122.5-41.5T444 136q0-75-44-118.5T278-26q-79 0-123 42.5T111 136"/><glyph glyph-name="/" unicode="/" horiz-adv-x="794" d="M794 1389L276 0H13l518 1389"/><glyph glyph-name="0" unicode="0" horiz-adv-x="1041" d="M1041 694q0-363-119-538T555-19q-241 0-363 180.5T70 694q0 368 119 542.5T555 1411q240 0 363-182.5T1041 694m-679 0q0-255 44-365.5T555 218q102 0 148 112t46 364q0 256-46.5 367.5T555 1173q-104 0-148.5-111.5T362 694"/><glyph glyph-name="1" unicode="1" horiz-adv-x="804" d="M804 0H510v804l3 132 5 144q-73-73-102-96L256 856l-141 177 447 356h242"/><glyph glyph-name="2" unicode="2" horiz-adv-x="1049" d="M1049 0H78v204l349 353q154 158 201.5 219.5T697 890q21 52 21 108 0 84-46 125t-123 41q-81 0-157-37t-158-106L74 1210q103 88 170.5 124t147 55.5Q471 1409 570 1409q130 0 230-47.5t155-133q55-85.5 55-195.5 0-96-34-180T871.5 680.5Q801 592 622 428L444 260v-13h605"/><glyph glyph-name="3" unicode="3" horiz-adv-x="1036" d="M995 1078q0-130-79-221T694 732v-6q169-21 255.5-102.5T1036 405q0-201-145.5-312.5T475-19Q249-19 74 56v250q81-41 178-66.5T444 214q145 0 214.5 49.5T728 422q0 98-80 138.5T393 601H288v225h107q162 0 236.5 42.5T706 1014q0 157-198 157-68 0-139-22.5T212 1070L76 1272q190 137 453 137 216 0 341-87.5T995 1078"/><glyph glyph-name="4" unicode="4" horiz-adv-x="1080" d="M1080 288H913V0H626v288H33v204l609 897h271V516h167m-454 0v235q0 59 5 171.5t7 130.5h-7q-35-78-85-152L292 516"/><glyph glyph-name="5" unicode="5" horiz-adv-x="1023" d="M583 887q202 0 321-113t119-309q0-233-143.5-358.5T469-19Q238-19 95 56v254q75-40 175-65.5T459 219q269 0 269 221 0 210-279 210-50 0-111-10t-99-22l-116 63 52 708h753v-249H432l-25-273 33 7q58 13 143 13"/><glyph glyph-name="6" unicode="6" horiz-adv-x="1049" d="M68 590q0 412 174.5 613.5T765 1405q119 0 186-14v-235q-85 19-167 19-151 0-246.5-45.5t-143-135Q347 905 338 741h13q94 161 301 161 186 0 291.5-116.5T1049 463q0-223-125.5-352.5T576-19q-154 0-268.5 71.5t-177 208Q68 397 68 590m502-374q94 0 144.5 63T765 459q0 101-47 159.5T576 677q-90 0-153-58t-63-135q0-113 59.5-190.5T570 216"/><glyph glyph-name="7" unicode="7" horiz-adv-x="1049" d="M216 0l521 1140H52v247h997v-184L523 0"/><glyph glyph-name="8" unicode="8" horiz-adv-x="1043" d="M557 1407q199 0 321-90.5t122-244.5q0-107-58.5-190T751 733q156-83 224-174t68-199q0-171-134-275T557-19q-228 0-358.5 97T68 352q0 119 63.5 211.5T334 726q-118 75-170.5 160.5T111 1074q0 149 123.5 241t322.5 92M340 370q0-82 57-127.5T553 197q109 0 163 47t54 124q0 63-53.5 118.5T542 605q-202-93-202-235m215 822q-75 0-121-38.5T388 1051q0-57 36.5-102.5T557 856q93 44 130 89.5t37 105.5q0 65-47.5 103T555 1192"/><glyph glyph-name="9" unicode="9" horiz-adv-x="1043" d="M1043 796q0-410-173-612.5T347-19Q223-19 160-6v236q79-20 167-20 147 0 242 43t145.5 136Q765 482 772 644h-11q-55-89-127.5-125T453 483q-181 0-285.5 116T63 922q0 224 126.5 353.5T535 1405q154 0 269.5-72t177-209.5Q1043 986 1043 796m-502 373q-92 0-143-62.5T347 926q0-100 46.5-159T535 708q89 0 152.5 58.5T751 901q0 113-59 190.5T541 1169"/><glyph glyph-name=":" unicode=":" horiz-adv-x="444" d="M111 136q0 80 43 120.5T278 297q79 0 122.5-41.5T444 136q0-75-44-118.5T278-26q-79 0-123 42.5T111 136m0 785q0 79 43 120t124 41q79 0 122.5-42T444 921q0-77-44.5-119.5T278 759q-79 0-123 42t-44 120"/><glyph glyph-name=";" unicode=";" horiz-adv-x="444" d="M422 226l14-22Q387 12 269-251H60q62 253 96 477m-45 695q0 79 43 120t124 41q79 0 122.5-42T444 921q0-77-44.5-119.5T278 759q-79 0-123 42t-44 120"/><glyph glyph-name="&lt;" unicode="&lt;" horiz-adv-x="1027" d="M1027 193L84 609v136l943 471V988L377 687l650-267"/><glyph glyph-name="=" unicode="=" horiz-adv-x="1027" d="M84 765v208h943V765M84 397v208h943V397"/><glyph glyph-name="&gt;" unicode="&gt;" horiz-adv-x="1027" d="M84 420l649 267L84 988v228l943-471V609L84 193"/><glyph glyph-name="?" unicode="?" horiz-adv-x="882" d="M262 461v70q0 91 39 158.5T444 833q99 71 131 116t32 100q0 62-45.5 94T434 1175q-142 0-325-93L6 1290q212 119 449 119 196 0 311.5-94T882 1064q0-104-47.5-180T654 712q-92-67-116-102t-24-92v-57M232 136q0 80 42.5 120.5T399 297q79 0 122-41.5T564 136q0-75-43.5-118.5T399-26q-80 0-123.5 42.5T232 136"/><glyph glyph-name="@" unicode="@" horiz-adv-x="1648" d="M1648 714q0-136-43.5-249.5T1481 286q-80-65-185-65-70 0-124.5 34t-78.5 89h-15Q976 221 817 221q-168 0-265 101.5T455 599q0 201 127.5 323.5T915 1045q82 0 180-15.5t162-37.5l-22-465q0-132 72-132 61 0 97 89t36 232q0 153-63.5 270.5t-179 179Q1082 1227 934 1227q-192 0-333.5-78.5T383.5 921Q308 772 308 578q0-263 140-403T854 35q101 0 221.5 22.5T1313 123V-60q-203-86-451-86-361 0-563 190T97 572q0 235 103 426t293.5 300Q684 1407 932 1407q209 0 373.5-85.5t253.5-243q89-157.5 89-364.5M675 596q0-201 164-201 85 0 130 60.5t54 196.5l13 210q-49 10-110 10-118 0-184.5-74T675 596"/><glyph glyph-name="A" unicode="A" horiz-adv-x="1342" d="M1025 0L924 331H418L317 0H0l490 1395h360L1342 0M854 578q-140 449-157.5 508t-24.5 93q-32-122-180-601"/><glyph glyph-name="B" unicode="B" horiz-adv-x="1205" d="M175 1389h432q295 0 428.5-84t133.5-268q0-124-58-204t-155-96v-9q132-30 190.5-110.5T1205 403q0-190-137.5-296.5T694 0H175m294 839h171q120 0 173.5 37T867 998q0 80-58.5 115T624 1148H469m0-543V243h192q122 0 180 46.5T899 432q0 173-247 173"/><glyph glyph-name="C" unicode="C" horiz-adv-x="1171" d="M765 1164q-167 0-258-125t-91-348q0-465 349-465 146 0 354 73V52Q948-19 737-19q-303 0-463.5 184T113 693q0 216 79 379t226.5 250q147.5 87 346.5 87 202 0 406-98l-95-239q-78 37-156.5 64.5T765 1164"/><glyph glyph-name="D" unicode="D" horiz-adv-x="1327" d="M1327 708q0-343-195-525.5T568 0H175v1389h436q340 0 528-179.5T1327 708m-306-8q0 448-395 448H469V243h127q425 0 425 457"/><glyph glyph-name="E" unicode="E" horiz-adv-x="975" d="M975 0H175v1389h800v-241H469V843h471V601H469V243h506"/><glyph glyph-name="F" unicode="F" horiz-adv-x="971" d="M465 0H175v1389h796v-241H465V789h471V549H465"/><glyph glyph-name="G" unicode="G" horiz-adv-x="1253" d="M702 780h551V60q-134-44-252-61.5T759-19q-314 0-480 185T113 696q0 337 192.5 525T839 1409q214 0 412-86l-98-235q-152 76-316 76-191 0-306-128.5T416 691q0-226 92.5-345.5T778 226q92 0 187 19v290H702"/><glyph glyph-name="H" unicode="H" horiz-adv-x="1313" d="M1313 0h-294v599H469V0H175v1389h294V845h550v544h294"/><glyph glyph-name="I" unicode="I" horiz-adv-x="469" d="M175 0v1389h294V0"/><glyph glyph-name="J" unicode="J" horiz-adv-x="469" d="M29-408q-99 0-173 20v246q76-20 138-20 97 0 139 60.5T175 87v1302h294V89q0-243-111-370T29-408"/><glyph glyph-name="K" unicode="K" horiz-adv-x="1292" d="M1292 0H958L594 585l-125-89V0H175v1389h294V753l116 164 376 472h327L804 774"/><glyph glyph-name="L" unicode="L" horiz-adv-x="1033" d="M175 0v1389h294V243h564V0"/><glyph glyph-name="M" unicode="M" horiz-adv-x="1660" d="M763 0L428 1090h-8q18-333 18-444V0H175v1389h401L904 327h6l349 1062h401V0h-275v657q0 47 1.5 108t12.5 323h-8L1033 0"/><glyph glyph-name="N" unicode="N" horiz-adv-x="1407" d="M1407 0h-374L428 1051h-8q18-279 18-397V0H175v1389h371l604-1040h6q-14 270-14 383v657h265"/><glyph glyph-name="O" unicode="O" horiz-adv-x="1435" d="M1435 696q0-344-171-529.5T774-19q-319 0-490 185.5T113 698q0 347 171.5 530T776 1411q320 0 489.5-184.5T1435 696m-1013 0q0-232 88-350t264-118q353 0 353 468 0 470-351 470-176 0-265-118.5T422 696"/><glyph glyph-name="P" unicode="P" horiz-adv-x="1134" d="M469 735h97q136 0 203.5 54T837 945q0 104-56.5 153.5T603 1148H469m665-192q0-224-140-343T596 494H469V0H175v1389h443q253 0 384.5-109T1134 956"/><glyph glyph-name="Q" unicode="Q" horiz-adv-x="1435" d="M1435 696q0-245-86.5-410.5T1093 43l335-374h-377L796-19h-22q-319 0-490 185.5T113 698q0 347 171.5 530T776 1411q320 0 489.5-184.5T1435 696m-1013 0q0-232 88-350t264-118q353 0 353 468 0 470-351 470-176 0-265-118.5T422 696"/><glyph glyph-name="R" unicode="R" horiz-adv-x="1284" d="M469 772h95q140 0 206.5 46.5T837 965q0 99-68 141t-210 42h-90m0-615V0H175v1389h405q283 0 418.5-103T1134 973q0-123-67.5-218.5T876 605q313-468 408-605H958L626 533"/><glyph glyph-name="S" unicode="S" horiz-adv-x="995" d="M995 386q0-188-135.5-296.5T483-19Q260-19 89 65v273q141-62 238.5-88T505 224q97 0 149 37t52 110q0 41-23 73t-67 61.5Q572 535 436 599q-127 60-191 115.5T143 843q-38 73-38 171 0 184 125 289.5T576 1409q108 0 206.5-25.5T988 1311l-95-229q-111 46-184 64t-143 18q-83 0-128-39t-45-102q0-39 18-68t57.5-56Q508 872 656 802q194-93 266.5-186.5T995 386"/><glyph glyph-name="T" unicode="T" horiz-adv-x="1088" d="M711 0H416v1144H39v245h1049v-245H711"/><glyph glyph-name="U" unicode="U" horiz-adv-x="1305" d="M1305 1389V490q0-154-68.5-270t-199-177.5Q907-19 730-19q-268 0-416.5 137.5T165 494v895h294V539q0-161 64.5-236T737 228q145 0 210 75.5t65 237.5v848"/><glyph glyph-name="V" unicode="V" horiz-adv-x="1264" d="M967 1389h297L792 0H471L0 1389h297l262-827q21-73 44.5-170.5T633 256q10 88 71 306"/><glyph glyph-name="W" unicode="W" horiz-adv-x="1881" d="M1528 0h-336l-188 730q-10 39-35.5 161T940 1054q-6-51-29-164.5T876 728L689 0H354L0 1389h290l177-758q47-210 68-364 6 54 26 167.5T599 611l203 778h278l202-778q14-52 34-159.5t30-184.5q10 74 30.5 184.5T1415 631l176 758h290"/><glyph glyph-name="X" unicode="X" horiz-adv-x="1298" d="M1298 0H961L638 525 315 0H0l461 716-432 673h325l300-500 293 500h317L828 700"/><glyph glyph-name="Y" unicode="Y" horiz-adv-x="1214" d="M607 817l290 572h317L753 541V0H461v531L0 1389h319"/><glyph glyph-name="Z" unicode="Z" horiz-adv-x="1080" d="M1080 0H47v191l665 955H65v243h997v-190L397 243h683"/><glyph glyph-name="[" unicode="[" horiz-adv-x="596" d="M596-308H136v1697h460v-201H383V-107h213"/><glyph glyph-name="\" unicode="\" horiz-adv-x="792" d="M275 1389L792 0H529L11 1389"/><glyph glyph-name="]" unicode="]" horiz-adv-x="508" d="M48-107h212v1295H48v201h460V-308H48"/><glyph glyph-name="^" unicode="^" horiz-adv-x="1031" d="M8 494l416 902h136l471-902H804l-306 611-266-611"/><glyph glyph-name="_" unicode="_" horiz-adv-x="804" d="M804-308H-4v133h808"/><glyph glyph-name="`" unicode="`" horiz-adv-x="864" d="M672 1179q-60 42-176 135.5T315 1471v20h325q60-96 224-286v-26"/><glyph glyph-name="a" unicode="a" horiz-adv-x="1029" d="M826 0l-56 144h-7Q690 52 612.5 16.5T410-19q-153 0-240.5 87.5T82 317q0 169 118 249.5T557 656l184 5v47q0 161-165 161-128 0-300-77l-96 196q184 96 407 96 214 0 328-93t114-283V0M741 492l-112-4q-126-4-188-45.5T379 315q0-122 141-122 100 0 160.5 58T741 405"/><glyph glyph-name="b" unicode="b" horiz-adv-x="1144" d="M743 1082q188 0 294.5-147T1144 533q0-263-110-407.5T735-19q-187 0-293 136h-20L373 0H152v1478h290v-344q0-65-12-210h12q101 158 301 158m-93-232q-108 0-157-66t-51-218v-31q0-171 50.5-245T654 216q89 0 141.5 82T848 537q0 157-53 235t-145 78"/><glyph glyph-name="c" unicode="c" horiz-adv-x="940" d="M583-19Q87-19 87 525q0 271 135 414t387 143q184 0 331-72l-86-224q-68 27-127 44.5T609 848q-226 0-226-321 0-311 226-311 84 0 155 22t142 70V60Q836 15 764.5-2T583-19"/><glyph glyph-name="d" unicode="d" horiz-adv-x="1080" d="M488-19q-187 0-294 145.5T87 529q0 261 109 407t300 146q200 0 306-156h9q-22 119-22 212v340h291V0H858l-56 138h-13Q691-19 488-19m102 231q111 0 163 64.5T809 496v31q0 171-52.5 245T585 846q-97 0-150.5-82T381 525q0-156 54-234.5T590 212"/><glyph glyph-name="e" unicode="e" horiz-adv-x="1066" d="M592 876q-92 0-144.5-58.5T388 652h406q-2 107-56 165.5T592 876m41-895q-257 0-401.5 141.5T87 523q0 267 133.5 413T590 1082q225 0 350.5-128T1066 599V459H381q5-124 73-193t192-69q96 0 181.5 20t178.5 63V56Q930 18 843.5-.5T633-19"/><glyph glyph-name="f" unicode="f" horiz-adv-x="841" d="M739 845H488V0H199v845H39v139l160 78v78q0 181 89 265t286 84q150 0 267-45l-74-213q-88 28-162 28-62 0-89.5-36.5T488 1129v-67h251"/><glyph glyph-name="g" unicode="g" horiz-adv-x="1076" d="M1076 1062V915l-166-43q46-71 46-160 0-170-119.5-265.5T505 351l-52 2-43 5q-44-34-44-76 0-63 159-63h181q175 0 266.5-75T1064-76q0-186-155.5-288.5T463-467q-223 0-340 77T6-173Q6-77 65.5-12.5T241 80q-44 19-77.5 62T130 234q0 60 35 100.5T267 414q-84 36-132.5 116T86 718q0 174 113 269t323 95q44 0 105.5-8t78.5-12M256-150q0-60 57.5-94T475-278q156 0 244.5 42.5T808-119q0 60-52.5 83T594-13H444q-80 0-134-37.5T256-150m106 864q0-86 39.5-136.5T522 527q81 0 119 50.5T679 714q0 192-157 192-160 0-160-192"/><glyph glyph-name="h" unicode="h" horiz-adv-x="1132" d="M1132 0H843v620q0 230-171 230-122 0-176-82.5T442 500V0H152v1478h290v-301q0-35-7-165l-7-86h16q97 156 307 156 188 0 284.5-100.5T1132 693"/><glyph glyph-name="i" unicode="i" horiz-adv-x="455" d="M140 1337q0 141 157 141 158 0 158-141 0-68-39.5-105.5T297 1194q-157 0-157 143M442 0H152v1062h290"/><glyph glyph-name="j" unicode="j" horiz-adv-x="455" d="M66-467q-111 0-190 23v228q66-18 135-18 74 0 107.5 41T152-72v1134h290V-115q0-169-98-260.5T66-467m74 1804q0 141 157 141 158 0 158-141 0-68-39.5-105.5T297 1194q-157 0-157 143"/><glyph glyph-name="k" unicode="k" horiz-adv-x="1206" d="M430 578l127 161 297 323h327L759 601 1206 0H872L566 430l-124-99V0H152v1478h290V819l-15-241"/><glyph glyph-name="l" unicode="l" horiz-adv-x="442" d="M442 0H152v1478h290"/><glyph glyph-name="m" unicode="m" horiz-adv-x="1765" d="M1103 0H813v620q0 115-38.5 172.5T654 850q-112 0-162-81.5T442 500V0H152v1062h221l39-136h16q43 73 124 114.5t185 41.5q239 0 323-156h26q43 74 126 115t187 41q181 0 273.5-92.5T1765 693V0h-291v620q0 115-38.5 172.5T1315 850q-107 0-159.5-76T1103 533"/><glyph glyph-name="n" unicode="n" horiz-adv-x="1132" d="M1132 0H843v620q0 115-41 172.5T672 850q-122 0-176-81t-54-269V0H152v1062h221l39-136h16q49 77 134 116.5t193 39.5q185 0 281-100t96-289"/><glyph glyph-name="o" unicode="o" horiz-adv-x="1117" d="M383 533q0-158 51.5-238.5T603 214q116 0 167 80t51 239q0 158-51.5 236.5T601 848q-116 0-167-78t-51-237m734 0q0-259-136.5-405.5T599-19q-153 0-269.5 67T150 240.5Q87 366 87 533q0 260 136 404.5T605 1082q153 0 270-66.5t179.5-191Q1117 700 1117 533"/><glyph glyph-name="p" unicode="p" horiz-adv-x="1144" d="M735-19q-187 0-293 136h-15q15-133 15-154v-430H152v1529h236l40-138h14q101 158 301 158 188 0 294.5-145.5T1144 533q0-170-50-295.5t-142-191Q860-19 735-19m-85 869q-108 0-157-66t-51-218v-31q0-171 50.5-245T654 216q194 0 194 321 0 157-48 235t-150 78"/><glyph glyph-name="q" unicode="q" horiz-adv-x="1080" d="M592 208q110 0 161.5 63T809 492v35q0 171-52.5 245T587 846q-204 0-204-321 0-159 50.5-238T592 208M488-19q-188 0-294.5 145T87 529q0 260 109 406.5T494 1082q101 0 176-38t132-118h7l26 136h245V-467H789v445q0 58 13 160h-13Q743 61 666 21T488-19"/><glyph glyph-name="r" unicode="r" horiz-adv-x="843" d="M745 1082q59 0 98-8l-22-272q-35 9-86 9-138 0-215.5-71T442 541V0H152v1062h219l43-178h14q50 89 134 143.5t183 54.5"/><glyph glyph-name="s" unicode="s" horiz-adv-x="893" d="M893 315q0-163-113.5-248.5T440-19Q324-19 242.5-3.5T89 43v239q81-38 182-63.5T449 193q158 0 158 91 0 34-21 55.5T514 388q-51 27-137 63-122 52-179.5 95.5t-84 100Q87 703 87 786q0 141 110 218.5t311 77.5q192 0 374-84l-88-209q-80 35-149 56.5T504 867q-129 0-129-69 0-39 41.5-67.5T598 646q124-50 182-94t85.5-101Q893 394 893 315"/><glyph glyph-name="t" unicode="t" horiz-adv-x="782" d="M599 212q76 0 183 33V29Q674-19 516-19q-174 0-253.5 88T183 332v513H45v122l159 97 84 224h185v-226h297V845H473V332q0-61 34.5-90.5T599 212"/><glyph glyph-name="u" unicode="u" horiz-adv-x="1127" d="M904 0l-39 136h-15Q804 62 718.5 21.5T523-19Q336-19 241 81t-95 289v692h290V442q0-115 41-172.5T607 212q122 0 176 81t54 269v500h290V0"/><glyph glyph-name="v" unicode="v" horiz-adv-x="1107" d="M405 0L0 1062h303l205-605q34-115 43-218h6q4 92 42 218l205 605h303L702 0"/><glyph glyph-name="w" unicode="w" horiz-adv-x="1646" d="M1025 0l-82 371-110 470h-7L633 0H321L19 1062h289l122-470q30-126 60-349h6q4 72 33 229l15 81 131 509h320l124-509q4-21 12-62t15.5-87q7.5-46 14-90t7.5-71h5q9 69 31 188t31 161l127 470h284L1340 0"/><glyph glyph-name="x" unicode="x" horiz-adv-x="1115" d="M370 542L28 1062h328l206-338 208 338h329L753 542 1115 0H786L562 364 338 0H10"/><glyph glyph-name="y" unicode="y" horiz-adv-x="1107" d="M0 1062h317l201-597q25-78 35-185h6q10 98 40 185l197 597h311L657-136q-61-166-175.5-248.5T214-467q-75 0-148 16v230q53-13 114-13 77 0 134.5 47T405-45l17 53"/><glyph glyph-name="z" unicode="z" horiz-adv-x="891" d="M891 0H52v171l492 670H82v221h792V874L395 221h496"/><glyph glyph-name="{" unicode="{" horiz-adv-x="689" d="M273 256q0 83-62.5 127T29 427v227q120 0 182 41.5T273 815v310q0 145 92 204.5t324 59.5v-214q-94-3-130-36t-36-98V757q-5-178-222-211v-11q222-33 222-202V41q0-65 35.5-98T689-93v-215q-232 0-324 59.5T273-43"/><glyph glyph-name="|" unicode="|" horiz-adv-x="640" d="M432 1472h208V-442H432"/><glyph glyph-name="}" unicode="}" horiz-adv-x="737" d="M494-43q0-106-39-160t-128.5-79.5Q237-308 78-308v215q94 2 129.5 34T243 41v294q0 82 56 133t166 67v11q-216 33-222 211v284q0 67-35 99t-130 35v214q159 0 249-25t128.5-80q38.5-55 38.5-159V813q0-80 58.5-119.5T737 654V427q-119 0-181-39t-62-132"/><glyph glyph-name="~" unicode="~" horiz-adv-x="1027" d="M306 638q-52 0-111.5-31.5T84 523v220q97 103 243 103 69 0 130.5-15T590 786q122-53 216-53 50 0 110 30.5t111 84.5V629q-96-104-243-104-63 0-120 12.5T522 585q-125 53-216 53"/><glyph glyph-name="¨" unicode="¨" horiz-adv-x="917" d="M265 1335q0 61 35.5 94.5T397 1463q63 0 98.5-35t35.5-93q0-57-36-92t-98-35q-61 0-96.5 33.5T265 1335m383 0q0 66 38.5 97t95.5 31q62 0 98.5-34t36.5-94q0-58-37-92.5t-98-34.5q-57 0-95.5 31t-38.5 96"/><glyph glyph-name="©" unicode="©" horiz-adv-x="1524" d="M850 960q-92 0-142.5-70.5T657 694q0-266 193-266 54 0 117 14.5t117 41.5V303q-114-54-239-54-194 0-300.5 118.5T438 696q0 209 105 325.5T837 1138q141 0 290-74l-71-160q-107 56-206 56M95 694q0 190 95 356.5T451.5 1313q166.5 96 357.5 96 190 0 356.5-95t262.5-261.5q96-166.5 96-358.5 0-187-92-351T1173.5 80Q1007-19 809-19q-196 0-362.5 98.5T187.5 342Q95 506 95 694m135 0q0-155 78-289.5t213-212Q656 115 809 115q156 0 290.5 78t212 213q77.5 135 77.5 288 0 156-78 290.5t-213 212Q963 1274 809 1274q-155 0-289.5-78t-212-213Q230 848 230 694"/><glyph glyph-name="«" unicode="«" horiz-adv-x="1119" d="M78 544l352 433 208-113-265-331 265-331L430 89 78 520m481 24l351 433 209-113-265-331 265-331L910 89 559 520"/><glyph glyph-name="­" unicode="­" horiz-adv-x="568" d="M58 403v237h510V403"/><glyph glyph-name="´" unicode="´" horiz-adv-x="864" d="M315 1179v26q164 190 224 286h325v-20q-50-50-169-147.5T508 1179"/><glyph glyph-name="»" unicode="»" horiz-adv-x="1119" d="M1119 520L767 89 559 202l264 331-264 331 208 113 352-433m-481-24L286 89 78 202l264 331L78 864l208 113 352-433"/><glyph glyph-name="Ё" unicode="Ё" horiz-adv-x="975" d="M975 0H175v1389h800v-241H469V843h471V601H469V243h506m64812 1413q0 61 35.5 94.5t96.5 33.5q63 0 98.5-35t35.5-93q0-57-36-92t-98-35q-61 0-96.5 33.5t-35.5 93.5m383 0q0 66 38.5 97t95.5 31q62 0 98.5-34t36.5-94q0-58-37-92.5t-98-34.5q-57 0-95.5 31t-38.5 96"/><glyph glyph-name="А" unicode="А" horiz-adv-x="1342" d="M1025 0L924 331H418L317 0H0l490 1395h360L1342 0M854 578q-140 449-157.5 508t-24.5 93q-32-122-180-601"/><glyph glyph-name="Б" unicode="Б" horiz-adv-x="1153" d="M469 856h116q272 0 420-110t148-312Q1153 0 580 0H175v1389h878v-243H469m0-905h99q149 0 218.5 48T856 434q0 96-70.5 138.5T544 615h-75"/><glyph glyph-name="В" unicode="В" horiz-adv-x="1205" d="M175 1389h432q295 0 428.5-84t133.5-268q0-124-58-204t-155-96v-9q132-30 190.5-110.5T1205 403q0-190-137.5-296.5T694 0H175m294 839h171q120 0 173.5 37T867 998q0 80-58.5 115T624 1148H469m0-543V243h192q122 0 180 46.5T899 432q0 173-247 173"/><glyph glyph-name="Г" unicode="Г" horiz-adv-x="1053" d="M1053 1389v-243H469V0H175v1389"/><glyph glyph-name="Д" unicode="Д" horiz-adv-x="1448" d="M10 245h107q138 276 217.5 551T453 1389h810V245h185v-650h-284V0H294v-405H10m677 1549q-31-218-101.5-461T427 245h542v899"/><glyph glyph-name="Е" unicode="Е" horiz-adv-x="975" d="M975 0H175v1389h800v-241H469V843h471V601H469V243h506"/><glyph glyph-name="Ж" unicode="Ж" horiz-adv-x="1834" d="M494 722L28 1389h303l449-673v673h274V716l450 673h304l-468-667L1834 0h-315l-465 704V0H780v704L315 0H0"/><glyph glyph-name="З" unicode="З" horiz-adv-x="1177" d="M1134 1064q0-134-95-221.5T782 732v-6q191-19 293-105.5T1177 395q0-192-155.5-303T592-19q-306 0-491 75v247q89-43 209-67t225-24q350 0 350 204 0 92-112.5 141.5T440 607H310v230h117q220 0 320.5 42T848 1017q0 72-63 114t-189 42q-196 0-378-113L89 1257q119 79 252 115.5t295 36.5q228 0 363-95t135-250"/><glyph glyph-name="И" unicode="И" horiz-adv-x="1426" d="M175 1389h265V718l-4-179-9-205h5l642 1055h352V0h-262v667q0 134 17 397h-8L529 0H175"/><glyph glyph-name="Й" unicode="Й" horiz-adv-x="1426" d="M175 1389h265V718l-4-179-9-205h5l642 1055h352V0h-262v667q0 134 17 397h-8L529 0H175m1085 1840q-18-178-134-259t-334-81q-225 0-333 78t-121 262h259q7-98 49-137.5t152-39.5q96 0 143 43.5t57 133.5"/><glyph glyph-name="К" unicode="К" horiz-adv-x="1307" d="M1307 0H973L469 704V0H175v1389h294V716l498 673h314L774 722"/><glyph glyph-name="Л" unicode="Л" horiz-adv-x="1274" d="M1274 0H980v1144H640l-15-128q-59-485-104-681T389.5 59Q303-21 156-19 76-19 15 2v241q55-19 104-19 50 0 79.5 46T254 441q26 125 69.5 409.5T397 1389h877"/><glyph glyph-name="М" unicode="М" horiz-adv-x="1660" d="M763 0L428 1090h-8q18-333 18-444V0H175v1389h401L904 327h6l349 1062h401V0h-275v657q0 47 1.5 108t12.5 323h-8L1033 0"/><glyph glyph-name="Н" unicode="Н" horiz-adv-x="1313" d="M1313 0h-294v599H469V0H175v1389h294V845h550v544h294"/><glyph glyph-name="О" unicode="О" horiz-adv-x="1435" d="M1435 696q0-344-171-529.5T774-19q-319 0-490 185.5T113 698q0 347 171.5 530T776 1411q320 0 489.5-184.5T1435 696m-1013 0q0-232 88-350t264-118q353 0 353 468 0 470-351 470-176 0-265-118.5T422 696"/><glyph glyph-name="П" unicode="П" horiz-adv-x="1274" d="M1274 0H980v1144H469V0H175v1389h1099"/><glyph glyph-name="Р" unicode="Р" horiz-adv-x="1134" d="M469 735h97q136 0 203.5 54T837 945q0 104-56.5 153.5T603 1148H469m665-192q0-224-140-343T596 494H469V0H175v1389h443q253 0 384.5-109T1134 956"/><glyph glyph-name="С" unicode="С" horiz-adv-x="1171" d="M765 1164q-167 0-258-125t-91-348q0-465 349-465 146 0 354 73V52Q948-19 737-19q-303 0-463.5 184T113 693q0 216 79 379t226.5 250q147.5 87 346.5 87 202 0 406-98l-95-239q-78 37-156.5 64.5T765 1164"/><glyph glyph-name="Т" unicode="Т" horiz-adv-x="1088" d="M711 0H416v1144H39v245h1049v-245H711"/><glyph glyph-name="У" unicode="У" horiz-adv-x="1270" d="M1270 1389L841 407q-81-186-152-266.5t-167.5-120Q425-19 286-19 167-19 65 10v252q83-34 208-34 79 0 127 36.5T481 391L0 1389h312l342-774h9l17 47 287 727"/><glyph glyph-name="Ф" unicode="Ф" horiz-adv-x="1586" d="M969 422h13q153 0 240 80t87 220q0 129-80.5 207.5T1008 1008h-39M704-19v214h-21q-177 0-310 62T163.5 443.5Q87 568 87 720q0 147 68 265.5T351.5 1171q128.5 67 302.5 67h50v171h265v-171h50q173 0 301.5-67t197-185.5Q1586 867 1586 720q0-152-76.5-276.5T1300 257q-133-62-310-62h-21V-19M704 1008h-39q-140 0-220.5-78T364 722q0-137 85.5-218.5T691 422h13"/><glyph glyph-name="Х" unicode="Х" horiz-adv-x="1298" d="M1298 0H961L638 525 315 0H0l461 716-432 673h325l300-500 293 500h317L828 700"/><glyph glyph-name="Ц" unicode="Ц" horiz-adv-x="1481" d="M1274 234h207v-639h-284V0H175v1389h294V245h511v1144h294"/><glyph glyph-name="Ч" unicode="Ч" horiz-adv-x="1242" d="M1242 0H947v537q-146-50-243.5-68T518 451q-199 0-306.5 95.5T104 815v574h293V899q0-101 46.5-152T601 696q78 0 155.5 16T947 767v622h295"/><glyph glyph-name="Ш" unicode="Ш" horiz-adv-x="1922" d="M1197 245h431v1144h294V0H175v1389h294V245h432v1144h296"/><glyph glyph-name="Щ" unicode="Щ" horiz-adv-x="2129" d="M1197 245h431v1144h294V234h207v-639h-284V0H175v1389h294V245h432v1144h296M2098 0"/><glyph glyph-name="Ъ" unicode="Ъ" horiz-adv-x="1327" d="M1327 434q0-216-145-325T753 0H349v1144H0v245h642V856h117q272 0 420-110t148-312M642 241h99q149 0 218.5 48t69.5 145q0 96-70.5 138.5T718 615h-76"/><glyph glyph-name="Ы" unicode="Ы" horiz-adv-x="1587" d="M1125 434q0-216-144-325T555 0H175v1389h294V856h95q267 0 414-110.5T1125 434M469 241h77q146 0 213 48t67 145q0 97-65 139t-228 42h-64M1587 0h-293v1389h293"/><glyph glyph-name="Ь" unicode="Ь" horiz-adv-x="1153" d="M1153 434Q1153 0 580 0H175v1389h294V856h116q272 0 420-110t148-312M469 241h99q149 0 218.5 48T856 434q0 96-70.5 138.5T544 615h-75"/><glyph glyph-name="Э" unicode="Э" horiz-adv-x="1177" d="M525 1164q-94 0-184.5-26.5T162 1074l-94 237q221 98 463 98 309 0 477.5-189.5T1177 693q0-344-173.5-528T504-19Q278-19 93 52v247q231-73 393-73 182 0 277.5 88.5T867 580H265v241h600q-5 161-96.5 252T525 1164"/><glyph glyph-name="Ю" unicode="Ю" horiz-adv-x="1969" d="M1969 696q0-342-160-528.5T1350-19q-275 0-432.5 158T735 599H469V0H175v1389h294V845h272q32 274 188.5 420t422.5 146q300 0 458.5-186.5T1969 696m-932 0q0-231 80-349.5T1350 228q315 0 315 468 0 232-78 351t-233 119q-156 0-236.5-119T1037 696"/><glyph glyph-name="Я" unicode="Я" horiz-adv-x="1119" d="M642 533L317 0H-10l396 611q-118 47-181 146.5T142 992q0 191 135.5 294T667 1389h452V0H825v533m0 615H679q-114 0-176.5-41T440 971q0-92 60.5-145.5T687 772h138"/><glyph glyph-name="а" unicode="а" horiz-adv-x="1029" d="M826 0l-56 144h-7Q690 52 612.5 16.5T410-19q-153 0-240.5 87.5T82 317q0 169 118 249.5T557 656l184 5v47q0 161-165 161-128 0-300-77l-96 196q184 96 407 96 214 0 328-93t114-283V0M741 492l-112-4q-126-4-188-45.5T379 315q0-122 141-122 100 0 160.5 58T741 405"/><glyph glyph-name="б" unicode="б" horiz-adv-x="1123" d="M87 636q0 366 139.5 555.5T661 1432q144 24 429 62l33-252q-124-15-438-61-120-19-179-57t-87.5-108.5Q390 945 383 828h14q50 78 133 120t178 42q196 0 305.5-120T1123 525q0-258-138.5-401T603-19q-243 0-379.5 174.5T87 636m533-420q206 0 206 284 0 276-186 276-51 0-102-23.5t-93-62Q403 652 383 613q0-193 61.5-295T620 216"/><glyph glyph-name="в" unicode="в" horiz-adv-x="1166" d="M1132 784q0-86-53.5-146T921 560v-7q113-13 179-77.5t66-158.5q0-155-122-236T696 0H152v1062h544q219 0 327.5-70.5T1132 784M865 332q0 63-48 91t-145 28H442V200h235q93 0 140.5 35t47.5 97m-26 429q0 97-154 97H442V648h210q92 0 139.5 26.5T839 761"/><glyph glyph-name="г" unicode="г" horiz-adv-x="885" d="M885 1062V845H442V0H152v1062"/><glyph glyph-name="д" unicode="д" horiz-adv-x="1263" d="M817 212v633H599q-23-177-64.5-335.5T420 212m843-593h-261V0H288v-381H28v593h89q91 141 153 357t86 493h751V212h156"/><glyph glyph-name="е" unicode="е" horiz-adv-x="1066" d="M592 876q-92 0-144.5-58.5T388 652h406q-2 107-56 165.5T592 876m41-895q-257 0-401.5 141.5T87 523q0 267 133.5 413T590 1082q225 0 350.5-128T1066 599V459H381q5-124 73-193t192-69q96 0 181.5 20t178.5 63V56Q930 18 843.5-.5T633-19"/><glyph glyph-name="ж" unicode="ж" horiz-adv-x="1699" d="M714 546v516h270V546l378 516h300l-392-509L1699 0h-310L984 539V0H714v539L310 0H0l428 553-391 509h299"/><glyph glyph-name="з" unicode="з" horiz-adv-x="1006" d="M416 654q164 0 233 26.5t69 84.5q0 51-50 76.5T502 867q-74 0-166.5-18T167 800l-85 202q113 43 219.5 61.5T539 1082q198 0 318-76t120-206q0-180-212-234v-9q130-33 185.5-92t55.5-155q0-97-62.5-172T762 22Q643-19 483-19 217-19 74 47v239q82-38 179.5-60T442 204q141 0 211.5 32t70.5 91q0 64-74 95t-228 31H310v201"/><glyph glyph-name="и" unicode="и" horiz-adv-x="1249" d="M432 1062V642q0-66-22-325l491 745h348V0H969v424q0 113 19 319L500 0H152v1062"/><glyph glyph-name="й" unicode="й" horiz-adv-x="1249" d="M432 1062V642q0-66-22-325l491 745h348V0H969v424q0 113 19 319L500 0H152v1062m1011 457q-18-178-134-259t-334-81q-225 0-333 78t-121 262h259q7-98 49-137.5t152-39.5q96 0 143 43.5t57 133.5"/><glyph glyph-name="к" unicode="к" horiz-adv-x="1205" d="M848 1062h320L747 553 1205 0H876L442 539V0H152v1062h290V546"/><glyph glyph-name="л" unicode="л" horiz-adv-x="1103" d="M1103 0H813v845H546q-30-357-74-532T355.5 59.5Q283-19 165-19 65-19 0 11v232q47-19 93-19 54 0 90.5 78T249 562q29 182 50 500h804"/><glyph glyph-name="м" unicode="м" horiz-adv-x="1491" d="M1491 0h-271v837l-15-59q-52-200-93-303L924 0H718L527 479q-41 104-87 293l-18 65V0H152v1062h399l182-453q29-73 53-168t33-163q31 143 48.5 205T906 597.5q21 52.5 189 464.5h396"/><glyph glyph-name="н" unicode="н" horiz-adv-x="1136" d="M442 1062V654h404v408h290V0H846v438H442V0H152v1062"/><glyph glyph-name="о" unicode="о" horiz-adv-x="1117" d="M383 533q0-158 51.5-238.5T603 214q116 0 167 80t51 239q0 158-51.5 236.5T601 848q-116 0-167-78t-51-237m734 0q0-259-136.5-405.5T599-19q-153 0-269.5 67T150 240.5Q87 366 87 533q0 260 136 404.5T605 1082q153 0 270-66.5t179.5-191Q1117 700 1117 533"/><glyph glyph-name="п" unicode="п" horiz-adv-x="1117" d="M1117 1062V0H826v845H442V0H152v1062"/><glyph glyph-name="р" unicode="р" horiz-adv-x="1144" d="M735-19q-187 0-293 136h-15q15-133 15-154v-430H152v1529h236l40-138h14q101 158 301 158 188 0 294.5-145.5T1144 533q0-170-50-295.5t-142-191Q860-19 735-19m-85 869q-108 0-157-66t-51-218v-31q0-171 50.5-245T654 216q194 0 194 321 0 157-48 235t-150 78"/><glyph glyph-name="с" unicode="с" horiz-adv-x="940" d="M583-19Q87-19 87 525q0 271 135 414t387 143q184 0 331-72l-86-224q-68 27-127 44.5T609 848q-226 0-226-321 0-311 226-311 84 0 155 22t142 70V60Q836 15 764.5-2T583-19"/><glyph glyph-name="т" unicode="т" horiz-adv-x="1031" d="M1031 1062V845H683V0H393v845H45v217"/><glyph glyph-name="у" unicode="у" horiz-adv-x="1107" d="M0 1062h317l201-597q25-78 35-185h6q10 98 40 185l197 597h311L657-136q-61-166-175.5-248.5T214-467q-75 0-148 16v230q53-13 114-13 77 0 134.5 47T405-45l17 53"/><glyph glyph-name="ф" unicode="ф" horiz-adv-x="1496" d="M928 1068q266-22 417-164.5T1496 531q0-235-149-376T928-8v-459H659V-8Q390 17 238.5 161T87 531q0 240 146.5 379.5T659 1068v410h269M386 531q0-134 73-218t200-101v638q-122-16-197.5-103.5T386 531m813 0q0 125-71.5 211T928 846V212q126 17 198.5 101.5T1199 531"/><glyph glyph-name="х" unicode="х" horiz-adv-x="1115" d="M370 542L28 1062h328l206-338 208 338h329L753 542 1115 0H786L562 364 338 0H10"/><glyph glyph-name="ц" unicode="ц" horiz-adv-x="1311" d="M1156 212h155v-593h-260V0H152v1062h290V218h423v844h291"/><glyph glyph-name="ч" unicode="ч" horiz-adv-x="1125" d="M407 1062V674q0-139 128-139 83 0 155 19t145 49v459h290V0H835v422q-101-53-187.5-75T481 325q-174 0-269 89t-95 253v395"/><glyph glyph-name="ш" unicode="ш" horiz-adv-x="1734" d="M1734 0H152v1062h290V218h356v844h290V218h356v844h290"/><glyph glyph-name="щ" unicode="щ" horiz-adv-x="1890" d="M1734 212h156v-593h-262V0H152v1062h290V218h356v844h290V218h356v844h290M1886 0"/><glyph glyph-name="ъ" unicode="ъ" horiz-adv-x="1313" d="M629 1062V652h204q245 0 362.5-78T1313 338Q1313 0 845 0H338v845H0v217m1023-728q0 62-49 89.5T826 451H629V200h201q193 0 193 134"/><glyph glyph-name="ы" unicode="ы" horiz-adv-x="1502" d="M442 652h139q244 0 360.5-78T1058 338q0-168-116.5-253T592 0H152v1062h290m327-728q0 62-49.5 89.5T572 451H442V200h134q193 0 193 134M1502 0h-290v1062h290"/><glyph glyph-name="ь" unicode="ь" horiz-adv-x="1127" d="M442 652h204q245 0 363-78t118-236Q1127 0 657 0H152v1062h290m395-728q0 62-49.5 89.5T640 451H442V200h202q193 0 193 134"/><glyph glyph-name="э" unicode="э" horiz-adv-x="908" d="M397-19Q198-19 70 47v226q166-76 311-76 104 0 161 60.5T609 440H208v193h401q-8 117-58.5 175.5T405 867q-113 0-247-59l-82 198q71 33 161 54.5t179 21.5q249 0 370.5-135T908 542q0-277-128.5-419T397-19"/><glyph glyph-name="ю" unicode="ю" horiz-adv-x="1619" d="M1619 533q0-261-132-406.5T1121-19Q911-19 785 99T633 438H442V0H152v1062h290V654h194q28 203 157.5 315.5T1127 1082q225 0 358.5-147.5T1619 533m-695 0q0-159 46.5-239t154.5-80q105 0 151.5 80t46.5 239q0 159-47 237t-153 78q-106 0-152.5-78.5T924 533"/><glyph glyph-name="я" unicode="я" horiz-adv-x="1002" d="M314 0H0l286 420q-103 43-155.5 123.5T78 733q0 154 115.5 241.5T508 1062h494V0H712v395H553M362 732q0-67 52-104.5T551 590h161v268H514q-71 0-111.5-35T362 732"/><glyph glyph-name="ё" unicode="ё" horiz-adv-x="1066" d="M592 876q-92 0-144.5-58.5T388 652h406q-2 107-56 165.5T592 876m41-895q-257 0-401.5 141.5T87 523q0 267 133.5 413T590 1082q225 0 350.5-128T1066 599V459H381q5-124 73-193t192-69q96 0 181.5 20t178.5 63V56Q930 18 843.5-.5T633-19M267 1335q0 61 35.5 94.5T399 1463q63 0 98.5-35t35.5-93q0-57-36-92t-98-35q-61 0-96.5 33.5T267 1335m383 0q0 66 38.5 97t95.5 31q62 0 98.5-34t36.5-94q0-58-37-92.5t-98-34.5q-57 0-95.5 31t-38.5 96"/><glyph glyph-name="—" unicode="—" horiz-adv-x="1868" d="M78 414v219h1790V414"/><glyph glyph-name="€" unicode="€" horiz-adv-x="1097" d="M763 1164q-116 0-191-67t-97-195h383V735H461l-2-33v-45l2-31h337V457H477q48-231 305-231 136 0 261 54V37Q933-19 765-19q-233 0-383 126.5T193 457H63v169h112q-4 22-4 59l2 50H63v167h126q35 230 189 363.5T763 1399q178 0 334-78l-93-220q-65 29-122 46t-119 17"/><glyph glyph-name="₽" unicode="₽" horiz-adv-x="1132" d="M-13 142v200h189v152H-13v242h189l-1 655 424-2q79-1 192-18 88-14 145-47 64-38 101-79 34-37 55-84 17-38 28-83 7-27 10-81 2-47 2-53-1-77-12-114-22-78-34-99-20-38-52-74-92-106-224-139-78-20-175-21l-166-3V342h299V142H469L468 0H175l1 142m293 594l132 1q60 1 108 18 44 15 74 49 26 30 40 66 13 37 13 79 0 44-14 79-16 40-39 64-24 25-77 42-40 14-104 14H468"/><glyph horiz-adv-x="444" d="M395 461H163l-48 928h329M111 136q0 80 43 120.5T278 297q79 0 122.5-41.5T444 136q0-75-44-118.5T278-26q-79 0-123 42.5T111 136"/><glyph glyph-name="!" unicode="!" horiz-adv-x="792" d="M391 1389l-39-502H165l-39 502m666 0l-39-502H566l-39 502"/><glyph glyph-name="&quot;" unicode="&quot;" horiz-adv-x="1214" d="M949 802l-45-221h246V386H867L794 0H585l74 386H475L403 0H199l70 386H43v195h263l45 221H111v198h275l73 387h208l-73-387h188l74 387h204l-74-387h228V802M512 581h186l45 221H557"/><glyph glyph-name="#" unicode="#" horiz-adv-x="1037" d="M1037 434q0-151-109-242.5T622 82v-195H492V78q-232 5-406 82v250q82-40 198.5-71.5T492 301v295l-64 24q-188 74-266 161T84 997q0 137 107.5 226T492 1331v145h130v-141q218-10 394-88l-90-222q-148 61-304 74V819q186-71 264-123.5t114.5-115Q1037 518 1037 434m-286-14q0 40-32 67.5T622 544V308q129 22 129 112M370 997q0-42 29-69t93-56v223q-122-18-122-98"/><glyph glyph-name="$" unicode="$" horiz-adv-x="1693" d="M299 973q0-121 21.5-180.5T390 733q91 0 91 240 0 237-91 237-48 0-69.5-58.5T299 973m421 2q0-219-84.5-328.5T388 537q-157 0-242.5 112.5T60 975q0 434 328 434 160 0 246-112.5T720 975m654 414L603 0H375l771 1389m126-971q0-121 21.5-180t68.5-59q92 0 92 239 0 238-92 238-47 0-68.5-58.5T1272 418m421 2q0-218-84.5-327.5T1360-17q-156 0-241.5 112.5T1033 420q0 434 327 434 161 0 247-112.5t86-321.5"/><glyph glyph-name="%" unicode="%" horiz-adv-x="1459" d="M1459 0h-358L992 107Q810-19 581-19 350-19 214 87.5T78 375q0 130 57.5 222T332 769q-71 81-103 155.5T197 1088q0 144 110.5 232.5T603 1409q177 0 283-82.5T992 1107q0-113-65.5-206.5T714 722l270-263q68 111 117 286h302q-34-128-94-250.5T1173 278M383 403q0-82 61-130.5T601 224q120 0 216 58L502 596q-56-42-87.5-87.5T383 403m341 673q0 51-34 80t-89 29q-63 0-99.5-30.5T465 1068q0-84 90-184 81 45 125 89t44 103"/><glyph glyph-name="&amp;" unicode="&amp;" horiz-adv-x="391" d="M391 1389l-39-502H165l-39 502"/><glyph glyph-name="'" unicode="'" horiz-adv-x="601" d="M78 533q0 252 73.5 471.5T364 1389h237q-134-183-202-402.5T331 535q0-233 69.5-450T599-308H364Q224-146 151 69.5T78 533"/><glyph glyph-name="(" unicode="(" horiz-adv-x="581" d="M581 533q0-250-73.5-465.5T295-308H60Q188-133 258.5 84T329 535q0 232-68.5 451.5T58 1389h237q140-166 213-386t73-470"/><glyph glyph-name=")" unicode=")" horiz-adv-x="1000" d="M654 1478l-39-349 354 98 31-239-323-23 212-282-215-115-149 297-130-295-224 113 210 282-321 25 37 237 347-98-39 349"/><glyph glyph-name="*" unicode="*" horiz-adv-x="1027" d="M451 581H84v208h367v371h208V789h368V581H659V216H451"/><glyph glyph-name="+" unicode="+" horiz-adv-x="436" d="M436 204Q387 12 269-251H60q62 253 96 477h266"/><glyph glyph-name="," unicode="," horiz-adv-x="568" d="M58 403v237h510V403"/><glyph glyph-name="-" unicode="-" horiz-adv-x="444" d="M111 136q0 80 43 120.5T278 297q79 0 122.5-41.5T444 136q0-75-44-118.5T278-26q-79 0-123 42.5T111 136"/><glyph glyph-name="." unicode="." horiz-adv-x="794" d="M794 1389L276 0H13l518 1389"/><glyph glyph-name="/" unicode="/" horiz-adv-x="1041" d="M1041 694q0-363-119-538T555-19q-241 0-363 180.5T70 694q0 368 119 542.5T555 1411q240 0 363-182.5T1041 694m-679 0q0-255 44-365.5T555 218q102 0 148 112t46 364q0 256-46.5 367.5T555 1173q-104 0-148.5-111.5T362 694"/><glyph glyph-name="0" unicode="0" horiz-adv-x="804" d="M804 0H510v804l3 132 5 144q-73-73-102-96L256 856l-141 177 447 356h242"/><glyph glyph-name="1" unicode="1" horiz-adv-x="1049" d="M1049 0H78v204l349 353q154 158 201.5 219.5T697 890q21 52 21 108 0 84-46 125t-123 41q-81 0-157-37t-158-106L74 1210q103 88 170.5 124t147 55.5Q471 1409 570 1409q130 0 230-47.5t155-133q55-85.5 55-195.5 0-96-34-180T871.5 680.5Q801 592 622 428L444 260v-13h605"/><glyph glyph-name="2" unicode="2" horiz-adv-x="1036" d="M995 1078q0-130-79-221T694 732v-6q169-21 255.5-102.5T1036 405q0-201-145.5-312.5T475-19Q249-19 74 56v250q81-41 178-66.5T444 214q145 0 214.5 49.5T728 422q0 98-80 138.5T393 601H288v225h107q162 0 236.5 42.5T706 1014q0 157-198 157-68 0-139-22.5T212 1070L76 1272q190 137 453 137 216 0 341-87.5T995 1078"/><glyph glyph-name="3" unicode="3" horiz-adv-x="1080" d="M1080 288H913V0H626v288H33v204l609 897h271V516h167m-454 0v235q0 59 5 171.5t7 130.5h-7q-35-78-85-152L292 516"/><glyph glyph-name="4" unicode="4" horiz-adv-x="1023" d="M583 887q202 0 321-113t119-309q0-233-143.5-358.5T469-19Q238-19 95 56v254q75-40 175-65.5T459 219q269 0 269 221 0 210-279 210-50 0-111-10t-99-22l-116 63 52 708h753v-249H432l-25-273 33 7q58 13 143 13"/><glyph glyph-name="5" unicode="5" horiz-adv-x="1049" d="M68 590q0 412 174.5 613.5T765 1405q119 0 186-14v-235q-85 19-167 19-151 0-246.5-45.5t-143-135Q347 905 338 741h13q94 161 301 161 186 0 291.5-116.5T1049 463q0-223-125.5-352.5T576-19q-154 0-268.5 71.5t-177 208Q68 397 68 590m502-374q94 0 144.5 63T765 459q0 101-47 159.5T576 677q-90 0-153-58t-63-135q0-113 59.5-190.5T570 216"/><glyph glyph-name="6" unicode="6" horiz-adv-x="1049" d="M216 0l521 1140H52v247h997v-184L523 0"/><glyph glyph-name="7" unicode="7" horiz-adv-x="1043" d="M557 1407q199 0 321-90.5t122-244.5q0-107-58.5-190T751 733q156-83 224-174t68-199q0-171-134-275T557-19q-228 0-358.5 97T68 352q0 119 63.5 211.5T334 726q-118 75-170.5 160.5T111 1074q0 149 123.5 241t322.5 92M340 370q0-82 57-127.5T553 197q109 0 163 47t54 124q0 63-53.5 118.5T542 605q-202-93-202-235m215 822q-75 0-121-38.5T388 1051q0-57 36.5-102.5T557 856q93 44 130 89.5t37 105.5q0 65-47.5 103T555 1192"/><glyph glyph-name="8" unicode="8" horiz-adv-x="1043" d="M1043 796q0-410-173-612.5T347-19Q223-19 160-6v236q79-20 167-20 147 0 242 43t145.5 136Q765 482 772 644h-11q-55-89-127.5-125T453 483q-181 0-285.5 116T63 922q0 224 126.5 353.5T535 1405q154 0 269.5-72t177-209.5Q1043 986 1043 796m-502 373q-92 0-143-62.5T347 926q0-100 46.5-159T535 708q89 0 152.5 58.5T751 901q0 113-59 190.5T541 1169"/><glyph glyph-name="9" unicode="9" horiz-adv-x="444" d="M111 136q0 80 43 120.5T278 297q79 0 122.5-41.5T444 136q0-75-44-118.5T278-26q-79 0-123 42.5T111 136m0 785q0 79 43 120t124 41q79 0 122.5-42T444 921q0-77-44.5-119.5T278 759q-79 0-123 42t-44 120"/><glyph glyph-name=":" unicode=":" horiz-adv-x="444" d="M422 226l14-22Q387 12 269-251H60q62 253 96 477m-45 695q0 79 43 120t124 41q79 0 122.5-42T444 921q0-77-44.5-119.5T278 759q-79 0-123 42t-44 120"/><glyph glyph-name=";" unicode=";" horiz-adv-x="1027" d="M1027 193L84 609v136l943 471V988L377 687l650-267"/><glyph glyph-name="&lt;" unicode="&lt;" horiz-adv-x="1027" d="M84 765v208h943V765M84 397v208h943V397"/><glyph glyph-name="=" unicode="=" horiz-adv-x="1027" d="M84 420l649 267L84 988v228l943-471V609L84 193"/><glyph glyph-name="&gt;" unicode="&gt;" horiz-adv-x="882" d="M262 461v70q0 91 39 158.5T444 833q99 71 131 116t32 100q0 62-45.5 94T434 1175q-142 0-325-93L6 1290q212 119 449 119 196 0 311.5-94T882 1064q0-104-47.5-180T654 712q-92-67-116-102t-24-92v-57M232 136q0 80 42.5 120.5T399 297q79 0 122-41.5T564 136q0-75-43.5-118.5T399-26q-80 0-123.5 42.5T232 136"/><glyph glyph-name="?" unicode="?" horiz-adv-x="1648" d="M1648 714q0-136-43.5-249.5T1481 286q-80-65-185-65-70 0-124.5 34t-78.5 89h-15Q976 221 817 221q-168 0-265 101.5T455 599q0 201 127.5 323.5T915 1045q82 0 180-15.5t162-37.5l-22-465q0-132 72-132 61 0 97 89t36 232q0 153-63.5 270.5t-179 179Q1082 1227 934 1227q-192 0-333.5-78.5T383.5 921Q308 772 308 578q0-263 140-403T854 35q101 0 221.5 22.5T1313 123V-60q-203-86-451-86-361 0-563 190T97 572q0 235 103 426t293.5 300Q684 1407 932 1407q209 0 373.5-85.5t253.5-243q89-157.5 89-364.5M675 596q0-201 164-201 85 0 130 60.5t54 196.5l13 210q-49 10-110 10-118 0-184.5-74T675 596"/><glyph glyph-name="@" unicode="@" horiz-adv-x="1342" d="M1025 0L924 331H418L317 0H0l490 1395h360L1342 0M854 578q-140 449-157.5 508t-24.5 93q-32-122-180-601"/><glyph glyph-name="A" unicode="A" horiz-adv-x="1205" d="M175 1389h432q295 0 428.5-84t133.5-268q0-124-58-204t-155-96v-9q132-30 190.5-110.5T1205 403q0-190-137.5-296.5T694 0H175m294 839h171q120 0 173.5 37T867 998q0 80-58.5 115T624 1148H469m0-543V243h192q122 0 180 46.5T899 432q0 173-247 173"/><glyph glyph-name="B" unicode="B" horiz-adv-x="1171" d="M765 1164q-167 0-258-125t-91-348q0-465 349-465 146 0 354 73V52Q948-19 737-19q-303 0-463.5 184T113 693q0 216 79 379t226.5 250q147.5 87 346.5 87 202 0 406-98l-95-239q-78 37-156.5 64.5T765 1164"/><glyph glyph-name="C" unicode="C" horiz-adv-x="1327" d="M1327 708q0-343-195-525.5T568 0H175v1389h436q340 0 528-179.5T1327 708m-306-8q0 448-395 448H469V243h127q425 0 425 457"/><glyph glyph-name="D" unicode="D" horiz-adv-x="975" d="M975 0H175v1389h800v-241H469V843h471V601H469V243h506"/><glyph glyph-name="E" unicode="E" horiz-adv-x="971" d="M465 0H175v1389h796v-241H465V789h471V549H465"/><glyph glyph-name="F" unicode="F" horiz-adv-x="1253" d="M702 780h551V60q-134-44-252-61.5T759-19q-314 0-480 185T113 696q0 337 192.5 525T839 1409q214 0 412-86l-98-235q-152 76-316 76-191 0-306-128.5T416 691q0-226 92.5-345.5T778 226q92 0 187 19v290H702"/><glyph glyph-name="G" unicode="G" horiz-adv-x="1313" d="M1313 0h-294v599H469V0H175v1389h294V845h550v544h294"/><glyph glyph-name="H" unicode="H" horiz-adv-x="469" d="M175 0v1389h294V0"/><glyph glyph-name="I" unicode="I" horiz-adv-x="469" d="M29-408q-99 0-173 20v246q76-20 138-20 97 0 139 60.5T175 87v1302h294V89q0-243-111-370T29-408"/><glyph glyph-name="J" unicode="J" horiz-adv-x="1292" d="M1292 0H958L594 585l-125-89V0H175v1389h294V753l116 164 376 472h327L804 774"/><glyph glyph-name="K" unicode="K" horiz-adv-x="1033" d="M175 0v1389h294V243h564V0"/><glyph glyph-name="L" unicode="L" horiz-adv-x="1660" d="M763 0L428 1090h-8q18-333 18-444V0H175v1389h401L904 327h6l349 1062h401V0h-275v657q0 47 1.5 108t12.5 323h-8L1033 0"/><glyph glyph-name="M" unicode="M" horiz-adv-x="1407" d="M1407 0h-374L428 1051h-8q18-279 18-397V0H175v1389h371l604-1040h6q-14 270-14 383v657h265"/><glyph glyph-name="N" unicode="N" horiz-adv-x="1435" d="M1435 696q0-344-171-529.5T774-19q-319 0-490 185.5T113 698q0 347 171.5 530T776 1411q320 0 489.5-184.5T1435 696m-1013 0q0-232 88-350t264-118q353 0 353 468 0 470-351 470-176 0-265-118.5T422 696"/><glyph glyph-name="O" unicode="O" horiz-adv-x="1134" d="M469 735h97q136 0 203.5 54T837 945q0 104-56.5 153.5T603 1148H469m665-192q0-224-140-343T596 494H469V0H175v1389h443q253 0 384.5-109T1134 956"/><glyph glyph-name="P" unicode="P" horiz-adv-x="1435" d="M1435 696q0-245-86.5-410.5T1093 43l335-374h-377L796-19h-22q-319 0-490 185.5T113 698q0 347 171.5 530T776 1411q320 0 489.5-184.5T1435 696m-1013 0q0-232 88-350t264-118q353 0 353 468 0 470-351 470-176 0-265-118.5T422 696"/><glyph glyph-name="Q" unicode="Q" horiz-adv-x="1284" d="M469 772h95q140 0 206.5 46.5T837 965q0 99-68 141t-210 42h-90m0-615V0H175v1389h405q283 0 418.5-103T1134 973q0-123-67.5-218.5T876 605q313-468 408-605H958L626 533"/><glyph glyph-name="R" unicode="R" horiz-adv-x="995" d="M995 386q0-188-135.5-296.5T483-19Q260-19 89 65v273q141-62 238.5-88T505 224q97 0 149 37t52 110q0 41-23 73t-67 61.5Q572 535 436 599q-127 60-191 115.5T143 843q-38 73-38 171 0 184 125 289.5T576 1409q108 0 206.5-25.5T988 1311l-95-229q-111 46-184 64t-143 18q-83 0-128-39t-45-102q0-39 18-68t57.5-56Q508 872 656 802q194-93 266.5-186.5T995 386"/><glyph glyph-name="S" unicode="S" horiz-adv-x="1088" d="M711 0H416v1144H39v245h1049v-245H711"/><glyph glyph-name="T" unicode="T" horiz-adv-x="1305" d="M1305 1389V490q0-154-68.5-270t-199-177.5Q907-19 730-19q-268 0-416.5 137.5T165 494v895h294V539q0-161 64.5-236T737 228q145 0 210 75.5t65 237.5v848"/><glyph glyph-name="U" unicode="U" horiz-adv-x="1264" d="M967 1389h297L792 0H471L0 1389h297l262-827q21-73 44.5-170.5T633 256q10 88 71 306"/><glyph glyph-name="V" unicode="V" horiz-adv-x="1881" d="M1528 0h-336l-188 730q-10 39-35.5 161T940 1054q-6-51-29-164.5T876 728L689 0H354L0 1389h290l177-758q47-210 68-364 6 54 26 167.5T599 611l203 778h278l202-778q14-52 34-159.5t30-184.5q10 74 30.5 184.5T1415 631l176 758h290"/><glyph glyph-name="W" unicode="W" horiz-adv-x="1298" d="M1298 0H961L638 525 315 0H0l461 716-432 673h325l300-500 293 500h317L828 700"/><glyph glyph-name="X" unicode="X" horiz-adv-x="1214" d="M607 817l290 572h317L753 541V0H461v531L0 1389h319"/><glyph glyph-name="Y" unicode="Y" horiz-adv-x="1080" d="M1080 0H47v191l665 955H65v243h997v-190L397 243h683"/><glyph glyph-name="Z" unicode="Z" horiz-adv-x="596" d="M596-308H136v1697h460v-201H383V-107h213"/><glyph glyph-name="[" unicode="[" horiz-adv-x="792" d="M275 1389L792 0H529L11 1389"/><glyph glyph-name="\" unicode="\" horiz-adv-x="508" d="M48-107h212v1295H48v201h460V-308H48"/><glyph glyph-name="]" unicode="]" horiz-adv-x="1031" d="M8 494l416 902h136l471-902H804l-306 611-266-611"/><glyph glyph-name="^" unicode="^" horiz-adv-x="804" d="M804-308H-4v133h808"/><glyph glyph-name="_" unicode="_" horiz-adv-x="864" d="M672 1179q-60 42-176 135.5T315 1471v20h325q60-96 224-286v-26"/><glyph glyph-name="`" unicode="`" horiz-adv-x="1029" d="M826 0l-56 144h-7Q690 52 612.5 16.5T410-19q-153 0-240.5 87.5T82 317q0 169 118 249.5T557 656l184 5v47q0 161-165 161-128 0-300-77l-96 196q184 96 407 96 214 0 328-93t114-283V0M741 492l-112-4q-126-4-188-45.5T379 315q0-122 141-122 100 0 160.5 58T741 405"/><glyph glyph-name="a" unicode="a" horiz-adv-x="1144" d="M743 1082q188 0 294.5-147T1144 533q0-263-110-407.5T735-19q-187 0-293 136h-20L373 0H152v1478h290v-344q0-65-12-210h12q101 158 301 158m-93-232q-108 0-157-66t-51-218v-31q0-171 50.5-245T654 216q89 0 141.5 82T848 537q0 157-53 235t-145 78"/><glyph glyph-name="b" unicode="b" horiz-adv-x="940" d="M583-19Q87-19 87 525q0 271 135 414t387 143q184 0 331-72l-86-224q-68 27-127 44.5T609 848q-226 0-226-321 0-311 226-311 84 0 155 22t142 70V60Q836 15 764.5-2T583-19"/><glyph glyph-name="c" unicode="c" horiz-adv-x="1080" d="M488-19q-187 0-294 145.5T87 529q0 261 109 407t300 146q200 0 306-156h9q-22 119-22 212v340h291V0H858l-56 138h-13Q691-19 488-19m102 231q111 0 163 64.5T809 496v31q0 171-52.5 245T585 846q-97 0-150.5-82T381 525q0-156 54-234.5T590 212"/><glyph glyph-name="d" unicode="d" horiz-adv-x="1066" d="M592 876q-92 0-144.5-58.5T388 652h406q-2 107-56 165.5T592 876m41-895q-257 0-401.5 141.5T87 523q0 267 133.5 413T590 1082q225 0 350.5-128T1066 599V459H381q5-124 73-193t192-69q96 0 181.5 20t178.5 63V56Q930 18 843.5-.5T633-19"/><glyph glyph-name="e" unicode="e" horiz-adv-x="841" d="M739 845H488V0H199v845H39v139l160 78v78q0 181 89 265t286 84q150 0 267-45l-74-213q-88 28-162 28-62 0-89.5-36.5T488 1129v-67h251"/><glyph glyph-name="f" unicode="f" horiz-adv-x="1076" d="M1076 1062V915l-166-43q46-71 46-160 0-170-119.5-265.5T505 351l-52 2-43 5q-44-34-44-76 0-63 159-63h181q175 0 266.5-75T1064-76q0-186-155.5-288.5T463-467q-223 0-340 77T6-173Q6-77 65.5-12.5T241 80q-44 19-77.5 62T130 234q0 60 35 100.5T267 414q-84 36-132.5 116T86 718q0 174 113 269t323 95q44 0 105.5-8t78.5-12M256-150q0-60 57.5-94T475-278q156 0 244.5 42.5T808-119q0 60-52.5 83T594-13H444q-80 0-134-37.5T256-150m106 864q0-86 39.5-136.5T522 527q81 0 119 50.5T679 714q0 192-157 192-160 0-160-192"/><glyph glyph-name="g" unicode="g" horiz-adv-x="1132" d="M1132 0H843v620q0 230-171 230-122 0-176-82.5T442 500V0H152v1478h290v-301q0-35-7-165l-7-86h16q97 156 307 156 188 0 284.5-100.5T1132 693"/><glyph glyph-name="h" unicode="h" horiz-adv-x="455" d="M140 1337q0 141 157 141 158 0 158-141 0-68-39.5-105.5T297 1194q-157 0-157 143M442 0H152v1062h290"/><glyph glyph-name="i" unicode="i" horiz-adv-x="455" d="M66-467q-111 0-190 23v228q66-18 135-18 74 0 107.5 41T152-72v1134h290V-115q0-169-98-260.5T66-467m74 1804q0 141 157 141 158 0 158-141 0-68-39.5-105.5T297 1194q-157 0-157 143"/><glyph glyph-name="j" unicode="j" horiz-adv-x="1206" d="M430 578l127 161 297 323h327L759 601 1206 0H872L566 430l-124-99V0H152v1478h290V819l-15-241"/><glyph glyph-name="k" unicode="k" horiz-adv-x="442" d="M442 0H152v1478h290"/><glyph glyph-name="l" unicode="l" horiz-adv-x="1765" d="M1103 0H813v620q0 115-38.5 172.5T654 850q-112 0-162-81.5T442 500V0H152v1062h221l39-136h16q43 73 124 114.5t185 41.5q239 0 323-156h26q43 74 126 115t187 41q181 0 273.5-92.5T1765 693V0h-291v620q0 115-38.5 172.5T1315 850q-107 0-159.5-76T1103 533"/><glyph glyph-name="m" unicode="m" horiz-adv-x="1132" d="M1132 0H843v620q0 115-41 172.5T672 850q-122 0-176-81t-54-269V0H152v1062h221l39-136h16q49 77 134 116.5t193 39.5q185 0 281-100t96-289"/><glyph glyph-name="n" unicode="n" horiz-adv-x="1117" d="M383 533q0-158 51.5-238.5T603 214q116 0 167 80t51 239q0 158-51.5 236.5T601 848q-116 0-167-78t-51-237m734 0q0-259-136.5-405.5T599-19q-153 0-269.5 67T150 240.5Q87 366 87 533q0 260 136 404.5T605 1082q153 0 270-66.5t179.5-191Q1117 700 1117 533"/><glyph glyph-name="o" unicode="o" horiz-adv-x="1144" d="M735-19q-187 0-293 136h-15q15-133 15-154v-430H152v1529h236l40-138h14q101 158 301 158 188 0 294.5-145.5T1144 533q0-170-50-295.5t-142-191Q860-19 735-19m-85 869q-108 0-157-66t-51-218v-31q0-171 50.5-245T654 216q194 0 194 321 0 157-48 235t-150 78"/><glyph glyph-name="p" unicode="p" horiz-adv-x="1080" d="M592 208q110 0 161.5 63T809 492v35q0 171-52.5 245T587 846q-204 0-204-321 0-159 50.5-238T592 208M488-19q-188 0-294.5 145T87 529q0 260 109 406.5T494 1082q101 0 176-38t132-118h7l26 136h245V-467H789v445q0 58 13 160h-13Q743 61 666 21T488-19"/><glyph glyph-name="q" unicode="q" horiz-adv-x="843" d="M745 1082q59 0 98-8l-22-272q-35 9-86 9-138 0-215.5-71T442 541V0H152v1062h219l43-178h14q50 89 134 143.5t183 54.5"/><glyph glyph-name="r" unicode="r" horiz-adv-x="893" d="M893 315q0-163-113.5-248.5T440-19Q324-19 242.5-3.5T89 43v239q81-38 182-63.5T449 193q158 0 158 91 0 34-21 55.5T514 388q-51 27-137 63-122 52-179.5 95.5t-84 100Q87 703 87 786q0 141 110 218.5t311 77.5q192 0 374-84l-88-209q-80 35-149 56.5T504 867q-129 0-129-69 0-39 41.5-67.5T598 646q124-50 182-94t85.5-101Q893 394 893 315"/><glyph glyph-name="s" unicode="s" horiz-adv-x="782" d="M599 212q76 0 183 33V29Q674-19 516-19q-174 0-253.5 88T183 332v513H45v122l159 97 84 224h185v-226h297V845H473V332q0-61 34.5-90.5T599 212"/><glyph glyph-name="t" unicode="t" horiz-adv-x="1127" d="M904 0l-39 136h-15Q804 62 718.5 21.5T523-19Q336-19 241 81t-95 289v692h290V442q0-115 41-172.5T607 212q122 0 176 81t54 269v500h290V0"/><glyph glyph-name="u" unicode="u" horiz-adv-x="1107" d="M405 0L0 1062h303l205-605q34-115 43-218h6q4 92 42 218l205 605h303L702 0"/><glyph glyph-name="v" unicode="v" horiz-adv-x="1646" d="M1025 0l-82 371-110 470h-7L633 0H321L19 1062h289l122-470q30-126 60-349h6q4 72 33 229l15 81 131 509h320l124-509q4-21 12-62t15.5-87q7.5-46 14-90t7.5-71h5q9 69 31 188t31 161l127 470h284L1340 0"/><glyph glyph-name="w" unicode="w" horiz-adv-x="1115" d="M370 542L28 1062h328l206-338 208 338h329L753 542 1115 0H786L562 364 338 0H10"/><glyph glyph-name="x" unicode="x" horiz-adv-x="1107" d="M0 1062h317l201-597q25-78 35-185h6q10 98 40 185l197 597h311L657-136q-61-166-175.5-248.5T214-467q-75 0-148 16v230q53-13 114-13 77 0 134.5 47T405-45l17 53"/><glyph glyph-name="y" unicode="y" horiz-adv-x="891" d="M891 0H52v171l492 670H82v221h792V874L395 221h496"/><glyph glyph-name="z" unicode="z" horiz-adv-x="689" d="M273 256q0 83-62.5 127T29 427v227q120 0 182 41.5T273 815v310q0 145 92 204.5t324 59.5v-214q-94-3-130-36t-36-98V757q-5-178-222-211v-11q222-33 222-202V41q0-65 35.5-98T689-93v-215q-232 0-324 59.5T273-43"/><glyph glyph-name="{" unicode="{" horiz-adv-x="640" d="M432 1472h208V-442H432"/><glyph glyph-name="|" unicode="|" horiz-adv-x="737" d="M494-43q0-106-39-160t-128.5-79.5Q237-308 78-308v215q94 2 129.5 34T243 41v294q0 82 56 133t166 67v11q-216 33-222 211v284q0 67-35 99t-130 35v214q159 0 249-25t128.5-80q38.5-55 38.5-159V813q0-80 58.5-119.5T737 654V427q-119 0-181-39t-62-132"/><glyph glyph-name="}" unicode="}" horiz-adv-x="1027" d="M306 638q-52 0-111.5-31.5T84 523v220q97 103 243 103 69 0 130.5-15T590 786q122-53 216-53 50 0 110 30.5t111 84.5V629q-96-104-243-104-63 0-120 12.5T522 585q-125 53-216 53"/><glyph glyph-name="©" unicode="©" horiz-adv-x="1119" d="M78 544l352 433 208-113-265-331 265-331L430 89 78 520m481 24l351 433 209-113-265-331 265-331L910 89 559 520"/><glyph glyph-name="«" unicode="«" horiz-adv-x="1119" d="M1119 520L767 89 559 202l264 331-264 331 208 113 352-433m-481-24L286 89 78 202l264 331L78 864l208 113 352-433"/><glyph glyph-name="¬" unicode="¬" horiz-adv-x="1524" d="M850 960q-92 0-142.5-70.5T657 694q0-266 193-266 54 0 117 14.5t117 41.5V303q-114-54-239-54-194 0-300.5 118.5T438 696q0 209 105 325.5T837 1138q141 0 290-74l-71-160q-107 56-206 56M95 694q0 190 95 356.5T451.5 1313q166.5 96 357.5 96 190 0 356.5-95t262.5-261.5q96-166.5 96-358.5 0-187-92-351T1173.5 80Q1007-19 809-19q-196 0-362.5 98.5T187.5 342Q95 506 95 694m135 0q0-155 78-289.5t213-212Q656 115 809 115q156 0 290.5 78t212 213q77.5 135 77.5 288 0 156-78 290.5t-213 212Q963 1274 809 1274q-155 0-289.5-78t-212-213Q230 848 230 694"/><glyph glyph-name="Ç" unicode="Ç" horiz-adv-x="568" d="M58 403v237h510V403"/><glyph glyph-name="È" unicode="È" horiz-adv-x="975" d="M975 0H175v1389h800v-241H469V843h471V601H469V243h506m64812 1413q0 61 35.5 94.5t96.5 33.5q63 0 98.5-35t35.5-93q0-57-36-92t-98-35q-61 0-96.5 33.5t-35.5 93.5m383 0q0 66 38.5 97t95.5 31q62 0 98.5-34t36.5-94q0-58-37-92.5t-98-34.5q-57 0-95.5 31t-38.5 96"/><glyph glyph-name="Ê" unicode="Ê" horiz-adv-x="917" d="M265 1335q0 61 35.5 94.5T397 1463q63 0 98.5-35t35.5-93q0-57-36-92t-98-35q-61 0-96.5 33.5T265 1335m383 0q0 66 38.5 97t95.5 31q62 0 98.5-34t36.5-94q0-58-37-92.5t-98-34.5q-57 0-95.5 31t-38.5 96"/><glyph glyph-name="Ñ" unicode="Ñ" horiz-adv-x="1097" d="M763 1164q-116 0-191-67t-97-195h383V735H461l-2-33v-45l2-31h337V457H477q48-231 305-231 136 0 261 54V37Q933-19 765-19q-233 0-383 126.5T193 457H63v169h112q-4 22-4 59l2 50H63v167h126q35 230 189 363.5T763 1399q178 0 334-78l-93-220q-65 29-122 46t-119 17"/><glyph glyph-name="Û" unicode="Û" horiz-adv-x="1132" d="M-13 142v200h189v152H-13v242h189l-1 655 424-2q79-1 192-18 88-14 145-47 64-38 101-79 34-37 55-84 17-38 28-83 7-27 10-81 2-47 2-53-1-77-12-114-22-78-34-99-20-38-52-74-92-106-224-139-78-20-175-21l-166-3V342h299V142H469L468 0H175l1 142m293 594l132 1q60 1 108 18 44 15 74 49 26 30 40 66 13 37 13 79 0 44-14 79-16 40-39 64-24 25-77 42-40 14-104 14H468"/><glyph horiz-adv-x="444" d="M395 461H163l-48 928h329M111 136q0 80 43 120.5T278 297q79 0 122.5-41.5T444 136q0-75-44-118.5T278-26q-79 0-123 42.5T111 136"/><glyph horiz-adv-x="792" d="M391 1389l-39-502H165l-39 502m666 0l-39-502H566l-39 502"/><glyph glyph-name="!" unicode="!" horiz-adv-x="1214" d="M949 802l-45-221h246V386H867L794 0H585l74 386H475L403 0H199l70 386H43v195h263l45 221H111v198h275l73 387h208l-73-387h188l74 387h204l-74-387h228V802M512 581h186l45 221H557"/><glyph glyph-name="&quot;" unicode="&quot;" horiz-adv-x="1037" d="M1037 434q0-151-109-242.5T622 82v-195H492V78q-232 5-406 82v250q82-40 198.5-71.5T492 301v295l-64 24q-188 74-266 161T84 997q0 137 107.5 226T492 1331v145h130v-141q218-10 394-88l-90-222q-148 61-304 74V819q186-71 264-123.5t114.5-115Q1037 518 1037 434m-286-14q0 40-32 67.5T622 544V308q129 22 129 112M370 997q0-42 29-69t93-56v223q-122-18-122-98"/><glyph glyph-name="#" unicode="#" horiz-adv-x="1693" d="M299 973q0-121 21.5-180.5T390 733q91 0 91 240 0 237-91 237-48 0-69.5-58.5T299 973m421 2q0-219-84.5-328.5T388 537q-157 0-242.5 112.5T60 975q0 434 328 434 160 0 246-112.5T720 975m654 414L603 0H375l771 1389m126-971q0-121 21.5-180t68.5-59q92 0 92 239 0 238-92 238-47 0-68.5-58.5T1272 418m421 2q0-218-84.5-327.5T1360-17q-156 0-241.5 112.5T1033 420q0 434 327 434 161 0 247-112.5t86-321.5"/><glyph glyph-name="$" unicode="$" horiz-adv-x="1459" d="M1459 0h-358L992 107Q810-19 581-19 350-19 214 87.5T78 375q0 130 57.5 222T332 769q-71 81-103 155.5T197 1088q0 144 110.5 232.5T603 1409q177 0 283-82.5T992 1107q0-113-65.5-206.5T714 722l270-263q68 111 117 286h302q-34-128-94-250.5T1173 278M383 403q0-82 61-130.5T601 224q120 0 216 58L502 596q-56-42-87.5-87.5T383 403m341 673q0 51-34 80t-89 29q-63 0-99.5-30.5T465 1068q0-84 90-184 81 45 125 89t44 103"/><glyph glyph-name="%" unicode="%" horiz-adv-x="391" d="M391 1389l-39-502H165l-39 502"/><glyph glyph-name="&amp;" unicode="&amp;" horiz-adv-x="601" d="M78 533q0 252 73.5 471.5T364 1389h237q-134-183-202-402.5T331 535q0-233 69.5-450T599-308H364Q224-146 151 69.5T78 533"/><glyph glyph-name="'" unicode="'" horiz-adv-x="581" d="M581 533q0-250-73.5-465.5T295-308H60Q188-133 258.5 84T329 535q0 232-68.5 451.5T58 1389h237q140-166 213-386t73-470"/><glyph glyph-name="(" unicode="(" horiz-adv-x="1000" d="M654 1478l-39-349 354 98 31-239-323-23 212-282-215-115-149 297-130-295-224 113 210 282-321 25 37 237 347-98-39 349"/><glyph glyph-name=")" unicode=")" horiz-adv-x="1027" d="M451 581H84v208h367v371h208V789h368V581H659V216H451"/><glyph glyph-name="*" unicode="*" horiz-adv-x="436" d="M436 204Q387 12 269-251H60q62 253 96 477h266"/><glyph glyph-name="+" unicode="+" horiz-adv-x="568" d="M58 403v237h510V403"/><glyph glyph-name="," unicode="," horiz-adv-x="444" d="M111 136q0 80 43 120.5T278 297q79 0 122.5-41.5T444 136q0-75-44-118.5T278-26q-79 0-123 42.5T111 136"/><glyph glyph-name="-" unicode="-" horiz-adv-x="794" d="M794 1389L276 0H13l518 1389"/><glyph glyph-name="." unicode="." horiz-adv-x="1041" d="M1041 694q0-363-119-538T555-19q-241 0-363 180.5T70 694q0 368 119 542.5T555 1411q240 0 363-182.5T1041 694m-679 0q0-255 44-365.5T555 218q102 0 148 112t46 364q0 256-46.5 367.5T555 1173q-104 0-148.5-111.5T362 694"/><glyph glyph-name="/" unicode="/" horiz-adv-x="804" d="M804 0H510v804l3 132 5 144q-73-73-102-96L256 856l-141 177 447 356h242"/><glyph glyph-name="0" unicode="0" horiz-adv-x="1049" d="M1049 0H78v204l349 353q154 158 201.5 219.5T697 890q21 52 21 108 0 84-46 125t-123 41q-81 0-157-37t-158-106L74 1210q103 88 170.5 124t147 55.5Q471 1409 570 1409q130 0 230-47.5t155-133q55-85.5 55-195.5 0-96-34-180T871.5 680.5Q801 592 622 428L444 260v-13h605"/><glyph glyph-name="1" unicode="1" horiz-adv-x="1036" d="M995 1078q0-130-79-221T694 732v-6q169-21 255.5-102.5T1036 405q0-201-145.5-312.5T475-19Q249-19 74 56v250q81-41 178-66.5T444 214q145 0 214.5 49.5T728 422q0 98-80 138.5T393 601H288v225h107q162 0 236.5 42.5T706 1014q0 157-198 157-68 0-139-22.5T212 1070L76 1272q190 137 453 137 216 0 341-87.5T995 1078"/><glyph glyph-name="2" unicode="2" horiz-adv-x="1080" d="M1080 288H913V0H626v288H33v204l609 897h271V516h167m-454 0v235q0 59 5 171.5t7 130.5h-7q-35-78-85-152L292 516"/><glyph glyph-name="3" unicode="3" horiz-adv-x="1023" d="M583 887q202 0 321-113t119-309q0-233-143.5-358.5T469-19Q238-19 95 56v254q75-40 175-65.5T459 219q269 0 269 221 0 210-279 210-50 0-111-10t-99-22l-116 63 52 708h753v-249H432l-25-273 33 7q58 13 143 13"/><glyph glyph-name="4" unicode="4" horiz-adv-x="1049" d="M68 590q0 412 174.5 613.5T765 1405q119 0 186-14v-235q-85 19-167 19-151 0-246.5-45.5t-143-135Q347 905 338 741h13q94 161 301 161 186 0 291.5-116.5T1049 463q0-223-125.5-352.5T576-19q-154 0-268.5 71.5t-177 208Q68 397 68 590m502-374q94 0 144.5 63T765 459q0 101-47 159.5T576 677q-90 0-153-58t-63-135q0-113 59.5-190.5T570 216"/><glyph glyph-name="5" unicode="5" horiz-adv-x="1049" d="M216 0l521 1140H52v247h997v-184L523 0"/><glyph glyph-name="6" unicode="6" horiz-adv-x="1043" d="M557 1407q199 0 321-90.5t122-244.5q0-107-58.5-190T751 733q156-83 224-174t68-199q0-171-134-275T557-19q-228 0-358.5 97T68 352q0 119 63.5 211.5T334 726q-118 75-170.5 160.5T111 1074q0 149 123.5 241t322.5 92M340 370q0-82 57-127.5T553 197q109 0 163 47t54 124q0 63-53.5 118.5T542 605q-202-93-202-235m215 822q-75 0-121-38.5T388 1051q0-57 36.5-102.5T557 856q93 44 130 89.5t37 105.5q0 65-47.5 103T555 1192"/><glyph glyph-name="7" unicode="7" horiz-adv-x="1043" d="M1043 796q0-410-173-612.5T347-19Q223-19 160-6v236q79-20 167-20 147 0 242 43t145.5 136Q765 482 772 644h-11q-55-89-127.5-125T453 483q-181 0-285.5 116T63 922q0 224 126.5 353.5T535 1405q154 0 269.5-72t177-209.5Q1043 986 1043 796m-502 373q-92 0-143-62.5T347 926q0-100 46.5-159T535 708q89 0 152.5 58.5T751 901q0 113-59 190.5T541 1169"/><glyph glyph-name="8" unicode="8" horiz-adv-x="444" d="M111 136q0 80 43 120.5T278 297q79 0 122.5-41.5T444 136q0-75-44-118.5T278-26q-79 0-123 42.5T111 136m0 785q0 79 43 120t124 41q79 0 122.5-42T444 921q0-77-44.5-119.5T278 759q-79 0-123 42t-44 120"/><glyph glyph-name="9" unicode="9" horiz-adv-x="444" d="M422 226l14-22Q387 12 269-251H60q62 253 96 477m-45 695q0 79 43 120t124 41q79 0 122.5-42T444 921q0-77-44.5-119.5T278 759q-79 0-123 42t-44 120"/><glyph glyph-name=":" unicode=":" horiz-adv-x="1027" d="M1027 193L84 609v136l943 471V988L377 687l650-267"/><glyph glyph-name=";" unicode=";" horiz-adv-x="1027" d="M84 765v208h943V765M84 397v208h943V397"/><glyph glyph-name="&lt;" unicode="&lt;" horiz-adv-x="1027" d="M84 420l649 267L84 988v228l943-471V609L84 193"/><glyph glyph-name="=" unicode="=" horiz-adv-x="882" d="M262 461v70q0 91 39 158.5T444 833q99 71 131 116t32 100q0 62-45.5 94T434 1175q-142 0-325-93L6 1290q212 119 449 119 196 0 311.5-94T882 1064q0-104-47.5-180T654 712q-92-67-116-102t-24-92v-57M232 136q0 80 42.5 120.5T399 297q79 0 122-41.5T564 136q0-75-43.5-118.5T399-26q-80 0-123.5 42.5T232 136"/><glyph glyph-name="&gt;" unicode="&gt;" horiz-adv-x="1648" d="M1648 714q0-136-43.5-249.5T1481 286q-80-65-185-65-70 0-124.5 34t-78.5 89h-15Q976 221 817 221q-168 0-265 101.5T455 599q0 201 127.5 323.5T915 1045q82 0 180-15.5t162-37.5l-22-465q0-132 72-132 61 0 97 89t36 232q0 153-63.5 270.5t-179 179Q1082 1227 934 1227q-192 0-333.5-78.5T383.5 921Q308 772 308 578q0-263 140-403T854 35q101 0 221.5 22.5T1313 123V-60q-203-86-451-86-361 0-563 190T97 572q0 235 103 426t293.5 300Q684 1407 932 1407q209 0 373.5-85.5t253.5-243q89-157.5 89-364.5M675 596q0-201 164-201 85 0 130 60.5t54 196.5l13 210q-49 10-110 10-118 0-184.5-74T675 596"/><glyph glyph-name="?" unicode="?" horiz-adv-x="1342" d="M1025 0L924 331H418L317 0H0l490 1395h360L1342 0M854 578q-140 449-157.5 508t-24.5 93q-32-122-180-601"/><glyph glyph-name="@" unicode="@" horiz-adv-x="1205" d="M175 1389h432q295 0 428.5-84t133.5-268q0-124-58-204t-155-96v-9q132-30 190.5-110.5T1205 403q0-190-137.5-296.5T694 0H175m294 839h171q120 0 173.5 37T867 998q0 80-58.5 115T624 1148H469m0-543V243h192q122 0 180 46.5T899 432q0 173-247 173"/><glyph glyph-name="A" unicode="A" horiz-adv-x="1171" d="M765 1164q-167 0-258-125t-91-348q0-465 349-465 146 0 354 73V52Q948-19 737-19q-303 0-463.5 184T113 693q0 216 79 379t226.5 250q147.5 87 346.5 87 202 0 406-98l-95-239q-78 37-156.5 64.5T765 1164"/><glyph glyph-name="B" unicode="B" horiz-adv-x="1327" d="M1327 708q0-343-195-525.5T568 0H175v1389h436q340 0 528-179.5T1327 708m-306-8q0 448-395 448H469V243h127q425 0 425 457"/><glyph glyph-name="C" unicode="C" horiz-adv-x="975" d="M975 0H175v1389h800v-241H469V843h471V601H469V243h506"/><glyph glyph-name="D" unicode="D" horiz-adv-x="971" d="M465 0H175v1389h796v-241H465V789h471V549H465"/><glyph glyph-name="E" unicode="E" horiz-adv-x="1253" d="M702 780h551V60q-134-44-252-61.5T759-19q-314 0-480 185T113 696q0 337 192.5 525T839 1409q214 0 412-86l-98-235q-152 76-316 76-191 0-306-128.5T416 691q0-226 92.5-345.5T778 226q92 0 187 19v290H702"/><glyph glyph-name="F" unicode="F" horiz-adv-x="1313" d="M1313 0h-294v599H469V0H175v1389h294V845h550v544h294"/><glyph glyph-name="G" unicode="G" horiz-adv-x="469" d="M175 0v1389h294V0"/><glyph glyph-name="H" unicode="H" horiz-adv-x="469" d="M29-408q-99 0-173 20v246q76-20 138-20 97 0 139 60.5T175 87v1302h294V89q0-243-111-370T29-408"/><glyph glyph-name="I" unicode="I" horiz-adv-x="1292" d="M1292 0H958L594 585l-125-89V0H175v1389h294V753l116 164 376 472h327L804 774"/><glyph glyph-name="J" unicode="J" horiz-adv-x="1033" d="M175 0v1389h294V243h564V0"/><glyph glyph-name="K" unicode="K" horiz-adv-x="1660" d="M763 0L428 1090h-8q18-333 18-444V0H175v1389h401L904 327h6l349 1062h401V0h-275v657q0 47 1.5 108t12.5 323h-8L1033 0"/><glyph glyph-name="L" unicode="L" horiz-adv-x="1407" d="M1407 0h-374L428 1051h-8q18-279 18-397V0H175v1389h371l604-1040h6q-14 270-14 383v657h265"/><glyph glyph-name="M" unicode="M" horiz-adv-x="1435" d="M1435 696q0-344-171-529.5T774-19q-319 0-490 185.5T113 698q0 347 171.5 530T776 1411q320 0 489.5-184.5T1435 696m-1013 0q0-232 88-350t264-118q353 0 353 468 0 470-351 470-176 0-265-118.5T422 696"/><glyph glyph-name="N" unicode="N" horiz-adv-x="1134" d="M469 735h97q136 0 203.5 54T837 945q0 104-56.5 153.5T603 1148H469m665-192q0-224-140-343T596 494H469V0H175v1389h443q253 0 384.5-109T1134 956"/><glyph glyph-name="O" unicode="O" horiz-adv-x="1435" d="M1435 696q0-245-86.5-410.5T1093 43l335-374h-377L796-19h-22q-319 0-490 185.5T113 698q0 347 171.5 530T776 1411q320 0 489.5-184.5T1435 696m-1013 0q0-232 88-350t264-118q353 0 353 468 0 470-351 470-176 0-265-118.5T422 696"/><glyph glyph-name="P" unicode="P" horiz-adv-x="1284" d="M469 772h95q140 0 206.5 46.5T837 965q0 99-68 141t-210 42h-90m0-615V0H175v1389h405q283 0 418.5-103T1134 973q0-123-67.5-218.5T876 605q313-468 408-605H958L626 533"/><glyph glyph-name="Q" unicode="Q" horiz-adv-x="995" d="M995 386q0-188-135.5-296.5T483-19Q260-19 89 65v273q141-62 238.5-88T505 224q97 0 149 37t52 110q0 41-23 73t-67 61.5Q572 535 436 599q-127 60-191 115.5T143 843q-38 73-38 171 0 184 125 289.5T576 1409q108 0 206.5-25.5T988 1311l-95-229q-111 46-184 64t-143 18q-83 0-128-39t-45-102q0-39 18-68t57.5-56Q508 872 656 802q194-93 266.5-186.5T995 386"/><glyph glyph-name="R" unicode="R" horiz-adv-x="1088" d="M711 0H416v1144H39v245h1049v-245H711"/><glyph glyph-name="S" unicode="S" horiz-adv-x="1305" d="M1305 1389V490q0-154-68.5-270t-199-177.5Q907-19 730-19q-268 0-416.5 137.5T165 494v895h294V539q0-161 64.5-236T737 228q145 0 210 75.5t65 237.5v848"/><glyph glyph-name="T" unicode="T" horiz-adv-x="1264" d="M967 1389h297L792 0H471L0 1389h297l262-827q21-73 44.5-170.5T633 256q10 88 71 306"/><glyph glyph-name="U" unicode="U" horiz-adv-x="1881" d="M1528 0h-336l-188 730q-10 39-35.5 161T940 1054q-6-51-29-164.5T876 728L689 0H354L0 1389h290l177-758q47-210 68-364 6 54 26 167.5T599 611l203 778h278l202-778q14-52 34-159.5t30-184.5q10 74 30.5 184.5T1415 631l176 758h290"/><glyph glyph-name="V" unicode="V" horiz-adv-x="1298" d="M1298 0H961L638 525 315 0H0l461 716-432 673h325l300-500 293 500h317L828 700"/><glyph glyph-name="W" unicode="W" horiz-adv-x="1214" d="M607 817l290 572h317L753 541V0H461v531L0 1389h319"/><glyph glyph-name="X" unicode="X" horiz-adv-x="1080" d="M1080 0H47v191l665 955H65v243h997v-190L397 243h683"/><glyph glyph-name="Y" unicode="Y" horiz-adv-x="596" d="M596-308H136v1697h460v-201H383V-107h213"/><glyph glyph-name="Z" unicode="Z" horiz-adv-x="792" d="M275 1389L792 0H529L11 1389"/><glyph glyph-name="[" unicode="[" horiz-adv-x="508" d="M48-107h212v1295H48v201h460V-308H48"/><glyph glyph-name="\" unicode="\" horiz-adv-x="1031" d="M8 494l416 902h136l471-902H804l-306 611-266-611"/><glyph glyph-name="]" unicode="]" horiz-adv-x="804" d="M804-308H-4v133h808"/><glyph glyph-name="^" unicode="^" horiz-adv-x="864" d="M672 1179q-60 42-176 135.5T315 1471v20h325q60-96 224-286v-26"/><glyph glyph-name="_" unicode="_" horiz-adv-x="1029" d="M826 0l-56 144h-7Q690 52 612.5 16.5T410-19q-153 0-240.5 87.5T82 317q0 169 118 249.5T557 656l184 5v47q0 161-165 161-128 0-300-77l-96 196q184 96 407 96 214 0 328-93t114-283V0M741 492l-112-4q-126-4-188-45.5T379 315q0-122 141-122 100 0 160.5 58T741 405"/><glyph glyph-name="`" unicode="`" horiz-adv-x="1144" d="M743 1082q188 0 294.5-147T1144 533q0-263-110-407.5T735-19q-187 0-293 136h-20L373 0H152v1478h290v-344q0-65-12-210h12q101 158 301 158m-93-232q-108 0-157-66t-51-218v-31q0-171 50.5-245T654 216q89 0 141.5 82T848 537q0 157-53 235t-145 78"/><glyph glyph-name="a" unicode="a" horiz-adv-x="940" d="M583-19Q87-19 87 525q0 271 135 414t387 143q184 0 331-72l-86-224q-68 27-127 44.5T609 848q-226 0-226-321 0-311 226-311 84 0 155 22t142 70V60Q836 15 764.5-2T583-19"/><glyph glyph-name="b" unicode="b" horiz-adv-x="1080" d="M488-19q-187 0-294 145.5T87 529q0 261 109 407t300 146q200 0 306-156h9q-22 119-22 212v340h291V0H858l-56 138h-13Q691-19 488-19m102 231q111 0 163 64.5T809 496v31q0 171-52.5 245T585 846q-97 0-150.5-82T381 525q0-156 54-234.5T590 212"/><glyph glyph-name="c" unicode="c" horiz-adv-x="1066" d="M592 876q-92 0-144.5-58.5T388 652h406q-2 107-56 165.5T592 876m41-895q-257 0-401.5 141.5T87 523q0 267 133.5 413T590 1082q225 0 350.5-128T1066 599V459H381q5-124 73-193t192-69q96 0 181.5 20t178.5 63V56Q930 18 843.5-.5T633-19"/><glyph glyph-name="d" unicode="d" horiz-adv-x="841" d="M739 845H488V0H199v845H39v139l160 78v78q0 181 89 265t286 84q150 0 267-45l-74-213q-88 28-162 28-62 0-89.5-36.5T488 1129v-67h251"/><glyph glyph-name="e" unicode="e" horiz-adv-x="1076" d="M1076 1062V915l-166-43q46-71 46-160 0-170-119.5-265.5T505 351l-52 2-43 5q-44-34-44-76 0-63 159-63h181q175 0 266.5-75T1064-76q0-186-155.5-288.5T463-467q-223 0-340 77T6-173Q6-77 65.5-12.5T241 80q-44 19-77.5 62T130 234q0 60 35 100.5T267 414q-84 36-132.5 116T86 718q0 174 113 269t323 95q44 0 105.5-8t78.5-12M256-150q0-60 57.5-94T475-278q156 0 244.5 42.5T808-119q0 60-52.5 83T594-13H444q-80 0-134-37.5T256-150m106 864q0-86 39.5-136.5T522 527q81 0 119 50.5T679 714q0 192-157 192-160 0-160-192"/><glyph glyph-name="f" unicode="f" horiz-adv-x="1132" d="M1132 0H843v620q0 230-171 230-122 0-176-82.5T442 500V0H152v1478h290v-301q0-35-7-165l-7-86h16q97 156 307 156 188 0 284.5-100.5T1132 693"/><glyph glyph-name="g" unicode="g" horiz-adv-x="455" d="M140 1337q0 141 157 141 158 0 158-141 0-68-39.5-105.5T297 1194q-157 0-157 143M442 0H152v1062h290"/><glyph glyph-name="h" unicode="h" horiz-adv-x="455" d="M66-467q-111 0-190 23v228q66-18 135-18 74 0 107.5 41T152-72v1134h290V-115q0-169-98-260.5T66-467m74 1804q0 141 157 141 158 0 158-141 0-68-39.5-105.5T297 1194q-157 0-157 143"/><glyph glyph-name="i" unicode="i" horiz-adv-x="1206" d="M430 578l127 161 297 323h327L759 601 1206 0H872L566 430l-124-99V0H152v1478h290V819l-15-241"/><glyph glyph-name="j" unicode="j" horiz-adv-x="442" d="M442 0H152v1478h290"/><glyph glyph-name="k" unicode="k" horiz-adv-x="1765" d="M1103 0H813v620q0 115-38.5 172.5T654 850q-112 0-162-81.5T442 500V0H152v1062h221l39-136h16q43 73 124 114.5t185 41.5q239 0 323-156h26q43 74 126 115t187 41q181 0 273.5-92.5T1765 693V0h-291v620q0 115-38.5 172.5T1315 850q-107 0-159.5-76T1103 533"/><glyph glyph-name="l" unicode="l" horiz-adv-x="1132" d="M1132 0H843v620q0 115-41 172.5T672 850q-122 0-176-81t-54-269V0H152v1062h221l39-136h16q49 77 134 116.5t193 39.5q185 0 281-100t96-289"/><glyph glyph-name="m" unicode="m" horiz-adv-x="1117" d="M383 533q0-158 51.5-238.5T603 214q116 0 167 80t51 239q0 158-51.5 236.5T601 848q-116 0-167-78t-51-237m734 0q0-259-136.5-405.5T599-19q-153 0-269.5 67T150 240.5Q87 366 87 533q0 260 136 404.5T605 1082q153 0 270-66.5t179.5-191Q1117 700 1117 533"/><glyph glyph-name="n" unicode="n" horiz-adv-x="1144" d="M735-19q-187 0-293 136h-15q15-133 15-154v-430H152v1529h236l40-138h14q101 158 301 158 188 0 294.5-145.5T1144 533q0-170-50-295.5t-142-191Q860-19 735-19m-85 869q-108 0-157-66t-51-218v-31q0-171 50.5-245T654 216q194 0 194 321 0 157-48 235t-150 78"/><glyph glyph-name="o" unicode="o" horiz-adv-x="1080" d="M592 208q110 0 161.5 63T809 492v35q0 171-52.5 245T587 846q-204 0-204-321 0-159 50.5-238T592 208M488-19q-188 0-294.5 145T87 529q0 260 109 406.5T494 1082q101 0 176-38t132-118h7l26 136h245V-467H789v445q0 58 13 160h-13Q743 61 666 21T488-19"/><glyph glyph-name="p" unicode="p" horiz-adv-x="843" d="M745 1082q59 0 98-8l-22-272q-35 9-86 9-138 0-215.5-71T442 541V0H152v1062h219l43-178h14q50 89 134 143.5t183 54.5"/><glyph glyph-name="q" unicode="q" horiz-adv-x="893" d="M893 315q0-163-113.5-248.5T440-19Q324-19 242.5-3.5T89 43v239q81-38 182-63.5T449 193q158 0 158 91 0 34-21 55.5T514 388q-51 27-137 63-122 52-179.5 95.5t-84 100Q87 703 87 786q0 141 110 218.5t311 77.5q192 0 374-84l-88-209q-80 35-149 56.5T504 867q-129 0-129-69 0-39 41.5-67.5T598 646q124-50 182-94t85.5-101Q893 394 893 315"/><glyph glyph-name="r" unicode="r" horiz-adv-x="782" d="M599 212q76 0 183 33V29Q674-19 516-19q-174 0-253.5 88T183 332v513H45v122l159 97 84 224h185v-226h297V845H473V332q0-61 34.5-90.5T599 212"/><glyph glyph-name="s" unicode="s" horiz-adv-x="1127" d="M904 0l-39 136h-15Q804 62 718.5 21.5T523-19Q336-19 241 81t-95 289v692h290V442q0-115 41-172.5T607 212q122 0 176 81t54 269v500h290V0"/><glyph glyph-name="t" unicode="t" horiz-adv-x="1107" d="M405 0L0 1062h303l205-605q34-115 43-218h6q4 92 42 218l205 605h303L702 0"/><glyph glyph-name="u" unicode="u" horiz-adv-x="1646" d="M1025 0l-82 371-110 470h-7L633 0H321L19 1062h289l122-470q30-126 60-349h6q4 72 33 229l15 81 131 509h320l124-509q4-21 12-62t15.5-87q7.5-46 14-90t7.5-71h5q9 69 31 188t31 161l127 470h284L1340 0"/><glyph glyph-name="v" unicode="v" horiz-adv-x="1115" d="M370 542L28 1062h328l206-338 208 338h329L753 542 1115 0H786L562 364 338 0H10"/><glyph glyph-name="w" unicode="w" horiz-adv-x="1107" d="M0 1062h317l201-597q25-78 35-185h6q10 98 40 185l197 597h311L657-136q-61-166-175.5-248.5T214-467q-75 0-148 16v230q53-13 114-13 77 0 134.5 47T405-45l17 53"/><glyph glyph-name="x" unicode="x" horiz-adv-x="891" d="M891 0H52v171l492 670H82v221h792V874L395 221h496"/><glyph glyph-name="y" unicode="y" horiz-adv-x="689" d="M273 256q0 83-62.5 127T29 427v227q120 0 182 41.5T273 815v310q0 145 92 204.5t324 59.5v-214q-94-3-130-36t-36-98V757q-5-178-222-211v-11q222-33 222-202V41q0-65 35.5-98T689-93v-215q-232 0-324 59.5T273-43"/><glyph glyph-name="z" unicode="z" horiz-adv-x="640" d="M432 1472h208V-442H432"/><glyph glyph-name="{" unicode="{" horiz-adv-x="737" d="M494-43q0-106-39-160t-128.5-79.5Q237-308 78-308v215q94 2 129.5 34T243 41v294q0 82 56 133t166 67v11q-216 33-222 211v284q0 67-35 99t-130 35v214q159 0 249-25t128.5-80q38.5-55 38.5-159V813q0-80 58.5-119.5T737 654V427q-119 0-181-39t-62-132"/><glyph glyph-name="|" unicode="|" horiz-adv-x="1027" d="M306 638q-52 0-111.5-31.5T84 523v220q97 103 243 103 69 0 130.5-15T590 786q122-53 216-53 50 0 110 30.5t111 84.5V629q-96-104-243-104-63 0-120 12.5T522 585q-125 53-216 53"/><glyph glyph-name="~" unicode="~" horiz-adv-x="917" d="M265 1335q0 61 35.5 94.5T397 1463q63 0 98.5-35t35.5-93q0-57-36-92t-98-35q-61 0-96.5 33.5T265 1335m383 0q0 66 38.5 97t95.5 31q62 0 98.5-34t36.5-94q0-58-37-92.5t-98-34.5q-57 0-95.5 31t-38.5 96"/><glyph horiz-adv-x="1524" d="M850 960q-92 0-142.5-70.5T657 694q0-266 193-266 54 0 117 14.5t117 41.5V303q-114-54-239-54-194 0-300.5 118.5T438 696q0 209 105 325.5T837 1138q141 0 290-74l-71-160q-107 56-206 56M95 694q0 190 95 356.5T451.5 1313q166.5 96 357.5 96 190 0 356.5-95t262.5-261.5q96-166.5 96-358.5 0-187-92-351T1173.5 80Q1007-19 809-19q-196 0-362.5 98.5T187.5 342Q95 506 95 694m135 0q0-155 78-289.5t213-212Q656 115 809 115q156 0 290.5 78t212 213q77.5 135 77.5 288 0 156-78 290.5t-213 212Q963 1274 809 1274q-155 0-289.5-78t-212-213Q230 848 230 694"/><glyph glyph-name="¨" unicode="¨" horiz-adv-x="1119" d="M78 544l352 433 208-113-265-331 265-331L430 89 78 520m481 24l351 433 209-113-265-331 265-331L910 89 559 520"/><glyph glyph-name="©" unicode="©" horiz-adv-x="568" d="M58 403v237h510V403"/><glyph glyph-name="«" unicode="«" horiz-adv-x="864" d="M315 1179v26q164 190 224 286h325v-20q-50-50-169-147.5T508 1179"/><glyph glyph-name="­" unicode="­" horiz-adv-x="1119" d="M1119 520L767 89 559 202l264 331-264 331 208 113 352-433m-481-24L286 89 78 202l264 331L78 864l208 113 352-433"/><glyph glyph-name="´" unicode="´" horiz-adv-x="975" d="M975 0H175v1389h800v-241H469V843h471V601H469V243h506m64812 1413q0 61 35.5 94.5t96.5 33.5q63 0 98.5-35t35.5-93q0-57-36-92t-98-35q-61 0-96.5 33.5t-35.5 93.5m383 0q0 66 38.5 97t95.5 31q62 0 98.5-34t36.5-94q0-58-37-92.5t-98-34.5q-57 0-95.5 31t-38.5 96"/><glyph glyph-name="»" unicode="»" horiz-adv-x="1342" d="M1025 0L924 331H418L317 0H0l490 1395h360L1342 0M854 578q-140 449-157.5 508t-24.5 93q-32-122-180-601"/><glyph glyph-name="Ё" unicode="Ё" horiz-adv-x="1153" d="M469 856h116q272 0 420-110t148-312Q1153 0 580 0H175v1389h878v-243H469m0-905h99q149 0 218.5 48T856 434q0 96-70.5 138.5T544 615h-75"/><glyph glyph-name="А" unicode="А" horiz-adv-x="1205" d="M175 1389h432q295 0 428.5-84t133.5-268q0-124-58-204t-155-96v-9q132-30 190.5-110.5T1205 403q0-190-137.5-296.5T694 0H175m294 839h171q120 0 173.5 37T867 998q0 80-58.5 115T624 1148H469m0-543V243h192q122 0 180 46.5T899 432q0 173-247 173"/><glyph glyph-name="Б" unicode="Б" horiz-adv-x="1053" d="M1053 1389v-243H469V0H175v1389"/><glyph glyph-name="В" unicode="В" horiz-adv-x="1448" d="M10 245h107q138 276 217.5 551T453 1389h810V245h185v-650h-284V0H294v-405H10m677 1549q-31-218-101.5-461T427 245h542v899"/><glyph glyph-name="Г" unicode="Г" horiz-adv-x="975" d="M975 0H175v1389h800v-241H469V843h471V601H469V243h506"/><glyph glyph-name="Д" unicode="Д" horiz-adv-x="1834" d="M494 722L28 1389h303l449-673v673h274V716l450 673h304l-468-667L1834 0h-315l-465 704V0H780v704L315 0H0"/><glyph glyph-name="Е" unicode="Е" horiz-adv-x="1177" d="M1134 1064q0-134-95-221.5T782 732v-6q191-19 293-105.5T1177 395q0-192-155.5-303T592-19q-306 0-491 75v247q89-43 209-67t225-24q350 0 350 204 0 92-112.5 141.5T440 607H310v230h117q220 0 320.5 42T848 1017q0 72-63 114t-189 42q-196 0-378-113L89 1257q119 79 252 115.5t295 36.5q228 0 363-95t135-250"/><glyph glyph-name="Ж" unicode="Ж" horiz-adv-x="1426" d="M175 1389h265V718l-4-179-9-205h5l642 1055h352V0h-262v667q0 134 17 397h-8L529 0H175"/><glyph glyph-name="З" unicode="З" horiz-adv-x="1426" d="M175 1389h265V718l-4-179-9-205h5l642 1055h352V0h-262v667q0 134 17 397h-8L529 0H175m1085 1840q-18-178-134-259t-334-81q-225 0-333 78t-121 262h259q7-98 49-137.5t152-39.5q96 0 143 43.5t57 133.5"/><glyph glyph-name="И" unicode="И" horiz-adv-x="1307" d="M1307 0H973L469 704V0H175v1389h294V716l498 673h314L774 722"/><glyph glyph-name="Й" unicode="Й" horiz-adv-x="1274" d="M1274 0H980v1144H640l-15-128q-59-485-104-681T389.5 59Q303-21 156-19 76-19 15 2v241q55-19 104-19 50 0 79.5 46T254 441q26 125 69.5 409.5T397 1389h877"/><glyph glyph-name="К" unicode="К" horiz-adv-x="1660" d="M763 0L428 1090h-8q18-333 18-444V0H175v1389h401L904 327h6l349 1062h401V0h-275v657q0 47 1.5 108t12.5 323h-8L1033 0"/><glyph glyph-name="Л" unicode="Л" horiz-adv-x="1313" d="M1313 0h-294v599H469V0H175v1389h294V845h550v544h294"/><glyph glyph-name="М" unicode="М" horiz-adv-x="1435" d="M1435 696q0-344-171-529.5T774-19q-319 0-490 185.5T113 698q0 347 171.5 530T776 1411q320 0 489.5-184.5T1435 696m-1013 0q0-232 88-350t264-118q353 0 353 468 0 470-351 470-176 0-265-118.5T422 696"/><glyph glyph-name="Н" unicode="Н" horiz-adv-x="1274" d="M1274 0H980v1144H469V0H175v1389h1099"/><glyph glyph-name="О" unicode="О" horiz-adv-x="1134" d="M469 735h97q136 0 203.5 54T837 945q0 104-56.5 153.5T603 1148H469m665-192q0-224-140-343T596 494H469V0H175v1389h443q253 0 384.5-109T1134 956"/><glyph glyph-name="П" unicode="П" horiz-adv-x="1171" d="M765 1164q-167 0-258-125t-91-348q0-465 349-465 146 0 354 73V52Q948-19 737-19q-303 0-463.5 184T113 693q0 216 79 379t226.5 250q147.5 87 346.5 87 202 0 406-98l-95-239q-78 37-156.5 64.5T765 1164"/><glyph glyph-name="Р" unicode="Р" horiz-adv-x="1088" d="M711 0H416v1144H39v245h1049v-245H711"/><glyph glyph-name="С" unicode="С" horiz-adv-x="1270" d="M1270 1389L841 407q-81-186-152-266.5t-167.5-120Q425-19 286-19 167-19 65 10v252q83-34 208-34 79 0 127 36.5T481 391L0 1389h312l342-774h9l17 47 287 727"/><glyph glyph-name="Т" unicode="Т" horiz-adv-x="1586" d="M969 422h13q153 0 240 80t87 220q0 129-80.5 207.5T1008 1008h-39M704-19v214h-21q-177 0-310 62T163.5 443.5Q87 568 87 720q0 147 68 265.5T351.5 1171q128.5 67 302.5 67h50v171h265v-171h50q173 0 301.5-67t197-185.5Q1586 867 1586 720q0-152-76.5-276.5T1300 257q-133-62-310-62h-21V-19M704 1008h-39q-140 0-220.5-78T364 722q0-137 85.5-218.5T691 422h13"/><glyph glyph-name="У" unicode="У" horiz-adv-x="1298" d="M1298 0H961L638 525 315 0H0l461 716-432 673h325l300-500 293 500h317L828 700"/><glyph glyph-name="Ф" unicode="Ф" horiz-adv-x="1481" d="M1274 234h207v-639h-284V0H175v1389h294V245h511v1144h294"/><glyph glyph-name="Х" unicode="Х" horiz-adv-x="1242" d="M1242 0H947v537q-146-50-243.5-68T518 451q-199 0-306.5 95.5T104 815v574h293V899q0-101 46.5-152T601 696q78 0 155.5 16T947 767v622h295"/><glyph glyph-name="Ц" unicode="Ц" horiz-adv-x="1922" d="M1197 245h431v1144h294V0H175v1389h294V245h432v1144h296"/><glyph glyph-name="Ч" unicode="Ч" horiz-adv-x="2129" d="M1197 245h431v1144h294V234h207v-639h-284V0H175v1389h294V245h432v1144h296M2098 0"/><glyph glyph-name="Ш" unicode="Ш" horiz-adv-x="1327" d="M1327 434q0-216-145-325T753 0H349v1144H0v245h642V856h117q272 0 420-110t148-312M642 241h99q149 0 218.5 48t69.5 145q0 96-70.5 138.5T718 615h-76"/><glyph glyph-name="Щ" unicode="Щ" horiz-adv-x="1587" d="M1125 434q0-216-144-325T555 0H175v1389h294V856h95q267 0 414-110.5T1125 434M469 241h77q146 0 213 48t67 145q0 97-65 139t-228 42h-64M1587 0h-293v1389h293"/><glyph glyph-name="Ъ" unicode="Ъ" horiz-adv-x="1153" d="M1153 434Q1153 0 580 0H175v1389h294V856h116q272 0 420-110t148-312M469 241h99q149 0 218.5 48T856 434q0 96-70.5 138.5T544 615h-75"/><glyph glyph-name="Ы" unicode="Ы" horiz-adv-x="1177" d="M525 1164q-94 0-184.5-26.5T162 1074l-94 237q221 98 463 98 309 0 477.5-189.5T1177 693q0-344-173.5-528T504-19Q278-19 93 52v247q231-73 393-73 182 0 277.5 88.5T867 580H265v241h600q-5 161-96.5 252T525 1164"/><glyph glyph-name="Ь" unicode="Ь" horiz-adv-x="1969" d="M1969 696q0-342-160-528.5T1350-19q-275 0-432.5 158T735 599H469V0H175v1389h294V845h272q32 274 188.5 420t422.5 146q300 0 458.5-186.5T1969 696m-932 0q0-231 80-349.5T1350 228q315 0 315 468 0 232-78 351t-233 119q-156 0-236.5-119T1037 696"/><glyph glyph-name="Э" unicode="Э" horiz-adv-x="1119" d="M642 533L317 0H-10l396 611q-118 47-181 146.5T142 992q0 191 135.5 294T667 1389h452V0H825v533m0 615H679q-114 0-176.5-41T440 971q0-92 60.5-145.5T687 772h138"/><glyph glyph-name="Ю" unicode="Ю" horiz-adv-x="1029" d="M826 0l-56 144h-7Q690 52 612.5 16.5T410-19q-153 0-240.5 87.5T82 317q0 169 118 249.5T557 656l184 5v47q0 161-165 161-128 0-300-77l-96 196q184 96 407 96 214 0 328-93t114-283V0M741 492l-112-4q-126-4-188-45.5T379 315q0-122 141-122 100 0 160.5 58T741 405"/><glyph glyph-name="Я" unicode="Я" horiz-adv-x="1123" d="M87 636q0 366 139.5 555.5T661 1432q144 24 429 62l33-252q-124-15-438-61-120-19-179-57t-87.5-108.5Q390 945 383 828h14q50 78 133 120t178 42q196 0 305.5-120T1123 525q0-258-138.5-401T603-19q-243 0-379.5 174.5T87 636m533-420q206 0 206 284 0 276-186 276-51 0-102-23.5t-93-62Q403 652 383 613q0-193 61.5-295T620 216"/><glyph glyph-name="а" unicode="а" horiz-adv-x="1166" d="M1132 784q0-86-53.5-146T921 560v-7q113-13 179-77.5t66-158.5q0-155-122-236T696 0H152v1062h544q219 0 327.5-70.5T1132 784M865 332q0 63-48 91t-145 28H442V200h235q93 0 140.5 35t47.5 97m-26 429q0 97-154 97H442V648h210q92 0 139.5 26.5T839 761"/><glyph glyph-name="б" unicode="б" horiz-adv-x="885" d="M885 1062V845H442V0H152v1062"/><glyph glyph-name="в" unicode="в" horiz-adv-x="1263" d="M817 212v633H599q-23-177-64.5-335.5T420 212m843-593h-261V0H288v-381H28v593h89q91 141 153 357t86 493h751V212h156"/><glyph glyph-name="г" unicode="г" horiz-adv-x="1066" d="M592 876q-92 0-144.5-58.5T388 652h406q-2 107-56 165.5T592 876m41-895q-257 0-401.5 141.5T87 523q0 267 133.5 413T590 1082q225 0 350.5-128T1066 599V459H381q5-124 73-193t192-69q96 0 181.5 20t178.5 63V56Q930 18 843.5-.5T633-19"/><glyph glyph-name="д" unicode="д" horiz-adv-x="1699" d="M714 546v516h270V546l378 516h300l-392-509L1699 0h-310L984 539V0H714v539L310 0H0l428 553-391 509h299"/><glyph glyph-name="е" unicode="е" horiz-adv-x="1006" d="M416 654q164 0 233 26.5t69 84.5q0 51-50 76.5T502 867q-74 0-166.5-18T167 800l-85 202q113 43 219.5 61.5T539 1082q198 0 318-76t120-206q0-180-212-234v-9q130-33 185.5-92t55.5-155q0-97-62.5-172T762 22Q643-19 483-19 217-19 74 47v239q82-38 179.5-60T442 204q141 0 211.5 32t70.5 91q0 64-74 95t-228 31H310v201"/><glyph glyph-name="ж" unicode="ж" horiz-adv-x="1249" d="M432 1062V642q0-66-22-325l491 745h348V0H969v424q0 113 19 319L500 0H152v1062"/><glyph glyph-name="з" unicode="з" horiz-adv-x="1249" d="M432 1062V642q0-66-22-325l491 745h348V0H969v424q0 113 19 319L500 0H152v1062m1011 457q-18-178-134-259t-334-81q-225 0-333 78t-121 262h259q7-98 49-137.5t152-39.5q96 0 143 43.5t57 133.5"/><glyph glyph-name="и" unicode="и" horiz-adv-x="1205" d="M848 1062h320L747 553 1205 0H876L442 539V0H152v1062h290V546"/><glyph glyph-name="й" unicode="й" horiz-adv-x="1103" d="M1103 0H813v845H546q-30-357-74-532T355.5 59.5Q283-19 165-19 65-19 0 11v232q47-19 93-19 54 0 90.5 78T249 562q29 182 50 500h804"/><glyph glyph-name="к" unicode="к" horiz-adv-x="1491" d="M1491 0h-271v837l-15-59q-52-200-93-303L924 0H718L527 479q-41 104-87 293l-18 65V0H152v1062h399l182-453q29-73 53-168t33-163q31 143 48.5 205T906 597.5q21 52.5 189 464.5h396"/><glyph glyph-name="л" unicode="л" horiz-adv-x="1136" d="M442 1062V654h404v408h290V0H846v438H442V0H152v1062"/><glyph glyph-name="м" unicode="м" horiz-adv-x="1117" d="M383 533q0-158 51.5-238.5T603 214q116 0 167 80t51 239q0 158-51.5 236.5T601 848q-116 0-167-78t-51-237m734 0q0-259-136.5-405.5T599-19q-153 0-269.5 67T150 240.5Q87 366 87 533q0 260 136 404.5T605 1082q153 0 270-66.5t179.5-191Q1117 700 1117 533"/><glyph glyph-name="н" unicode="н" horiz-adv-x="1117" d="M1117 1062V0H826v845H442V0H152v1062"/><glyph glyph-name="о" unicode="о" horiz-adv-x="1144" d="M735-19q-187 0-293 136h-15q15-133 15-154v-430H152v1529h236l40-138h14q101 158 301 158 188 0 294.5-145.5T1144 533q0-170-50-295.5t-142-191Q860-19 735-19m-85 869q-108 0-157-66t-51-218v-31q0-171 50.5-245T654 216q194 0 194 321 0 157-48 235t-150 78"/><glyph glyph-name="п" unicode="п" horiz-adv-x="940" d="M583-19Q87-19 87 525q0 271 135 414t387 143q184 0 331-72l-86-224q-68 27-127 44.5T609 848q-226 0-226-321 0-311 226-311 84 0 155 22t142 70V60Q836 15 764.5-2T583-19"/><glyph glyph-name="р" unicode="р" horiz-adv-x="1031" d="M1031 1062V845H683V0H393v845H45v217"/><glyph glyph-name="с" unicode="с" horiz-adv-x="1107" d="M0 1062h317l201-597q25-78 35-185h6q10 98 40 185l197 597h311L657-136q-61-166-175.5-248.5T214-467q-75 0-148 16v230q53-13 114-13 77 0 134.5 47T405-45l17 53"/><glyph glyph-name="т" unicode="т" horiz-adv-x="1496" d="M928 1068q266-22 417-164.5T1496 531q0-235-149-376T928-8v-459H659V-8Q390 17 238.5 161T87 531q0 240 146.5 379.5T659 1068v410h269M386 531q0-134 73-218t200-101v638q-122-16-197.5-103.5T386 531m813 0q0 125-71.5 211T928 846V212q126 17 198.5 101.5T1199 531"/><glyph glyph-name="у" unicode="у" horiz-adv-x="1115" d="M370 542L28 1062h328l206-338 208 338h329L753 542 1115 0H786L562 364 338 0H10"/><glyph glyph-name="ф" unicode="ф" horiz-adv-x="1311" d="M1156 212h155v-593h-260V0H152v1062h290V218h423v844h291"/><glyph glyph-name="х" unicode="х" horiz-adv-x="1125" d="M407 1062V674q0-139 128-139 83 0 155 19t145 49v459h290V0H835v422q-101-53-187.5-75T481 325q-174 0-269 89t-95 253v395"/><glyph glyph-name="ц" unicode="ц" horiz-adv-x="1734" d="M1734 0H152v1062h290V218h356v844h290V218h356v844h290"/><glyph glyph-name="ч" unicode="ч" horiz-adv-x="1890" d="M1734 212h156v-593h-262V0H152v1062h290V218h356v844h290V218h356v844h290M1886 0"/><glyph glyph-name="ш" unicode="ш" horiz-adv-x="1313" d="M629 1062V652h204q245 0 362.5-78T1313 338Q1313 0 845 0H338v845H0v217m1023-728q0 62-49 89.5T826 451H629V200h201q193 0 193 134"/><glyph glyph-name="щ" unicode="щ" horiz-adv-x="1502" d="M442 652h139q244 0 360.5-78T1058 338q0-168-116.5-253T592 0H152v1062h290m327-728q0 62-49.5 89.5T572 451H442V200h134q193 0 193 134M1502 0h-290v1062h290"/><glyph glyph-name="ъ" unicode="ъ" horiz-adv-x="1127" d="M442 652h204q245 0 363-78t118-236Q1127 0 657 0H152v1062h290m395-728q0 62-49.5 89.5T640 451H442V200h202q193 0 193 134"/><glyph glyph-name="ы" unicode="ы" horiz-adv-x="908" d="M397-19Q198-19 70 47v226q166-76 311-76 104 0 161 60.5T609 440H208v193h401q-8 117-58.5 175.5T405 867q-113 0-247-59l-82 198q71 33 161 54.5t179 21.5q249 0 370.5-135T908 542q0-277-128.5-419T397-19"/><glyph glyph-name="ь" unicode="ь" horiz-adv-x="1619" d="M1619 533q0-261-132-406.5T1121-19Q911-19 785 99T633 438H442V0H152v1062h290V654h194q28 203 157.5 315.5T1127 1082q225 0 358.5-147.5T1619 533m-695 0q0-159 46.5-239t154.5-80q105 0 151.5 80t46.5 239q0 159-47 237t-153 78q-106 0-152.5-78.5T924 533"/><glyph glyph-name="э" unicode="э" horiz-adv-x="1002" d="M314 0H0l286 420q-103 43-155.5 123.5T78 733q0 154 115.5 241.5T508 1062h494V0H712v395H553M362 732q0-67 52-104.5T551 590h161v268H514q-71 0-111.5-35T362 732"/><glyph glyph-name="ю" unicode="ю" horiz-adv-x="1066" d="M592 876q-92 0-144.5-58.5T388 652h406q-2 107-56 165.5T592 876m41-895q-257 0-401.5 141.5T87 523q0 267 133.5 413T590 1082q225 0 350.5-128T1066 599V459H381q5-124 73-193t192-69q96 0 181.5 20t178.5 63V56Q930 18 843.5-.5T633-19M267 1335q0 61 35.5 94.5T399 1463q63 0 98.5-35t35.5-93q0-57-36-92t-98-35q-61 0-96.5 33.5T267 1335m383 0q0 66 38.5 97t95.5 31q62 0 98.5-34t36.5-94q0-58-37-92.5t-98-34.5q-57 0-95.5 31t-38.5 96"/><glyph glyph-name="я" unicode="я" horiz-adv-x="1868" d="M78 414v219h1790V414"/><glyph glyph-name="ё" unicode="ё" horiz-adv-x="1097" d="M763 1164q-116 0-191-67t-97-195h383V735H461l-2-33v-45l2-31h337V457H477q48-231 305-231 136 0 261 54V37Q933-19 765-19q-233 0-383 126.5T193 457H63v169h112q-4 22-4 59l2 50H63v167h126q35 230 189 363.5T763 1399q178 0 334-78l-93-220q-65 29-122 46t-119 17"/><glyph glyph-name="—" unicode="—" horiz-adv-x="1132" d="M-13 142v200h189v152H-13v242h189l-1 655 424-2q79-1 192-18 88-14 145-47 64-38 101-79 34-37 55-84 17-38 28-83 7-27 10-81 2-47 2-53-1-77-12-114-22-78-34-99-20-38-52-74-92-106-224-139-78-20-175-21l-166-3V342h299V142H469L468 0H175l1 142m293 594l132 1q60 1 108 18 44 15 74 49 26 30 40 66 13 37 13 79 0 44-14 79-16 40-39 64-24 25-77 42-40 14-104 14H468"/><glyph glyph-name="€" unicode="€" horiz-adv-x="1021" d="M1021 1519q-18-178-134-259t-334-81q-225 0-333 78T99 1519h259q7-98 49-137.5t152-39.5q96 0 143 43.5t57 133.5"/></font>
</defs>
</svg>
